/* XPM */
static char *_5d8becaa3da474cd13579d4545afc90hHVDnr9pXW07y0Ws[] = {
/* columns rows colors chars-per-pixel */
"64 64 60 1 ",
"  c #74736F",
". c #757470",
"X c #767570",
"o c #767571",
"O c #767573",
"+ c #777672",
"@ c #777674",
"# c #787772",
"$ c #787773",
"% c #787775",
"& c #797873",
"* c #797874",
"= c #7A7974",
"- c #7A7975",
"; c #7B7A75",
": c #797876",
"> c #7A7977",
", c #7B7A76",
"< c #7C7B76",
"1 c #7C7B77",
"2 c #7D7C77",
"3 c #7B7A78",
"4 c #7C7B79",
"5 c #7D7C78",
"6 c #7E7D78",
"7 c #7E7D79",
"8 c #7F7E79",
"9 c #7D7C7A",
"0 c #7E7D7B",
"q c #7F7E7A",
"w c #7F7E7C",
"e c #807F7A",
"r c #807F7B",
"t c #807F7D",
"y c #81807B",
"u c #81807C",
"i c #82817C",
"p c #82817D",
"a c #83827D",
"s c #81807E",
"d c #82817F",
"f c #83827E",
"g c #84837E",
"h c #84837F",
"j c #85847F",
"k c #838280",
"l c #848381",
"z c #858480",
"x c #868580",
"c c #868581",
"v c #878681",
"b c #858482",
"n c #868583",
"m c #878682",
"M c #878684",
"N c #888782",
"B c #888783",
"V c #888785",
"C c #8A8984",
"Z c #898886",
/* pixels */
"9wttwwskbkkslkksye99yy2;eyyyshsjhbbssbl99slbsst9>>4tsssbbbsssssk",
"9ttwwwssssssklkk9ye99ee99999eeystskslbbstssbsstt4>9sswtslss9t99s",
"wwwwwwsksttkklss;9yy2>2y99yeetee9ssslbbkssllss99999ss9wssssst9ts",
"wwt99wskttsskks9;299229yyyyyyyssksksslsssllbstttw9tssw9kbllsssss",
"9tww9tskskskksw4y2;;9eeeysysyysysssklssslbblss9s999ksttssllsssss",
"99tswwsslskkksw9y9;9ese92ye9eyeyt99sblsbsllsssssw9tkk9tlsssssst9",
"99ssstttksssklsshye99ety929eteyy999kbllbllblssslstsssw9sssssss99",
"39sssswwkstskbbbshse22ejyeyyshsjk99slssslslssssbsssls99tksllssst",
"stwwskkkttsllbkssyss92&#2esy929e9tslbbbb9sllbskstsst994449slssss",
"st9wskllssskbbbseyeee2;;>2e9222e99sssbblsklslsllttstt94999ssst9t",
"t99tskllskslMblk9e9e9e22&>2229299tsssblllslsbbbbtttt9w999wtt9499",
"w99tslllkslbbMbkyye99299>29e299esksblbbbllbbbblssttttt99t9t99499",
"949wkkklkskbMMbkayye922222999e9ellslllbbsllbZVltssstss94tsss999t",
"949wskssskslbMlkssyyy9922;22ee22ssssttssssbMZVs9bsttssw49sskssss",
"999sskstssslbblsyyysy992;&>2yssysss999stbsssbbs9Msttss4>49sslssl",
"999tkstwtssklbls29yyyyy9;>;ehNNblsssttssZlttsbltVlstss4%>9slslls",
"9939tkbbsssklbbl9ysjNjjy2ye9eyyjs9ttslllbbbbbstt9yshhy92;;;9yhy2",
"4339tkbblskslbllyssjNbjs99eeesshst99ssllksbbbbskyyssjsye2922sye2",
"3339tklblkskllllyyhjNbjseyasyssjt9wtslbssssbbbbsssjhhyyy9999yy92",
">>>9tkllbkkkllkssshjjjjsyyhssyyjt999slbslblbllksjjjyshhyyyyye9;>",
"%>>9skllbkskllbsjssjbbjhysjhssyy9999slllsblblsksjjhhhshheyye9;>&",
"@%>9slllllkkllbsjjjhNjhhysjhseey999wslllskslbbbsshhhjhss9ese2>#&",
"O@%9sllkhssslbblbjjhjjjsyyhhye999449sslbskbbbllkyjjjjhye9eye>&O#",
"O@>9sllklssslbbbbbjjbbjjyyshy92244>9sslbbbbbbst9yshjjsse29y9&#O ",
">>@3wklkblkkbllsajjjhsjhse9sy92et9949sbVbbtt9sssyhjysyss2222;>;;",
"9949skkksswtsbllyjjbhhjjsyyas229sstw9sslls999stsyshhhyhhee92>  O",
"t999ssss9449sbbbyyhjjjjbjsyse4;2sks9t9t99w9999twysshyshjssy2&   ",
"99999wst4349ssbbyshbjjbNjyyyy22yssststw99449tss9yyhjyajje992>&&;",
"44999tss999wskllysjjjbbNheesy99s9ttst9t9999wssssyyhsshjje999>;2e",
"99wwwtsltt9wslllysjbhhjbs99eyeshww9stttts9w9sssheshhyhsjsyy22;9e",
"wtst99skw99tklllssjjhjjjjyeeyeejt9t9tt9tks999sssyhshayyhyye2;>9y",
"wttw93499499slbbhjjjhshhbayye99hsst999w9ss999shssyhhsyshe92;>2es",
"se999;29299yyssje22eyyaayyyyeeyyyete9922yy9929yyy92ysjhysy2&&299",
"ye292;;2222eyyhh2e22yye222ee22eyeteye992e9yyyy9e9229ysy9hs9&O;22",
"ye2e922e9222hjhyeeeey22&2222222yeete9e9e2ejjjse292;2eyy9ys2&#;92",
"ye2yy99yy929hbjsyyy2yy2222ey22eytee9ee9e9ehjbhy9e229yyy9ey2>&292",
"e22yy229y9esjNbjjy222eyy22yyyyyysyy9eee9ysjjjhsyy999yye929;>>esy",
"9>299;>2eeysjjbNye2&;2222eyaaaaajhye29eessysyassye29yyy9;92;;sjj",
"922ey;&>2esaysjNye2222;&2yjjjyyjbjsee229yyyysysye922ee9229229hjh",
"sysss929&2hy29sbyayay2& 2eyajaajbjse2229eyshjsee99;29e2;2yy9esjh",
"y9;;9922>;2eeyyyyaaye22;222yjjjyshy2;9e2syjjhhsy;29yy99;229yhhy9",
"yy29ee929eyhhssyayyyy22222yyjjyyajy92ey9shhjbjjh29eyye229;2yyhsy",
"jsyssye9eyyhhjshyayyy22;yeyyayyesjhe9yy9yssjjhhh9yyhsy22>;29yjyy",
"yyyyy922>;9ysjjjayayye22e22yyayysjseeyy9yyshjjysyyysse99;>>2yysh",
"yyysye92&;2ysshjyayyye22;;2eajjjyhhyesseyshjbjbjssssye99;>>>9ysj",
"yshhsyyy9essjhyhyyaayeey;&;2yjjjeyseysy9hjjNNNNbyyyyseee2&&&29yy",
"9ysye9ysyyhjjssyyaayyye22222yyyy9ysyysy2ssjNZNbNeyyyyyee2;&&;9ys",
"29e922yh29ysjjjjyyyyyyyyyye2eye22yye9yy2eysjjjbj9e9e9ety9;&&>9yy",
"e92eesees92yjbjsNjyajy;&yyye222yy222esee9eysjNbNhyyeyse9y9>&&9ys",
"2229eye9yeesjbjyayeyjy22e222222y2>>;9y92eyshbjjbhssyyse9ye;&;92y",
"2229eseeee9yjNjse2yyy22y2;;;222e2>>;eyyeyysjjjhhhsyeyye992;>2222",
";229eseee99yhjjseeyay22e&&&&22222>;2shhssshjbjhssye9ee922;;9992;",
";;;9yyy9ee9shjjse2yay22y&&&&22e2;;;ehjhsahjbjjsye2299222>&>2e992",
">>;29ss9ey2yhbjs2;2yyyyy2&&2ey22>&>9shyyyjjjjjye92229yy9;>2eee92",
">>&2eyeee9eyjjjyy22ajayy2222yy2&;>;9sjs9yhbNbjs92929yysye99yse2;",
"&&>2eytese9yjbjsjy2yjae2yy2eyye&222yjjjeysjNbjye922yyjjssysyee;>",
"&&;9shy9sy9yjbhe2eyyjjaye2;22yye>&2yhbNNjsyjbbs;29yyhsyajy92yye9",
">>;9yhyeseeyhjse22eyjjjjye22eyyy929ysjjjjyyhNjy29eyshhjsjy92eeye",
";22ysjyyyyyyjbhyeeyajNjjjye2eyyyeeeyshssjsyajjseyyyhhhhyjsyyeeet",
"229yyhjshsyshjsy22yaNNjjjaye2eyay99yhjsyjsyssjhy9eyhhhjsbjsysysy",
"29yysshsyhsshhyyeeyjNjjjjyyyeeyy9e9eahhyhssyahjseesjhhhhjbjjssay",
"9eeyeeyjhhjjshss2eyajjjaeyyyy22y229ehjhhysahhshyeesshjyhjjbjsyyy",
"29etyeyahhbjhhayeeyajjyy;2ye222e9e2yshhseysjhyhy9eyhshhahhjse299",
"9ey929yhshjjysyhyyyajjye&;2e22229eeyhhhy9yjjjhhs22yshhys9ysy9;;2"
};
