/* XPM */
static char *ca5caf663b4443509c693f5feb1900a4yQsKz8pFyiLwtS5G[] = {
/* columns rows colors chars-per-pixel */
"64 64 149 2 ",
"   c None",
".  c #3CBF0F",
"X  c #59A600",
"o  c #57AE00",
"O  c #58AA00",
"+  c #4FB508",
"@  c #42BC0C",
"#  c #4CBB0C",
"$  c #55B402",
"%  c #58B202",
"&  c #53BC01",
"*  c #54BC09",
"=  c #1ECE19",
"-  c #1DD11C",
";  c #31C20E",
":  c #2BC511",
">  c #27CB17",
",  c #2CC816",
"<  c #24CB18",
"1  c #2ACF1F",
"2  c #32C514",
"3  c #3AC314",
"4  c #34CE1E",
"5  c #3DCB1B",
"6  c #33D11D",
"7  c #3AD21D",
"8  c #2FCF20",
"9  c #3BCF20",
"0  c #2BD120",
"q  c #2AD828",
"w  c #32D222",
"e  c #3BD425",
"r  c #36DC24",
"t  c #3CDB25",
"y  c #39D72D",
"u  c #35DB29",
"i  c #3CD92C",
"p  c #33DC33",
"a  c #3DDB30",
"s  c #3BDE39",
"d  c #36E427",
"f  c #35E42E",
"g  c #3CEC2F",
"h  c #29E034",
"j  c #36E335",
"k  c #3EE333",
"l  c #36E835",
"z  c #34E53D",
"x  c #3CE53C",
"c  c #35E83D",
"v  c #3CEB3D",
"b  c #3FF03D",
"n  c #4FCD02",
"m  c #4FCE0C",
"M  c #51C401",
"N  c #50CB03",
"B  c #52C30B",
"V  c #50CC0D",
"C  c #4ED302",
"Z  c #4DDB04",
"A  c #4ED30A",
"S  c #4DDC0C",
"D  c #50D206",
"F  c #50D20C",
"G  c #44C515",
"H  c #4CC514",
"J  c #46C916",
"K  c #4ECC13",
"L  c #42CC1C",
"P  c #4BCC1A",
"I  c #50C613",
"U  c #50CC12",
"Y  c #4ED413",
"T  c #4DDC14",
"R  c #43D41D",
"E  c #4BD41B",
"W  c #4CDC1A",
"Q  c #4DE306",
"!  c #4CE906",
"~  c #4CE40B",
"^  c #4CEC0C",
"/  c #4CF20C",
"(  c #4BF90F",
")  c #4CE314",
"_  c #4CEC14",
"`  c #4CE31C",
"'  c #4BEC1A",
"]  c #4CF413",
"[  c #4CFA14",
"{  c #4BF31B",
"}  c #4BFB1C",
"|  c #42CD22",
" . c #44D424",
".. c #4AD523",
"X. c #45DA26",
"o. c #4BDD22",
"O. c #47D328",
"+. c #46DB2B",
"@. c #4ADD2A",
"#. c #44DE33",
"$. c #4BE424",
"%. c #4BEB24",
"&. c #41E12C",
"*. c #4AE42C",
"=. c #46E82E",
"-. c #4AEB2B",
";. c #4BF423",
":. c #4AFB23",
">. c #4AF32B",
",. c #4AFB2C",
"<. c #43E435",
"1. c #49E531",
"2. c #45EC36",
"3. c #49EC34",
"4. c #44E63A",
"5. c #45EC3C",
"6. c #47F137",
"7. c #49F433",
"8. c #47FB37",
"9. c #49FC34",
"0. c #45F43C",
"q. c #48F239",
"w. c #47FB3C",
"e. c #48FB3A",
"r. c #2EE743",
"t. c #2EED46",
"y. c #2EEF4B",
"u. c #30E340",
"i. c #34EC43",
"p. c #3CEB45",
"a. c #34EE4A",
"s. c #3BEC4A",
"d. c #2EF24C",
"f. c #31F446",
"g. c #3BF444",
"h. c #35F14E",
"j. c #3BF44C",
"k. c #3FFA4D",
"l. c #2FF952",
"z. c #34F551",
"x. c #3BF552",
"c. c #34F954",
"v. c #3DFA53",
"b. c #41EC43",
"n. c #41EE49",
"m. c #43F544",
"M. c #44FB43",
"N. c #41F54C",
"B. c #41F94D",
/* pixels */
"                                                                                                                                ",
"                                                                                                                                ",
"                                                                                                                                ",
"                                                                                                                                ",
"                                                                                                                                ",
"                                                                                                                                ",
"                                                          a.s.p.p.a.a.                                                          ",
"                                                        z b.b.b.4.4.4.z z a.a.v.c.                                              ",
"                                                  p a #.#.<.3.1.1.1.<.4.4.b.m.B.B.v.                                            ",
"                                c.c.d.            9 |  .O.@.1.-.-.-.1.1.1.6.0.N.B.B.i.                                          ",
"                                c.v.k.m.2.t     5 H H J P W $.-.>.>.-.*.$.*.3.0.N.m.v       c.                                  ",
"                                d.j.m.0.-.o.R 3 J H K K V U W -.-.-.>.;.$.$.$.3.q.m.v     v.c.                                  ",
"                                z x 5.q.-.$.E J J E Y Y I Y W ` ' ' :.>.>.%.$.$.7.0.g.f.g.k.j.y.                                ",
"                              r.s #.1.*.*.` Y m K E W Y m V A S ) { ;.,.,.>.-.-.>.9.e.0.M.m.g.a.                                ",
"                                k *.$.$.W Y Y A m A T T A N N V ) { ,.,.,.,.>.>.9.9.e.w.w.w.m.p.t.                              ",
"                          t.r.z k *.$.W W Y Y A N A ) A N n N N ' ;.,.,.:.:.;.,.,.9.9.9.w.M.m.N.B.z.c.z.                        ",
"                    z.j.g.5.v 2.=.%.W T W T S A N Z S D M N V N S _ } :.,.:.:.:.,.,.,.9.w.M.M.M.M.B.B.x.y.                      ",
"                    j.M.M.e.7.7.%.` W Y ) T S S A n n n M N N N n S ^ { { } { ;.;.;.,.,.8.e.M.e.e.M.B.n.i.                      ",
"                      0.e.e.9.,.%.) Y Y S S T ) Z N M & M N N n n S S ^ ' ' _ ' ;.;.:.,.8.e.e.9.e.M.m.b.z                       ",
"                      g 7.e.9.>.' W W T S S ~ _ ~ n N & M N n C C Z Z S ~ ^ _ ' ' ;.;.;.9.7.7.7.q.q.2.j                         ",
"                      d >.9.,.;.$.` W ) _ _ _ ] / Z n n n M n n Z ~ ~ S ~ ~ ~ ) _ ;.{ %.` E Y $.$...e w                         ",
"                      r %.>.;.;.` ` %.' { { ] ] / ~ Z C M & $ n S _ ' ' ^ S n N m Y S m B $ $ * * # 3 <                         ",
"                      6 o.%.;.;.;.;.;.;.{ ] [ [ [ ^ Z n & o $ M S _ { { ^ C $ o $ & $ o o O o o % + @ ,                         ",
"                      J P W ;.:.:.:.{ ' ] / / ] / Q C M $ o $ M C ~ ] _ S n $ X X X X X X X O o o o + . < q u.p.a.              ",
"                      H H Y %.:.:.:.] ] ] ] / / ! Z n M & $ & M C ! ^ ! Z M $ o X X X X X X X O o o o $ G  .#.b.x.              ",
"                      G K K T { :.:.} } } [ ^ Q C n M M & M & M n Q Q Q Z A N & % O O O O X O O O o O % I ..@.b.n.              ",
"                    5 H K m A S { :.:.:.} ] Q n N M & & & M M M M C Z Z Z Z C n * % o o O O O O O O X % K ....#.n.z.            ",
"                  8 P I V V B C S { :.} { ] Z M $ & & & & & & & M n n n C C n n N N & % o O O X X X O * Y P O.#.b.a.            ",
"                    9 H U U A A A ) { { _ ^ A M & & M M $ + & n n n n n C C n N n Y U B % O X O O o o B Y E O.#.b.a.            ",
"                      R Y Y ) ) ~ ^ _ ] ^ ^ Z n n M n M & M n C C C C C C C n M N Y Y F M % % o o % * F W E @.4.b.a.            ",
"                    8 R ) ) ` ' _ _ ] _ ] ^ Q C C C C n C Z Z Z Z Z Q Z C C A N M A T S N M M % & * U T W W @.4.n.j.            ",
"                h e L E ` ` T ) _ _ _ ] } ] ^ Q Z Z Z Z Q ! Q Q Q ~ ! ! Z C C D n A T S A D N M M F ) T W o.*.5.n.x.            ",
"                x #.E $.` ` A T _ ' { } } [ ( ! ! Q Z Q ~ Q Z ! / / ^ ! Q C C Z A ) ' { _ S D N Z ) ) ` $.*.3.4.n.h.            ",
"                <.@...o.%.T A ) ' ' { { } [ [ [ ( / ! / _ ~ Q ! [ [ ^ ! Z Z Z Z S ' ;.:.{ ) Z S ) _ ' %.%.7.7.2.s.a.            ",
"                j O.E W $.` T _ { { _ ] ] ( ( ( [ ( ( / ] / / ] ] ] ^ Z Z Q ~ ~ ~ _ { { ;._ S ' { { ;.,.9.7.3.3.p.              ",
"                l X.E E ` $.` _ { { _ ^ ^ / / ( ( [ ( / / ] ] ^ ! ! Q D Z ~ ^ ^ ~ _ ' ' ' _ ~ { :.:.,.9.e.7.3.1.c               ",
"              f.b =. .E ` $.` ' ' ] ] ^ ! ! ! ! ( [ ( / / ] } ] / ^ Z C Z Q ^ ^ ] { { { { _ ) _ :.,.,.9.e.3.1.4.                ",
"              g.m.5.O.E W ` ` ) _ _ ] ~ Z Z Q Z ~ ! ] ] [ [ [ } ] ! ~ Z Q Q ^ [ } } :.:.:.{ _ { :.,.,.9.e.2.<.x                 ",
"              i.0.<.O.P Y ) ) ) T S ~ ~ C Z C N C Z ~ ] [ } } [ ] / ~ ~ ^ ^ ] { { } } } } } ] } :.,.,.9.9.7.<.c                 ",
"                j a e R E W ` ) S A ~ Q Q Z C n M M D ^ } [ } [ / ! Q ~ ^ [ } ] { } } } } :.} } :.:.>.7.e.7.2.p.t.              ",
"                      w R E W T S Z Z Q ! Z n M N N Z ^ [ } } } ] ^ S Z ^ ] ] { ' ' { } } :.:.} } ;.>.>.7.7.6.5.i.              ",
"                        7 E U Y T S S ! ^ Z C n C ~ ^ ] [ } } } } ^ Z Z Q ] ] { { ' ' { } :.:.:.' ' %.-.7.1.3.<.                ",
"                          J V V A A Z S ~ Z Z Z ~ ] } } } :.:.:.} _ C Z ^ ] [ { { { { { { { :.;.` W W o.@.@.+.                  ",
"                          G * B N A Z F D Z Z ~ _ } } :.:.:.:.:.} _ Z Z ! ! ] ] } } } } { _ ` ) T Y P P E O.y                   ",
"                          P * B V A A D F S ) ' { :.:.:.:.{ } } } { ^ ~ ^ ^ ^ _ ] { { { ' ) T A Y J L R O.y                     ",
"                          5 H I K U V Y ` ;.:.:.,.} { { _ ' ' { :.:.] _ _ ^ ^ ~ _ ~ S S S A m m G w                             ",
"                            5 L P U E ` >.,.,.:.:.{ { _ _ _ _ { :.:.:.' ~ ~ ~ Z D N N m n B H H L                               ",
"                              8 5 P W %.>.,.,.,.:.{ ' _ ' ' ;.{ :.:.:.' S Z Z N & $ & * * B I P L                               ",
"                                8 P ..$.>.,.,.,.,.:.%.' ' ' ' ;.:.,.;._ S V M & o o o $ # G 4                                   ",
"                                  w L  .o.$.>.,.,.,.>.;.' %.%.;.;.:.:.{ ) m N $ o o + @ : =                                     ",
"                                      6 L E W $.>.9.9.9.>.%.;.>.;.%.>.>.;.` V & % $ . . : =                                     ",
"                                          6 E ` >.9.e.>.-.%.-.>.%.$.;.>.,.-.Y B * * . : : <                                     ",
"                                            R *.7.w.e.>.$.$.-.-.$.%.7.9.9.-.Y I G 3 2 < -                                       ",
"                                            +.1.q.e.7.*.$.$.*.-.-.7.e.e.7.-.o.L w                                               ",
"                                            p i <.k &.+.@.@.*.3.q.q.q.q.3.1.@.e                                                 ",
"                                                        u u u f f j <.b.m.m.4.j                                                 ",
"                                                                      g.j.j.                                                    ",
"                                                                        c.l.                                                    ",
"                                                                                                                                ",
"                                                                                                                                ",
"                                                                                                                                ",
"                                                                                                                                ",
"                                                                                                                                ",
"                                                                                                                                "
};
