/* XPM */
static char *Screen_Shot_2023_01_10_at_10_48_1673310562[] = {
/* columns rows colors chars-per-pixel */
"64 64 180 2 ",
"   c white",
".  c #FFFEFF",
"X  c #FEFEFE",
"o  c gray87",
"O  c #959595",
"+  c #939393",
"@  c gray63",
"#  c #B1B1B1",
"$  c gray75",
"%  c #CBCBCB",
"&  c LightGray",
"*  c #DCDBDC",
"=  c gray86",
"-  c #E4E4E4",
";  c #E9E9E9",
":  c #E7E7E7",
">  c #DDDDDD",
",  c gray82",
"<  c gray80",
"1  c gray77",
"2  c #BCBCBC",
"3  c #AEAEAE",
"4  c #A2A2A2",
"5  c gray57",
"6  c #8D8D8D",
"7  c #B2B2B2",
"8  c #F9F9F9",
"9  c #B7B7B7",
"0  c #151515",
"q  c #010101",
"w  c gray4",
"e  c gray8",
"r  c #1B1B1B",
"t  c #222222",
"y  c gray15",
"u  c #2A2A2A",
"i  c #2F2F2F",
"p  c #313131",
"a  c gray19",
"s  c gray17",
"d  c #252525",
"f  c #1E1E1E",
"g  c gray10",
"h  c gray7",
"j  c #020202",
"k  c #0C0C0C",
"l  c gray61",
"z  c #FDFDFD",
"x  c gray9",
"c  c black",
"v  c gray27",
"b  c #131313",
"n  c #101010",
"m  c #A9A9A9",
"M  c #FEFDFE",
"N  c #A7A7A7",
"B  c #505050",
"V  c #EEEEEE",
"C  c #A4A4A4",
"Z  c gray3",
"A  c gray68",
"S  c #9D9D9D",
"D  c gray1",
"F  c #070707",
"G  c #111111",
"H  c #191919",
"J  c gray11",
"K  c #232323",
"L  c #2C2C2C",
"P  c gray12",
"I  c gray34",
"U  c #EFEFEF",
"Y  c #1D1D1D",
"T  c #484848",
"R  c #717171",
"E  c #888888",
"W  c #909090",
"Q  c gray73",
"!  c #C1C1C1",
"~  c gray81",
"^  c gainsboro",
"/  c gray50",
"(  c #B4B4B4",
")  c #9B9B9B",
"_  c gray18",
"`  c #818181",
"'  c #CECECE",
"]  c gray92",
"[  c #F8F8F8",
"{  c gray94",
"}  c gray30",
"|  c #5D5D5D",
" . c #F4F4F4",
".. c gray59",
"X. c #727272",
"o. c #D5D5D5",
"O. c gray13",
"+. c gray71",
"@. c gray65",
"#. c gray96",
"$. c #040404",
"%. c #676767",
"&. c #F6F6F6",
"*. c #F1F1F1",
"=. c #5B5B5B",
"-. c #C3C3C3",
";. c #D2D2D2",
":. c #202020",
">. c gray42",
",. c #090909",
"<. c #626262",
"1. c #767676",
"2. c #D7D7D7",
"3. c #CDCDCD",
"4. c #AAAAAA",
"5. c #0B0B0B",
"6. c gray98",
"7. c gray39",
"8. c #343434",
"9. c gray52",
"0. c gray5",
"q. c gray76",
"w. c #808080",
"e. c gray24",
"r. c gray35",
"t. c #444444",
"y. c #3E3E3E",
"u. c #9F9F9F",
"i. c #3F3F3F",
"p. c #E6E6E6",
"a. c gray99",
"s. c #3A3A3A",
"d. c gray88",
"f. c #060606",
"g. c #FDFCFD",
"h. c #8E8E8E",
"j. c #323232",
"k. c #DADADA",
"l. c gray93",
"z. c gray2",
"x. c #D5D4D5",
"c. c gray48",
"v. c #FBFBFB",
"b. c #5A5A5A",
"n. c gray33",
"m. c #5F5F5F",
"M. c #D0D0D0",
"N. c #BBBBBB",
"B. c gray46",
"V. c gray",
"C. c #AFAFB0",
"Z. c #C5C5C5",
"A. c gray95",
"S. c #7C7C7C",
"D. c #6C6C6C",
"F. c #E2E2E2",
"G. c gray6",
"H. c #606060",
"J. c #747474",
"K. c gray31",
"L. c #393939",
"P. c gray97",
"I. c #6D6D6D",
"U. c gray84",
"Y. c #838383",
"T. c #0E0E0E",
"R. c #2D2D2D",
"E. c gray62",
"W. c gray36",
"Q. c #6F6F6F",
"!. c #848484",
"~. c #A4A3A4",
"^. c gray60",
"/. c #4B4B4B",
"(. c #F3F3F3",
"). c gray32",
"_. c gray16",
"`. c gray22",
"'. c gray51",
"]. c gray67",
/* pixels */
"                                                                                                                                ",
"                              .                                                                 X                               ",
"                              . o O + @ # $ % & * = - ; ; ; ; ; ; : > = = , < 1 2 # 3 4 O 5 6 7 8                               ",
"                                9 0 q w e r t y u u i p p p p p p a s u u d t f g e h w j q k l z                               ",
"                                9 x c c c c c c c c c c c c c c c c c c c c c c c c c c c c v :                                 ",
"                                7 b c c c c c c c c c c c c c c c c c c c c c c c c c c c n m M                                 ",
"                                N w c c c c c c c c c c c c c c c c c c c c c c c c c c c B V                                   ",
"                                C Z c c c c c c c c c c c c c c c c c c c c c c c c c c n A X                                   ",
"                                S D c c c c c c c c c q F G H J K L P q c c c c c c c c I U                                     ",
"                                S D c c j Y T R E 6 W + S A Q ! ~ ^ / q c c c c c c c e ( X                                     ",
"                                ) q D _ ` ' ] [                   { } c c c c c c c c |  .                                      ",
"                                ..h X.o.z                         ' O.c c c c c c c g $ X                                       ",
"                                +.@.#.                          X 5 $.c c c c c c q %.&.                                        ",
"                                [ z                             *.=.c c c c c c c g -.                                          ",
"                                                                ;.:.c c c c c c j >.#.                                          ",
"                                                                l ,.c c c c c c K <                                             ",
"                                                              &.<.c c c c c c j 1.[                                             ",
"                                                              2.y c c c c c c y 3.                                              ",
"                                                            X 4.5.c c c c c $.` 6.                                              ",
"                                                            8 7.c c c c c c _ 2.                                                ",
"                                                            ^ 8.c c c c c $.9.z [ #.X                                           ",
"                                                          X +.0.c c c c c p < q.w.-.X                                           ",
"                                                          6.R j c c c c q e.r.J t.-                                             ",
"                                                          : y.c c c c c c j c w u.X                                             ",
"                                                          9 b c c c c c c c c i.p.                                              ",
"                                                        6.w.j c c c c c c c Z O a.                                              ",
"                                                        U v c c c c c c c c s.d.                                                ",
"                                                        1 f c c c c c c c f.+ g.                                                ",
"                                                      a.h.q c c c c c c c j.k.                                                  ",
"                                                      l.T c c c c c c c z.9.a.                                                  ",
"                                                      % :.c c c c c c c _ x.                                                    ",
"                                                    X + z.Z L $.c c c $.c.v.                                                    ",
"                                                    { b.q n.m.$.c c c y M.                                                      ",
"                                                    o.:.s.N.i.c c c q B.6.                                                      ",
"                                                    ) a V.C.0.c c c f Z.                                                        ",
"                                                  A.S.3 [ R q c c q D.&.                                                        ",
"                                                  ] M.a.F.8.c c c J Z.                                                          ",
"                                                . z X   A G.c c c H.A.*.z                                                       ",
"                                                      [ J.c c c H A C 4.a.                                                      ",
"                                                      d.j.c c c K K.L.&                                                         ",
"                                                      @.0.c c c q D ` v.                                                        ",
"                                                    P.I.c c c c c s U.                                                          ",
"                                                    > u c c c c D Y.6.                                                          ",
"                                                    N T.c c c c L U.                                                            ",
"                                                  #.7.c c c c $.Y.v.                                                            ",
"                                                  2.s c c c c R.U.                                                              ",
"                                                X E.,.c c c z.Y.v.                                                              ",
"                                                &.W.w 5.c c _ U.                                                                ",
"                                                M.s.Q.Y c z.!.a.                                                                ",
"                                              z ~.` ^.T.c _ 2.                                                                  ",
"                                               .4.p.1.c z.!.v.                                                                  ",
"                                              P.V ; /.c R.2.                                                                    ",
"                                              X   , J D !.v.                                                                    ",
"                                                X 9 T.s 2.                                                                      ",
"                                                z S.z.Y.6.                                                                      ",
"                                                (.)._.U.                                                                        ",
"                                                & L ` v.                                                                        ",
"                                              X 7 `.o.                                                                          ",
"                                              v./ '.v.                                                                          ",
"                                              *.X.,                                                                             ",
"                                              > ].8                                                                             ",
"                                              = F.                                                                              ",
"                                              &.6.                                                                              ",
"                                                                                                                                "
};
