/* XPM */
static char *Screen_Shot_2023_01_10_at_10_47_1673310562[] = {
/* columns rows colors chars-per-pixel */
"64 64 225 2 ",
"   c white",
".  c #FEFEFE",
"X  c #FDFDFD",
"o  c gray99",
"O  c #FDFCFD",
"+  c #FEFDFE",
"@  c #FFFEFF",
"#  c gray98",
"$  c #EEEEEE",
"%  c #D8D8D8",
"&  c #CDCDCD",
"*  c gray83",
"=  c #EFEFEF",
"-  c gray97",
";  c #E6E6E6",
":  c gray73",
">  c gray48",
",  c #3E3E3E",
"<  c #222222",
"1  c #343434",
"2  c #9A9A9A",
"3  c #F6F6F6",
"4  c #DDDDDD",
"5  c #A9A9A9",
"6  c gray39",
"7  c #252525",
"8  c #070707",
"9  c #010101",
"0  c black",
"q  c gray19",
"w  c #AEAEAE",
"e  c gray96",
"r  c gray85",
"t  c #9D9D9D",
"y  c gray32",
"u  c #1B1B1B",
"i  c gray1",
"p  c #4C4C4C",
"a  c #C3C3C3",
"s  c gainsboro",
"d  c gray64",
"f  c #151515",
"g  c #060606",
"h  c gray35",
"j  c gray82",
"k  c gray89",
"l  c #AAAAAA",
"z  c #5A5A5A",
"x  c gray10",
"c  c gray5",
"v  c #1D1D1D",
"b  c #111111",
"n  c #0E0E0E",
"m  c gray46",
"M  c gray88",
"N  c gray93",
"B  c #BCBCBC",
"V  c #6D6D6D",
"C  c #232323",
"Z  c #020202",
"A  c #101010",
"S  c gray20",
"D  c gray43",
"F  c gray33",
"G  c #8D8D8D",
"H  c gray92",
"J  c #F9F9F9",
"K  c #D7D7D7",
"L  c gray55",
"P  c #353535",
"I  c gray2",
"U  c gray8",
"Y  c gray23",
"T  c #797979",
"R  c gray",
"E  c #909090",
"W  c #181818",
"Q  c gray16",
"!  c #A4A4A4",
"~  c #F3F3F3",
"^  c #B4B4B4",
"/  c #5D5D5D",
"(  c #131313",
")  c #333233",
"_  c gray50",
"`  c #C6C6C6",
"'  c #F1F1F1",
"]  c #C1C1C1",
"[  c #393939",
"{  c #3C3C3C",
"}  c #BBBBBB",
"|  c #F8F8F8",
" . c #FBFBFB",
".. c #8E8E8E",
"X. c #313131",
"o. c gray26",
"O. c gray68",
"+. c #F1F0F1",
"@. c #E2E2E2",
"#. c #606060",
"$. c gray34",
"%. c gray81",
"&. c #676767",
"*. c #2F2F2F",
"=. c #ACACAC",
"-. c #0C0C0C",
";. c #E7E7E7",
":. c gray87",
">. c #5B5B5B",
",. c gray44",
"<. c #ECECEC",
"1. c #B6B6B6",
"2. c #CECECE",
"3. c gray18",
"4. c gray12",
"5. c gray62",
"6. c gray31",
"7. c #777777",
"8. c #CBCBCB",
"9. c #272727",
"0. c #A7A7A7",
"q. c #686868",
"w. c #090909",
"e. c #434343",
"r. c gray79",
"t. c gray14",
"y. c gray65",
"u. c gray70",
"i. c #C8C8C8",
"p. c #B1B1B1",
"a. c #2C2C2C",
"s. c #0B0B0B",
"d. c #979797",
"f. c #F4F4F4",
"g. c #747474",
"h. c #040404",
"j. c #717171",
"k. c #EAEAEA",
"l. c #202020",
"z. c #414141",
"x. c #1E1E1E",
"c. c gray58",
"v. c gray86",
"b. c gray71",
"n. c gray84",
"m. c #3A3A3A",
"M. c LightGray",
"N. c #191919",
"B. c #868686",
"V. c #505050",
"C. c #323232",
"Z. c #A2A2A2",
"A. c gray40",
"S. c #282828",
"D. c #2A2A2A",
"F. c gray74",
"G. c #9B9B9B",
"H. c gray7",
"J. c gray4",
"K. c gray45",
"L. c gray57",
"P. c gray6",
"I. c gray78",
"U. c gray25",
"Y. c gray91",
"T. c #7B7B7B",
"R. c gray54",
"E. c #939393",
"W. c gray72",
"Q. c #7E7E7E",
"!. c gray61",
"~. c #767676",
"^. c gray60",
"/. c gray3",
"(. c #7A797A",
"). c gray95",
"_. c #838383",
"`. c gray76",
"'. c gray28",
"]. c #626262",
"[. c #161616",
"{. c gray13",
"}. c gray66",
"|. c #E9E9E9",
" X c #464646",
".X c #7C7C7C",
"XX c gray49",
"oX c gray15",
"OX c gray11",
"+X c gray80",
"@X c #898989",
"#X c gray42",
"$X c gray21",
"%X c gray30",
"&X c gray9",
"*X c #8B8B8B",
"=X c #848484",
"-X c #CACACA",
";X c #808080",
":X c gray94",
">X c #EEEEEF",
",X c #EBEBEC",
"<X c #C5C5C5",
"1X c #6C6C6C",
"2X c #9F9F9F",
"3X c #E1E1E1",
"4X c #5F5F5F",
"5X c gray36",
"6X c gray37",
"7X c #A0A0A0",
"8X c #989898",
"9X c gray17",
"0X c #A5A5A5",
"qX c #AFAFAF",
"wX c #494949",
"eX c gray63",
"rX c #C0C0C0",
"tX c #565656",
"yX c gray29",
"uX c #B9B9B9",
"iX c gray51",
"pX c #D2D2D2",
"aX c #B2B2B2",
"sX c #E4E4E4",
"dX c #2D2D2D",
/* pixels */
"                                                                                                                                ",
"                                                                                                                                ",
"                                                                . X o O + @                                                     ",
"                                                            . # $ % & * = .                                                     ",
"                                                        . - ; : > , < 1 2 = .                                                   ",
"                                                    X 3 4 5 6 7 8 9 0 9 q w -                                                   ",
"                                                . e r t y u i 0 0 0 0 0 i p a #                                                 ",
"                                              3 s d y f 9 0 0 0 0 0 0 0 0 g h j o                                               ",
"                                          # k l z x 9 0 0 0 9 c v b 0 0 0 0 n m M X                                             ",
"                                      . N B V C Z 0 0 0 Z A S D 2 F g 0 0 0 0 u G H .                                           ",
"                                    J K L P I 0 0 0 Z U Y T R $ - E W 0 0 0 0 0 Q ! ~                                           ",
"                                  N ^ / ( 0 0 0 0 g ) _ ` '       ] [ 0 0 0 0 0 0 { } |                                         ",
"                               .s ..X.i 0 0 0 0 g o.O.+.          @.#.I 0 0 0 0 0 g $.%.o                                       ",
"                          . 3 a &.W 0 0 0 0 0 9 *.=.#             # L f 0 0 0 0 0 0 -.T ;..                                     ",
"                          X :.>.8 0 0 0 0 0 0 n ,.<.              . 1.*.0 0 0 0 0 0 0 Q 1.J                                     ",
"                          o 2.3.0 0 0 0 0 0 0 4.5.X                 r 6.Z 0 0 0 0 0 0 g 7.H                                     ",
"                          o 8.9.0 0 0 0 0 0 0 7 0.X                 ;.q.w.0 0 0 0 0 0 0 e.j X                                   ",
"                          o r.t.0 0 0 0 0 0 0 t.y.X                 :.h I 0 0 0 0 0 0 0 v u.J                                   ",
"                          o i.C 0 0 0 0 0 0 0 t.y.X               X p.a.0 0 0 0 0 0 0 0 s.d.f.                                  ",
"                          o i.C 0 0 0 0 0 0 0 t.y.X               H g.c 0 0 0 0 0 0 0 0 h.j.k.                                  ",
"                           .] l.0 0 0 0 0 0 0 t.y.X               r.z.9 0 0 0 0 0 0 0 0 0 6.M                                   ",
"                          # } x.0 0 0 0 0 0 0 t.y.X             - c.u 0 0 0 0 0 0 0 0 0 0 o.v..                                 ",
"                          J b.u 0 0 0 0 0 0 0 t.y.X         .  .n.h h.0 s.s.9 0 0 0 0 0 0 m.M.X                                 ",
"                          | =.N.0 0 0 0 0 0 0 t.y.X         $ ] B.a.0 -.V.[ g 0 0 0 0 0 0 C.i.o                                 ",
"                          - Z.f 0 0 0 0 0 0 0 t.y.X         * A.S.n 0 P ! #.8 0 0 0 0 0 0 D.F.#                                 ",
"                          3 G.( 0 0 0 0 0 0 0 t.y.X        .0.9.Z 9 w.7.4 V w.0 0 0 0 0 0 7 1.J                                 ",
"                          3 2 H.0 0 0 0 0 0 0 t.y.X       k.m J.0 0 S : e K.s.0 0 0 0 0 0 x.O.|                                 ",
"                          e L.P.0 0 0 0 0 0 0 t.y.X     . I.U.0 0 s.m Y.J T.P.0 0 0 0 0 0 N.y.-                                 ",
"                          ~ R.c 0 0 0 0 0 0 0 t.y.X     f.E.W 0 0 1 W.o J Q.b 0 0 0 0 0 0 P.!.e                                 ",
"                          ~ R.-.0 0 0 0 0 0 0 t.y.X   . r h Z 0 -.~.;.  | _ b 0 0 0 0 0 0 -.^.e                                 ",
"                          ~ R.-.0 0 0 0 0 0 0 t.y.X   X w 9.0 0 [ B X   | _ b 0 0 0 0 0 0 /.c.f.                                ",
"                          ~ R.-.0 0 0 0 0 0 0 t.y.X . k.(.J.0 n > k.    | _ b 0 0 0 0 0 0 g E ~                                 ",
"                          )._.w.0 0 0 0 0 0 0 t.y.. J `.'.9 9 [ B X     | _ b 0 0 0 0 0 0 g E ~                                 ",
"                          ' 7.h.0 0 0 0 0 0 0 t.0.J I.].[.s.{.T.H       | _ b 0 0 0 0 0 0 h.G ~                                 ",
"                          ' ~.h.0 0 0 0 0 0 0 t.}.|.Q.A w.1 V a .       | _ b 0 0 0 0 0 0 i L ~                                 ",
"                          ' ~.h.0 0 0 0 0 0 0 7 }.8. X0 9..XW.H         | _ b 0 0 0 0 0 0 i L ~                                 ",
"                          ' XX8 0 0 0 0 0 0 0 oXZ.d OXZ $.+X= o         | _ b 0 0 0 0 0 0 i R.).                                ",
"                          ~ @X-.0 0 0 0 0 0 0 9...#X9 OXc.| . .         | _ b 0 0 0 0 0 0 i R.).                                ",
"                          ~ R.c 0 0 0 0 0 0 0 t.q.$XZ %XM..             | _ b 0 0 0 0 0 0 i R.).                                ",
"                          e L.P.0 0 0 0 0 0 0 f X.s.&X*Xe               | _ b 0 0 0 0 0 0 Z =X'                                 ",
"                          3 G.( 0 0 0 0 0 0 0 i 8 Z e.-X                | _ b 0 0 0 0 0 0 Z .X=                                 ",
"                          | }.&X0 0 0 0 0 0 0 0 Z N.;X:X                | _ b 0 0 0 0 0 0 Z T.>X                                ",
"                          # } x.0 0 0 0 0 0 0 h.{.6 ]                   | _ b 0 0 0 0 0 0 Z g.,X.                               ",
"                           .<X{.0 0 0 0 0 0 0 ( #Xa <.                  | _ b 0 0 0 0 0 0 9 1XY..                               ",
"                          o r.t.0 0 0 0 0 0 0 < 2Xf. ..                 | _ b 0 0 0 0 0 0 9 1XY..                               ",
"                          o %.C.0 0 0 0 0 0 0 7 0..   .                 | _ b 0 0 0 0 0 0 9 q.; .                               ",
"                          . 3X>.9 0 0 0 0 0 0 t.y.X                     | _ b 0 0 0 0 0 0 0 4X@..                               ",
"                            e t [.0 0 0 0 0 0 t.y.X                     | _ b 0 0 0 0 0 0 0 5X3X.                               ",
"                            X s / I 0 0 0 0 0 7 }.X                     | _ b 0 0 0 0 0 0 0 6X@..                               ",
"                              J B , 9 0 0 0 0 l.5.X                     | _ b 0 0 0 0 0 0 Z ~.H .                               ",
"                                ~ 0.*.0 0 0 0 P.K.=                     J ;Xb 0 0 0 0 0 0 Q ^ J                                 ",
"                                . $ !.oX0 0 0 Z a.7Xe                   = D -.0 0 0 0 0 N.R.H .                                 ",
"                                    <.8X9X0 0 0 h.P 0Xf.              |.G.q Z 0 0 0 0 x _ @.X                                   ",
"                                    . N 7X1 Z 0 0 h.C.8Xk.        = `.K.9.h.0 0 0 0 S.R.@..                                     ",
"                                        :XqXwXg 0 0 Z oXT 2.= 4 p.g.m.A 0 0 0 0 Z m.eXk..                                       ",
"                                          3 rXtXJ.0 0 9 U yX1XV.D.P.9 0 0 0 0 A tXuX).                                          ",
"                                            J & q.b 0 0 0 I -.I 0 0 0 0 0 i a.iXpXJ                                             ",
"                                               .% T.x.0 0 0 0 0 0 0 0 9 v 6XaXk.X                                               ",
"                                                o sXE.dX0 0 0 0 0 8 9.6 l :.|                                                   ",
"                                                  . $ =.y 7 N.3.h =X: k - .                                                     ",
"                                                    . f.v.<XR r.3X' # .                                                         ",
"                                                      . X o  .o .                                                               ",
"                                                                                                                                ",
"                                                                                                                                "
};
