/* XPM */
static char *Screen_Shot_2023_01_10_at_10_48___1_1673310562[] = {
/* columns rows colors chars-per-pixel */
"64 64 218 2 ",
"   c white",
".  c gray97",
"X  c #D7D7D7",
"o  c #979797",
"O  c #626262",
"+  c #FBFBFB",
"@  c gray93",
"#  c gray71",
"$  c #7C7C7C",
"%  c #323232",
"&  c #101010",
"*  c gray2",
"=  c #676767",
"-  c gray94",
";  c #CBCBCB",
":  c gray55",
">  c #484848",
",  c #191919",
"<  c black",
"1  c #111111",
"2  c #989898",
"3  c #FDFDFE",
"4  c #E7E7E7",
"5  c #A4A4A4",
"6  c #202020",
"7  c gray3",
"8  c #010101",
"9  c #222222",
"0  c gray72",
"q  c #FDFDFD",
"w  c #DDDDDD",
"e  c #A2A2A2",
"r  c gray29",
"t  c gray7",
"y  c #0E0E0E",
"u  c #464646",
"i  c #7B7B7B",
"p  c #282828",
"a  c gray25",
"s  c gray85",
"d  c gray99",
"f  c #DFDFDF",
"g  c #939393",
"h  c #0B0B0B",
"j  c #5A5A5A",
"k  c #AAAAAA",
"l  c #E2E2E2",
"z  c #F3F3F3",
"x  c #686868",
"c  c #EEEEEE",
"v  c #FFFEFF",
"b  c #D5D5D5",
"n  c #919192",
"m  c gray23",
"M  c gray6",
"N  c #3F3F3F",
"B  c #838383",
"V  c #C0C0C0",
"C  c #FEFEFE",
"Z  c #F4F4F4",
"A  c #4C4C4C",
"S  c #F8F8F8",
"D  c #CECECE",
"F  c #818181",
"G  c gray20",
"H  c #040404",
"J  c #4E4E4E",
"K  c gray13",
"L  c gray73",
"P  c gray83",
"I  c #070707",
"U  c gray69",
"Y  c gray96",
"T  c #555555",
"R  c #3A3A3A",
"E  c LightGray",
"W  c #CACACA",
"Q  c gray8",
"!  c #AEAEAE",
"~  c gray37",
"^  c #5F5F5F",
"/  c #ECECEC",
"(  c #161616",
")  c #AFAFAF",
"_  c gray43",
"`  c gray1",
"'  c gray56",
"]  c #F9F9F9",
"[  c #797979",
"{  c gray10",
"}  c #868686",
"|  c #3E3E3E",
" . c gray86",
".. c gray98",
"X. c #8E8E8E",
"o. c gray4",
"O. c gray11",
"+. c gray74",
"@. c #BCBCBC",
"#. c gray61",
"$. c #0C0C0C",
"%. c #151515",
"&. c #BBBBBB",
"*. c #ACACAC",
"=. c #2F2F2F",
"-. c #E6E6E6",
";. c #B6B6B6",
":. c gray22",
">. c #E9E9E9",
",. c #2A2A2A",
"<. c #C1C1C1",
"1. c #131313",
"2. c #C8C8C8",
"3. c #646464",
"4. c #F1F1F1",
"5. c #2D2D2D",
"6. c gray80",
"7. c gray79",
"8. c gray52",
"9. c #393939",
"0. c #060606",
"q. c gray64",
"w. c gray84",
"e. c gray9",
"r. c #1D1D1D",
"t. c #181818",
"y. c #B2B2B2",
"u. c #959595",
"i. c gray17",
"p. c gray27",
"a. c gray88",
"s. c #D0D0D0",
"d. c #C6C6C6",
"f. c #505050",
"g. c gray89",
"h. c #D8D8D8",
"j. c #353535",
"k. c #DBDADB",
"l. c gainsboro",
"z. c gray30",
"x. c gray91",
"c. c #E1E1E1",
"v. c #535353",
"b. c #848484",
"n. c gray90",
"m. c #727272",
"M. c #252525",
"N. c #606060",
"B. c #B4B4B4",
"V. c #B5B4B5",
"C. c #6C6C6C",
"Z. c #EAEAEA",
"A. c gray44",
"S. c #090909",
"D. c #929292",
"F. c #373737",
"G. c gray95",
"H. c gray48",
"J. c gray18",
"K. c gray5",
"L. c gray31",
"P. c gray50",
"I. c gray15",
"U. c gray63",
"Y. c gray53",
"T. c #8D8D8D",
"R. c gray57",
"E. c #B1B1B1",
"W. c #ECEBEC",
"Q. c #A0A0A0",
"!. c #1B1B1B",
"~. c #A7A7A7",
"^. c gray60",
"/. c gray14",
"(. c gray21",
"). c #020202",
"_. c #F6F6F6",
"`. c #656565",
"'. c #414141",
"]. c gray59",
"[. c #777777",
"{. c #6A6A6A",
"}. c #585858",
"|. c #9F9F9F",
" X c #9B9B9B",
".X c #A5A5A5",
"XX c gray19",
"oX c #3C3C3C",
"OX c gray77",
"+X c gray16",
"@X c #DADADA",
"#X c #434343",
"$X c gray66",
"%X c #343434",
"&X c gray34",
"*X c #D2D2D2",
"=X c gray",
"-X c gray39",
";X c #313131",
":X c gray82",
">X c gray87",
",X c #E4E4E4",
"<X c #515151",
"1X c gray36",
"2X c gray40",
"3X c gray32",
"4X c #767676",
"5X c #C5C5C5",
"6X c #B9B9B9",
"7X c #C3C3C3",
"8X c #2C2C2C",
"9X c #1E1E1E",
"0X c gray67",
"qX c gray24",
"wX c #B7B7B7",
"eX c #9A9A9A",
"rX c #747474",
"tX c gray42",
/* pixels */
"                                                                                                                                ",
"                                                                  . X o O X                                                     ",
"                                                            + @ # $ % & * = @                                                   ",
"                                                        - ; : > , < < < < 1 2 +                                                 ",
"                                                  3 4 5 O 6 7 < < < < 8 < < 9 0 q                                               ",
"                                              q w e r t < < < < y u i p < < < a s                                               ",
"                                          d f g a h < < < 8 9 j k l z r < < < * x c   v                                         ",
"                                      d b n m h < < 8 M N B V - C   Z A < < < < h : .                                           ",
"                                C S D F G H < < < < * B f +         Z J < < < < < K L                                           ",
"                                  P % * < < < < < < I U             Y T < < < < < < R E   C                                     ",
"                                  W Q < < < < < < < I !             Y ~ < < < < < < 8 ^ /                                       ",
"                                  ; ( < < < < < < < 7 )             . _ ` < < < < < < y ' ]                                     ",
"                                  ; ( < < < < < < < 7 U             . [ * < < < < < < < { ! d                                   ",
"                                  ; ( < < < < < < < 7 U             ] } 7 < < < < < < < < |  .                                  ",
"                                  ; ( < < < < < < < y #             ..X.o.< < < < < < < < O.+.                                  ",
"                                  ; ( < < < < < < < ( @.            + #.$.< < < < < < < < p b                                   ",
"                                  ; ( < < < < < < < %.&.            q *.M < < < < < < < < =.-.                                  ",
"                                  ; ( < < < < < < < O.V               ;.1 < < < < < < < < :.>.                                  ",
"                                  ; ( < < < < < < < ,.W               <.1.< < < < < < < < > /                                   ",
"                                  ; ( < < < < < < < ,.W               2.Q < < < < < < < 8 3.4.                                  ",
"                                  ; ( < < < < < < < 5.6.              7.%.< < < < < < < ` 8.S                                   ",
"                                  ; ( < < < < < < < 9.b               7.%.< < < < < < < 0.q.C                                   ",
"                                  W %.< < < < < < < R w.              ; e.< < < < < < < I )                                     ",
"                                  D r.< < < < < < < R X               6.t.< < < < < < < 7 y.                                    ",
"                                  4.u.i.8 < < < < < p.a.              s.K < < < < < < < , V                                     ",
"                                    + d.f.` < < < < > g.              h.j.< < < < < < < j.P                                     ",
"                                        k.~ * < < < > g.              l.| < < < < < < < u l                                     ",
"                                          4 ^ * < < z.x.              c.r < < < < < < < v.c                                     ",
"                                            d.{ < < K b.d.Z           n.f.< < < < < < < O +                                     ",
"                                          >.m.o.< < < H M.N.B.n.q   C V.K < < < < < < < C.d                                     ",
"                                    C   Z.A.S.< < < < < < < Q a D.h.; F.< < < < < < < ` } q                                     ",
"                                  C   G.H.S.< < < < < < < < < < * G J.< < < < < < < K.L.d.C                                     ",
"                                C   z P.$.< < < < * M.I.S.< < < < < < < < < < < 7 R U.x.q C                                     ",
"                                  z Y.y < < < < < K.T.b R.v.t.H < < < < < < < M $ w C                                           ",
"                                ..g 1 < < < < < < %.E.  C W.<.B 9.Q < < < < < t Q.+                                             ",
"                                w.j.< < < < < < < { V C       ] n.k C.!.< < < < p y.+                                           ",
"                                ~.y < < < < < < < K h.              c > < < < < < 5.V q                                         ",
"                                ^.` < < < < < < < /.w               Y T < < < < < < (.7.                                        ",
"                                o ).< < < < < < < ,.f               _.`.8 < < < < < < '.P                                       ",
"                                ].).< < < < < < < > 4               . [.* < < < < < < 8 > w.  C                                 ",
"                                ].).< < < < < < < {.-               S P.I < < < < < < < 8 }.n.                                  ",
"                                o ).< < < < < < 8 i _.              ..' o.< < < < < < < < 6 d.                                  ",
"                                ^.).< < < < < < ).R.q               d |.K.< < < < < < < < ,. .                                  ",
"                                 XH < < < < < < ).|.                q .Xy < < < < < < < < XX4                                   ",
"                                5 h < < < < < < * q.                C # 1 < < < < < < < < oXZ.                                  ",
"                                k 1 < < < < < < 1 U                   OX1.< < < < < < < < A @                                   ",
"                                ;.r.< < < < < < +X2.                  2.Q < < < < < < < ).C.G.                                  ",
"                                @.K < < < < < < :.@X                  7.%.< < < < < < < H : ..                                  ",
"                                2.i.< < < < < < #X4                   W ( < < < < < < < 0.$XC                                   ",
"                                P %X< < < < < < f._.                  D O.< < < < < < < 7 E.                                    ",
"                                s F.< < < < < < &XS                   *XM.< < < < < < < ( =X                                    ",
"                                n.a < < < < < < -X]                   w.;X< < < < < < < ;X:X                                    ",
"                                -.'.< < < < < * P.+                   >X#X< < < < < < < > ,X                                    ",
"                                4 '.< < < < < ).N.-                   n.<X< < < < < < < 1X.                                     ",
"                                . Y.h < < < < < %.U C                 s N < < < < < < < 2Xd                                     ",
"                                  c _ I < < < < < 3X>.              z 4XS.< < < < < < < [.d                                     ",
"                                C   c.r < < < < < M |._.x.w s.5XL 6XP.M < < < < < < < t.Q.q                                     ",
"                                    C 7XJ.< < < < < 8XO <X#X;X9XK.h * < < < < < < t A 0X/ C                                     ",
"                                      q .Xt.< < < < < < < < < < < < < < < < < $.#X.XZ.q                                         ",
"                                        Z } K.< < < < < < < < < < < < < < 0.qX].f                                               ",
"                                          Z.3.9X{ t.Q y h 0.< < < < < * =.'  .d                                                 ",
"                                            >.6.+.wXk eXD.b.rX_ tX= 3.B E +                                                     ",
"                                                    C q q d d d d + + d                                                         ",
"                                                                                                                                "
};
