/* XPM */
static char *Screen_Shot_2023_01_10_at_10_48___2_1673310562[] = {
/* columns rows colors chars-per-pixel */
"64 64 214 2 ",
"   c white",
".  c #FDFDFD",
"X  c #E6E6E6",
"o  c #CECECE",
"O  c #E1E1E1",
"+  c #FEFEFE",
"@  c gray92",
"#  c #A4A4A4",
"$  c gray32",
"%  c gray12",
"&  c #4E4E4E",
"*  c #D5D5D5",
"=  c gray98",
"-  c gray",
";  c #555455",
":  c gray6",
">  c black",
",  c #010101",
"<  c gray35",
"1  c #E9E9E9",
"2  c gray93",
"3  c #929292",
"4  c #232323",
"5  c #090909",
"6  c gray50",
"7  c gray95",
"8  c gray99",
"9  c #CDCDCD",
"0  c gray39",
"q  c #0E0E0E",
"w  c #161616",
"e  c #9D9D9D",
"r  c gray97",
"t  c #AEAEAE",
"y  c #323232",
"u  c #252525",
"i  c #BBBBBB",
"p  c #EFEFEF",
"a  c #8D8D8D",
"s  c gray13",
"d  c gray23",
"f  c gray88",
"g  c #6F6F6F",
"h  c #0B0B0B",
"j  c #040404",
"k  c gray38",
"l  c #E7E7E7",
"z  c #535353",
"x  c #060606",
"c  c gray25",
"v  c #565656",
"b  c gray8",
"n  c gray4",
"m  c #808080",
"M  c #F6F6F6",
"N  c #FFFEFF",
"B  c #B9B9B9",
"V  c #3A3A3A",
"C  c #020202",
"Z  c gray74",
"A  c #EEEEEE",
"S  c gray59",
"D  c gray9",
"F  c #131313",
"G  c gray60",
"H  c #F9F9F9",
"J  c gray65",
"K  c gray14",
"L  c #191919",
"P  c #A7A7A7",
"I  c gray58",
"U  c #8B8B8B",
"Y  c gray10",
"T  c gray94",
"R  c #797979",
"E  c gray3",
"W  c gray26",
"Q  c #D7D7D7",
"!  c #E2E2E2",
"~  c gray43",
"^  c #101010",
"/  c #909090",
"(  c #494949",
")  c #5A5A5A",
"_  c #D8D8D8",
"`  c #B7B7B7",
"'  c #1E1E1E",
"]  c gray71",
"[  c gainsboro",
"{  c gray31",
"}  c gray96",
"|  c #6A6A6A",
" . c #888888",
".. c gray85",
"X. c gray36",
"o. c #0C0C0C",
"O. c #ECECEC",
"+. c gray7",
"@. c #7E7E7E",
"#. c gray61",
"$. c gray5",
"%. c gray42",
"&. c gray90",
"*. c gray86",
"=. c #2D2D2D",
"-. c gray56",
";. c #505050",
":. c #9F9F9F",
">. c #898989",
",. c #848484",
"<. c #3C3C3C",
"1. c #AFAFAF",
"2. c #070707",
"3. c gray66",
"4. c #989898",
"5. c gray1",
"6. c #272727",
"7. c #D2D2D2",
"8. c #ACACAC",
"9. c #181818",
"0. c #CBCBCB",
"q. c #C7C6C7",
"w. c #F4F4F4",
"e. c gray73",
"r. c #1D1D1D",
"t. c #151515",
"y. c gray79",
"u. c gray21",
"i. c #E4E4E4",
"p. c #C6C6C6",
"a. c gray15",
"s. c #C8C8C8",
"d. c gray84",
"f. c gray18",
"g. c #C0C0C0",
"h. c #414141",
"j. c #373737",
"k. c #B1B1B1",
"l. c #555555",
"z. c #FBFBFB",
"x. c gray24",
"c. c gray63",
"v. c #2F2F2F",
"b. c gray51",
"n. c gray78",
"m. c gray89",
"M. c #F3F3F3",
"N. c gray70",
"B. c #646464",
"V. c gray57",
"C. c #4B4B4B",
"Z. c gray28",
"A. c #7C7C7C",
"S. c gray52",
"D. c gray49",
"F. c #444444",
"G. c gray2",
"H. c #F8F8F8",
"J. c #111111",
"K. c gray46",
"L. c #202020",
"P. c gray75",
"I. c #5B5B5B",
"U. c #606060",
"Y. c #515151",
"T. c gray81",
"R. c gray53",
"E. c gray34",
"W. c gray16",
"Q. c #F1F1F1",
"!. c #A9A9A9",
"~. c #818181",
"^. c #343434",
"/. c gray20",
"(. c gray27",
"). c #747474",
"_. c gray77",
"`. c #EAEAEA",
"'. c #434343",
"]. c gray29",
"[. c #C3C3C3",
"{. c #464546",
"}. c gray45",
"|. c gray11",
" X c #3E3E3E",
".X c #5F5F5F",
"XX c #A0A0A0",
"oX c #2A2A2A",
"OX c #484848",
"+X c #3E3E3F",
"@X c #636364",
"#X c #E7E6E7",
"$X c #AAAAAA",
"%X c #807F80",
"&X c #393939",
"*X c #838383",
"=X c gray67",
"-X c gray76",
";X c #656565",
":X c gray83",
">X c #A2A2A2",
",X c #4F4F50",
"<X c #CACACA",
"1X c gray33",
"2X c #767676",
"3X c #FEFEFF",
"4X c gray19",
"5X c #717171",
"6X c #CCCCCD",
"7X c #FBFBFC",
"8X c #979797",
"9X c #626262",
"0X c #A5A5A5",
"qX c gray69",
/* pixels */
"                                                                                                                                ",
"                                                                  . X o O +                                                     ",
"                                                              + @ # $ % & *                                                     ",
"                                                            = - ; : > > , < 1                                                   ",
"                                                          2 3 4 , > > > > 5 6 7                                                 ",
"                                                      8 9 0 q > > > > > > > w e =                                               ",
"                                                    r t y , > > > > > > > > > u i +                                             ",
"                                                  p a s > > > > > > > > > > > > d *                                             ",
"                                              + f g h > > > > , , > > > > > > > j k l                                           ",
"                                            . 9 z x > > > > > c v b > > > > > > > n m M   N                                     ",
"                                          . B V C > > > > > u Z A S D > > > > > > > F G H                                       ",
"                                        M J K > > > > > > L P 8   M I F > > > > > > > K Z N                                     ",
"                                      2 U Y > > > > > > D S r       T R E > > > > > > , W Q                                     ",
"                                    ! ~ : > > > > > > ^ / M           O ( > > > > > > > , ) @                                   ",
"                                + _ v j > > > > > > ^ m p               ` ' > > > > > > > Y ]                                   ",
"                              + [ { , > > > > > > q 6 A                 } | , > > > > > > C  .                                  ",
"                              ..X.o.> > > > > > 5 g O.                    ] +.> > > > > > > @.                                  ",
"                            . #.$.> > > > > > n %.&.                      *.=.> > > > > > > %.}                                 ",
"                            8 -.n > > > > > > & f                         T 0 > > > > > > > ;.&.                                ",
"                            . :.: > > > > > j >.H                         + ,.> > > > > > > <.*.                                ",
"                            + 1.F > > > > > 2.3.                            4.5.> > > > > > 6.7.                                ",
"                              - D > > > > > x #.+                           8.+.> > > > > > 9.0.                                ",
"                              q.L > > > > > C ~ w.                          e.r.> > > > > > t.y.                                ",
"                              y.Y > > > > > > u.i.                          p.a.> > > > > > b s.                                ",
"                              d.r.> > > > > > +.#                           7.f.> > > > > > +.g.                                ",
"                              Q ' > > > > > > > h.Q                         f j.> > > > > > : k.                                ",
"                              Q ' > > > > > > > j l.o z.+                 + X x.> > > > > > o.c..                               ",
"                              _ % > > > > > > > > , v.b.n.m.M 8   8 M.f 7.N.B.t.> > > > > > n V.z.                              ",
"                              l C.> > > > > > > > > > 2.9.Z.g A.S.D.| F.s ^ C > > > > > > > E U =                               ",
"                              + 3.F > > > > > > > > > > > > > > > > > > > > > > > > > > > > G.A.H.                              ",
"                                T @.J.> > > > > > > > > > > > > > > > > > > > > > > > > > > j K.H.                              ",
"                                  T I L., > > > > > > > > > > > > > > > > > > > > > > > > > > k r                               ",
"                                N   H P.) ^ > > > > > > > > > > > > > > > > > > > > > > > > > I.M                               ",
"                                      + p 1.U.L.E > > > > > > > > > > > > > > > > > > > > > > Y.}                               ",
"                                          + T T.R.E.6.2.j , > > > > > > C n W.^ > > > > > > > { }                               ",
"                                              + . Q.0.!.~.v u.^././.^.(.).8._.V > > > > > > > C.w.                              ",
"                                                      + r p `.1 1 1 1 2 }   7 F.> > > > > > > C.w.                              ",
"                                                                            7 '.> > > > > > > ].w.                              ",
"                                                                            7 '.> > > > > > > ( M.                              ",
"                                              N N N                         7 '.> > > > > > > ( M.                              ",
"                                        8 w.X [.M.                          7 '.> > > > > > > ( w.                              ",
"                                  8 l y.#.I.c R Q.                          7 '.> > > > > > > {.p                               ",
"                              } k.}.& |.2.Y >.l                             7 '.> > > > > > >  XX                               ",
"                            H.I L > > > > | Q.                              7 '.> > > > > > > '.O.                              ",
"                            n.K > > > > > .X2                               7 '.> > > > > > > ( w.                              ",
"                            8.2.> > > > > F XX8                             7 '.> > > > > > > ( M.                              ",
"                            N.q > > > > > > oX- +                           7 '.> > > > > > > OXM.                              ",
"                            ..d > > > > > > > +Xn.+                         T W > > > > > > > ( w.                              ",
"                            H %.> > > > > > > , c s.+                       _.K > > > > > > q V.z.                              ",
"                              ` t.> > > > > > > C d i 8                   p @X> > > > > > h A.7                                 ",
"                              #X( > > > > > > > > > 6.$Xr               M S J.> > > > > L.a T                                   ",
"                              + $XD > > > > > > > > > L @._ =         `.%X9.> > > > , &X1.r                                     ",
"                                H # 6.> > > > > > > > > 2./.*X=X-X[.# ;X: > > > > 5 z :X+   +                                   ",
"                                  z.` y > > > > > > > > > > , +.K u o.> > > > > F 6 i.                                          ",
"                                    8 g.W C > > > > > > > > > > > > > > > > C v.>Xw.                                            ",
"                                      + :XC.C > > > > > > > > > > > > > > G.,X<Xz.                                              ",
"                                          * 1X5.> > > > > > > > > > > > D 2X!     3X                                            ",
"                                            ! .X2.> > > > > > > > > 5.4X# M.                                                    ",
"                                              X 5X: > > > > > > > $..X6X7X  +                                                   ",
"                                            N   2 m F > > > > , =.S @                                                           ",
"                                                  T 8Xr.> > w 9Xs.=                                                             ",
"                                                +   H 0Xc E.qXT                                                                 ",
"                                                      = O.T .                                                                   ",
"                                                                                                                                "
};
