/* XPM */
static char *c291e5c37c4e4f2498e028033f941f55BoKmWDuoZtOqm6wM[] = {
/* columns rows colors chars-per-pixel */
"64 64 170 2 ",
"   c None",
".  c #020305",
"X  c #090607",
"o  c #0B0A07",
"O  c #060508",
"+  c #0A0709",
"@  c #0C0A0B",
"#  c #120D0B",
"$  c #1B0E0B",
"%  c #151107",
"&  c #15110A",
"*  c #1B150B",
"=  c #1E180C",
"-  c #140E12",
";  c #151112",
":  c #1B1514",
">  c #1E1813",
",  c #1B1A1B",
"<  c #22110D",
"1  c #2A150F",
"2  c #231C0D",
"3  c #281F0D",
"4  c #211614",
"5  c #2E1610",
"6  c #221A16",
"7  c #241C1B",
"8  c #291C1A",
"9  c #24161D",
"0  c #341911",
"q  c #3A1C13",
"w  c #2B220E",
"e  c #30250F",
"r  c #2C221C",
"t  c #2B2213",
"y  c #322610",
"u  c #352911",
"i  c #3B2D12",
"p  c #34241F",
"a  c #3E3013",
"s  c #221F20",
"d  c #2B1A21",
"f  c #301D25",
"g  c #2D2522",
"h  c #2A2728",
"j  c #362520",
"k  c #392722",
"l  c #322927",
"z  c #3A2A23",
"x  c #3D242D",
"c  c #342C2B",
"v  c #392E2C",
"b  c #3D312E",
"n  c #3F3330",
"m  c #411F15",
"M  c #452116",
"N  c #4B2417",
"B  c #402219",
"V  c #4F2618",
"C  c #512618",
"Z  c #56291A",
"A  c #5D2C1B",
"S  c #443414",
"D  c #4C3A16",
"F  c #4C3B1E",
"G  c #513E17",
"H  c #523F18",
"J  c #622F1D",
"K  c #66301E",
"L  c #69321F",
"P  c #412C25",
"I  c #4B332C",
"U  c #51372E",
"Y  c #52382F",
"T  c #4B2C36",
"R  c #423532",
"E  c #463935",
"W  c #493A35",
"Q  c #4D3E3A",
"!  c #533830",
"~  c #5B3E34",
"^  c #56323E",
"/  c #574319",
"(  c #584319",
")  c #524027",
"_  c #554228",
"`  c #5B4726",
"'  c #5F4137",
"]  c #53433E",
"[  c #654F2D",
"{  c #78412E",
"}  c #6D4A3E",
"|  c #6E4333",
" . c #724C3F",
".. c #5C3642",
"X. c #5F3844",
"o. c #603844",
"O. c #574641",
"+. c #584742",
"@. c #5D4B45",
"#. c #604D47",
"$. c #624E49",
"%. c #744F42",
"&. c #65514B",
"*. c #6B554E",
"=. c #775143",
"-. c #785143",
";. c #6C5750",
":. c #6D5851",
">. c #745D55",
",. c #775F58",
"<. c #7D6240",
"1. c #7B635B",
"2. c #8D5A48",
"3. c #80675E",
"4. c #82685F",
"5. c #8E7054",
"6. c #9D7B5A",
"7. c #856B61",
"8. c #8A6E65",
"9. c #8D7066",
"0. c #8E7268",
"q. c #93766B",
"w. c #97796E",
"e. c #997A6E",
"r. c #9B7B67",
"t. c #9D7D71",
"y. c #AC8869",
"u. c #A38276",
"i. c #A78579",
"p. c #A8867A",
"a. c #AC897D",
"s. c #B48E70",
"d. c #B18D7D",
"f. c #BF977B",
"g. c #D0987E",
"h. c #F79F6E",
"j. c #B38F81",
"k. c #B69184",
"l. c #BA9486",
"z. c #BF998A",
"x. c #C49C8D",
"c. c #C89F90",
"v. c #D4A88E",
"b. c #CBA292",
"n. c #D5A996",
"m. c #D5A999",
"M. c #D8AC9B",
"N. c #DCAE95",
"B. c #DDB09D",
"V. c #EFAF8F",
"C. c #F9AC84",
"Z. c #F6AD88",
"A. c #F6B697",
"S. c #F8B696",
"D. c #FCBA9B",
"F. c #DFB1A0",
"G. c #E3B5A3",
"H. c #E7B8A6",
"J. c #E9BAA7",
"K. c #EEBDAA",
"L. c #EDBDAA",
"P. c #F0BFAB",
"I. c #F3C1AE",
"U. c #FAC2AA",
"Y. c #F5C3B0",
"T. c #FAC7B3",
"R. c #FAC7B2",
"E. c #FCC9B5",
"W. c #FECBB6",
"Q. c #FDC9B5",
/* pixels */
"                                                                                                                                ",
"                                                                                                                                ",
"                                                                                                                                ",
"                                                                                                                                ",
"                                                                                                                                ",
"                                                                                                                                ",
"                                                                                                                                ",
"                                                                                . . o o # o X X .                               ",
"                                                                  . X X @ o . X = a S D D D a y w & . .                         ",
"                                                            . o 2 y a S D D a a / ( ( ( ( / ( ( / / a 2 o .                     ",
"                                                        . o w S / / ( / / / ( / ( / / / / ( / ( / ( / / a = .                   ",
"                                                      . % S / / / / / ( / / / / / ( / / / / / / / / / ( / / y o                 ",
"                                                      # S / / / / / / / / / / / ( ( ( / ( / / / / / / / / ( / S o               ",
"                                                    o i / / / / / / / ( / / ( / ( ( / / / / / ( / ( / ( ( / ( ( S o             ",
"                                                  . e / / / / / / ( ( ( ( / / / / ( / / ( / / / / / ( / / / / / / y O           ",
"                                                  * G / / / / / / ( ( ( / / ( / / / / / / ( / ( / / / / / / / / / / * .         ",
"                                                . i / / / / / / / D S / / / / / / / / / / / / / / / ( ( / / / / / ( a o         ",
"                                                * G / / / / / / / t & = S / / / / ( / / ( / / / / / / / / / / / / ( / w .       ",
"                                              . y / / D D / / / i , e.:.> a / / ( / / / / / / / / / / / / / / / / / / a X       ",
"                                              o D / / w y / / G = 1.D.V.1.* S / / / S u / / / / / / ( / / / / / / / ( / *       ",
"                                              & H / G & i / / i g v.h.C.I.&.* D ( ( a % S / / ( / / / / / / / / / a / / e .     ",
"                                              = S S S % S ( G = ,.V.h.h.T.M.b w / ( S o t / / / / / y a / ( / ( S & D / a o     ",
"                                              # * * S % S ( a 7 x.D.C.U.T.Q.p.> S ( S o # a ( / / G % o D ( ( ( D & i / D #     ",
"                                              . . w S # S / w +.I.U.S.T.Q.Q.I.@.2 / i l &.* D / / D * : w / ( ( D * u / / 2 .   ",
"                                                . w D % S D * u.I.y.6.s.v.K.Q.z.6 a w @.F.] = D ( D , 1.7 a ( ( / * y / / w .   ",
"                                                . u / * e i z B.n.) e u F <.f.K.@.% > p.Q.M.Q * D S 6 d.$.= / ( D * u ( ( w .   ",
"                                                . e / w = * ,.k.@.*.9.7.] t ` N.x.b 1.K.E.I.5.= o % % [ r.r a / D % i i S w .   ",
"                                                . w / w . g 9.O.j.I.K.K.K.q.E n.T.H.I.T.E.B.) t E +.E z u.:.= / i & S * X o     ",
"                                                  * D = +.k.&.i.Q.x.E R k.R.1.8.E.E.Q.T.T.u.] k.K.I.I.a.+.7.g w 2 2 D &         ",
"                                                  . w * +.8.O.J.I.+.. . Q I.c.$.K.Q.Q.Q.M.] b.I.q.$.d.T.z.+.7.r o i D #         ",
"                                                    . O ] @.@.Y.Y.@.. . ] P.M.E 8.p.k.b.1.7.Q.p.@ . r B.Y.>.u.x.g a a .         ",
"                                                    l 7 4.b.@.L.Q.b.O.] x.Q.b.E 1.1.*.&.c p.W.0.. . : b.Q.w.;.l.g e * .         ",
"                                                    g v ] F.@.k.Q.E.I.I.Q.Q.8.4.R.Y.Y.K.,.u.E.m.E , 1.K.T.9.b ] @ . .           ",
"                                                      . : l.j.+.b.Q.W.Q.Y.p.+.m.Q.T.E.Q.i.:.I.E.H.n.I.T.I.&.k.w., l             ",
"                                          . . . . . . . . n b.u.O.1.p.u.:.+.x.E.T.Q.Q.Q.G.@.u.T.Q.Q.E.Y.q.&.G.+.O.]             ",
"                                          . . . . . . . . . b a.b.w.1.1.u.G.E.L.p.b.x.M.Q.c.+.7.x.m.z.1.$.n.u.; 7 -             ",
"                                          . . . . . . . . . . ; &.l.J.E.W.Q.E.Y.a.>.1.b.T.E.M.8.$.@.&.q.m.t.7 .                 ",
"                                          . . . . . . . . . . . . ; E 1.d.M.L.Y.T.K.Y.Q.Q.Q.Q.E.I.F.b.u.] -                     ",
"                                            . . . . . . . . . . . . . . @ s R @.,.8.t.u.p.u.t.9.>.] g - .                       ",
"                                            O . . . . O . O . . . . . . . . . . . . + O @ @ @ . .                               ",
"                                            . . . . . . . . . O . . . . . . . . . . . . .                                       ",
"                                              . . . . . . . . . . . . . . . . . . . . . . . .                       . . .       ",
"                                              . . O . . . . O . . . . . . O . . . . . . . . . .         . . @ - 8 z U ! @       ",
"                                              . . . . . O . . . O . . . . . . . . . . . . . @ @ . @ 4 p I ~ } -.%.} ~ z +       ",
"                                                . . . . . . O . . O . . . . .   . . . . . + c s , p %.} ' I k 6 - O .           ",
"                        . . .                   . . O . . . . . . . . . @ O - 9 k Y I - . , h $.t.; - o . .                     ",
"                . + # < 5 5 5 < # X .           . . . . . . . . . . @ d T ; ! =.} ~ v # . O ; 9.:.O                             ",
"            . $ 0 V A J L L L J A N q $ X O # 4 4 . . . . . . . + d T X...- # - @ .         . @ O                               ",
"        X < M J K L L L L L L L L L L J 0 8 | {  .O . . . . . O x X.X.X.x +                                                     ",
"      . # 5 q 0 Z L L L L L L L L L L L m 8 2.{ 2.: . . . . . . 9 ....x -                                                       ",
"      . . O # 1 Z L L L L L L L L L L L Z $ U B z - . .     . . O d d +                                                         ",
"    . o < m Z J L L L L L L L L L L L L m + . . .           . . . O .                                                           ",
"  . X q Z J K L L L L L L L L L L L L C #                     . . .                                                             ",
"    . X # $ * q L L L L L L L L L L m # .                                                                                       ",
"        . . $ m L L L L L L L J Z 1 X                                                                                           ",
"        . X $ 0 m N C Z C m q < X .                                                                                             ",
"              . . X X X X X . .                                                                                                 ",
"                                                                                                                                ",
"                                                                                                                                ",
"                                                                                                                                ",
"                                                                                                                                ",
"                                                                                                                                ",
"                                                                                                                                ",
"                                                                                                                                "
};
