/* XPM */
static char *a6aecbce24d140d5bfac5f4f9689219cEZUQN7O8nsnyD8Y6[] = {
/* columns rows colors chars-per-pixel */
"64 64 171 2 ",
"   c #281C0C",
".  c #35270B",
"X  c #372A0A",
"o  c #3B2D0C",
"O  c #3E310D",
"+  c #312412",
"@  c #3A2E13",
"#  c #3F3313",
"$  c #3D301B",
"%  c #42340E",
"&  c #46380F",
"*  c #433612",
"=  c #463911",
"-  c #4A3C12",
";  c #43361A",
":  c #453A1C",
">  c #4A3D1B",
",  c #433727",
"<  c #453A22",
"1  c #4A3F23",
"2  c #4F4014",
"3  c #4E411C",
"4  c #544515",
"5  c #574817",
"6  c #5A4A17",
"7  c #53451A",
"8  c #57481A",
"9  c #5B4C1B",
"0  c #5F501D",
"q  c #60511E",
"w  c #4D4224",
"e  c #4E442B",
"r  c #534621",
"t  c #564A23",
"y  c #5C4D23",
"u  c #51462A",
"i  c #54492C",
"p  c #594C2A",
"a  c #5E5123",
"s  c #5F532C",
"d  c #4F4530",
"f  c #544A34",
"g  c #564E3A",
"h  c #5E5434",
"j  c #57503F",
"k  c #59513C",
"l  c #635423",
"z  c #675827",
"x  c #685926",
"c  c #63552B",
"v  c #66592B",
"b  c #6B5C2C",
"n  c #635632",
"m  c #665A34",
"M  c #6C5E33",
"N  c #655B3B",
"B  c #6A5E3B",
"V  c #70612F",
"C  c #6E6033",
"Z  c #6D623C",
"A  c #726335",
"S  c #7B6735",
"D  c #74663A",
"F  c #77693C",
"G  c #7A6B3E",
"H  c #5E5746",
"J  c #5F5A4B",
"K  c #645C45",
"L  c #6B5F42",
"P  c #6C6243",
"I  c #67604B",
"U  c #6C654C",
"Y  c #726643",
"T  c #756945",
"R  c #7B6D43",
"E  c #706749",
"W  c #746A4B",
"Q  c #7F7144",
"!  c #7F714A",
"~  c #666053",
"^  c #6B6453",
"/  c #6F6853",
"(  c #6A665A",
")  c #6E6A5D",
"_  c #736C54",
"`  c #786F55",
"'  c #736D5D",
"]  c #7C7256",
"[  c #75705E",
"{  c #7B735C",
"}  c #6E6B61",
"|  c #726E62",
" . c #726F68",
".. c #767164",
"X. c #7A7565",
"o. c #76746C",
"O. c #79766B",
"+. c #7C796D",
"@. c #767572",
"#. c #787773",
"$. c #7B7A76",
"%. c #7D7C79",
"&. c #7E7D79",
"*. c #7E7D7B",
"=. c #7E7E7B",
"-. c #7E7D7C",
";. c #7F7E7D",
":. c #93793B",
">. c #817346",
",. c #83754A",
"<. c #86784E",
"1. c #897B4E",
"2. c #817655",
"3. c #877A51",
"4. c #8B7D53",
"5. c #8C7F5A",
"6. c #857D64",
"7. c #827D6C",
"8. c #807C71",
"9. c #817E75",
"0. c #807E79",
"q. c #807F7B",
"w. c #807F7E",
"e. c #9B844E",
"r. c #8E8056",
"t. c #8E815A",
"y. c #928255",
"u. c #92855B",
"i. c #97885C",
"p. c #9A8B5D",
"a. c #AB914E",
"s. c #BB9E56",
"d. c #8C8263",
"f. c #8C846A",
"g. c #938662",
"h. c #968962",
"j. c #9A8D64",
"k. c #908668",
"l. c #968C6C",
"z. c #9A8E6A",
"x. c #9E9064",
"c. c #9E926D",
"v. c #858072",
"b. c #8B8675",
"n. c #81807C",
"m. c #82817C",
"M. c #83827D",
"N. c #81807F",
"B. c #898579",
"V. c #8E897C",
"C. c #928B75",
"Z. c #948D79",
"A. c #9D9373",
"S. c #97907C",
"D. c #9B927A",
"F. c #A09266",
"G. c #A2946C",
"H. c #A6986D",
"J. c #A9996D",
"K. c #A29672",
"L. c #A59975",
"P. c #AB9D74",
"I. c #A79B79",
"U. c #A99D79",
"Y. c #ADA17B",
"T. c #B2A47F",
"R. c #D5AE4A",
"E. c #828180",
"W. c #838381",
"Q. c #848381",
"!. c #959080",
/* pixels */
"%.%.-.%.%.-.-.-.-.w.n.n.W.n.E.-.&.$.&.&.$.&.$.$.$.$.-.&.%.=.=.=.=.w.w.=.w.w.M.=.%.w.w.n.w.-.-.%.$.$.%.&.-.-.-.-.-.E.-.w.%.w.%.=.",
"%.%.%.%.%.-.-.-.n.-.-.-.W.n.w.-.&.$.&.$.$.$.&.&.&.&.&.$.%.%.=.=.w.w.=.w.W.W.w.w.%.-.w.n.n.-.-.%.&.@.%.%.-.%.$.-.-.E.w.w.-.%.%.=.",
"-.-.%.%.%.-.-.-.-.n.-.n.w.-.-.%.$.$.$.$.$.$.$.&.$.&.&.$.%.v.%.-.%.w.=.%.w.w.w.w.-.w.n.E.-.%.%.%.%.$.$.-.-.%.-.-.-.-.w.-.-.%.-.%.",
"$.$.%.%.-.-.-.-.-.-.n.w.w.-.%.%.$.$.$.$.$.$.$.&.&.0.0.$.%.w.9.%.%.=.%.w.w.w.w.=.w.E.n.n.-.-.-.-.%.$.%.-.-.-.$.-.-.-.-.w.w.-.-.%.",
"$.-.-.-.$.-.-.-.w.-.w.n.%.-.%.%.$.$.$.$.$.%.$.%.&.$.$.-.&.&.v.-.%.%.%.=.w.w.w.w.n.Q.E.n.w.%.-.%.%.$.-.-.-.-.%.-.w.w.w.%.%.w.%.%.",
"$.$.$.-.-.-.-.-.-.-.w.n.-.-.%.%.&.&.$.$.%.%.%.%.$.$.&.9.&.&.-.-.%.%.%.w.n.n.=.=.n.n.w.w.-.%.w.%.%.-.-.-.-.-.%.-.=.w.-.w.-.%.%.=.",
"$.$.-.-.-.-.-.-.-.w.-.w.n.n.-.n.&.&.%.$.$.%.%.$.&.&.&.$.&.%.9.%.%.%.%.=.M.=.n.w.w.%.w.n.w.w.%.w.-.-.-.-.-.-.$.-.%.-.-.-.=.;.=.%.",
"$.-.-.-.-.-.-.-.w.%.-.-.M.n.w.w.q.$.%.%.%.$.$.%.$.&.&.-.&.-.w.%.=.%.=.w.M.w.w.w.w.-.w.n.q.w.q.w.-.-.-.-.-.$.$.%.%.%.-.w.-.;.=.=.",
"%.%.-.-.w.w.n.-.=.w.w.w.n.w.w.w.0.&.&.&.$.$.@.$.$.$.$.q.#.+.$.q.%.%.9.w.%.w.w.w.w.w.w.w.w.w.n.w.-.-.-.-.-.$.$.$.-.%.-.-.-.-.-.%.",
"%.%.%.-.w.-.E.w.%.w.w.w.W.w.w.%.&.&.&.&.$.$.@.$.o.$.$.8.o.' ' ..o.$.$.$.q.9.w.w.w.w.w.w.w.w.Q.w.-.-.$.-.-.-.$.$.%.%.-.-.%.$.%.$.",
"$.$.%.-.-.n.n.n.w.=.w.W.W.W.n.w.&.$.&.&.$.$.$.@.#.#.#...U n c M Y ] ] _ 7.$.7.&.w.w.w.w.w.E.w.w.-.-.-.-.-.$.%.$.%.%.%.$.-.$.$.$.",
"$.$.%.-.n.n.n.n.=.W.W.W.Q.W.n.w.&.&.$.$.$.$.$.$.#. .' L c 8 6 q l l l m L W _ 6.8.q.w.w.Q.Q.w.w.-.-.-.-.$.-.%.$.%.%.-.%.$.-.$.$.",
"$.-.$.-.n.w.w.-.%.E.n.W.Q.Q.W.n.&.&.&.$.$.$.$.#.' L s y q q 9 5 - - > 8 x x b Y 2.7.M.Q.Q.Q.w.&.-.%.=.=.-.-.%.%.$.%.-.-.-.$.-.$.",
"$.$.-.-.w.%.%.-.-.-.E.E.n.W.n.n.w.&.&.&.$.$.8.X.L l 6 q x q > & . @ w :.S c q z G 2.7.M.Q.Q.w.&.w.w.=.=.-.-.%.@.-.-.-.-.-.-.-.-.",
"$.$.$.-.-.w.%.-.%.E.E.n.n.W.w.w.&.&.q.q.%.$.| Y b q 0 a x 9 - .   , >.s.a.M w 8 x A ` 8.w.w.w.w.;.;.=.=.-.-.%.$.$.$.-.-.w.w.w.w.",
"-.$.$.$.-.n.E.%.-.%.n.n.W.n.w.-.&.$.0.q.+.) N a q b b x x l q > @ f :.R.s.L ; * 5 l A ..9.w.q.q.E.;.;.;.-.-.$.@.@.$.-.-.-.-.-.%.",
"@.-.@.-.-.n.E.-.n.-.n.w.n.n.w.w.$.w.q.$._ m y 6 x >.D x q l l q > p :.a.e.f + X 4 9 z P X.q.w.n.=.;.=.=.=.=.$.$.$.@.$.%.%.9.%.%.",
"@.@.@.-.-.E.E.E.E.w.w.w.E.Q.w.w.q.q.$.' B c b l l D D l q q q q q y x :.n < X = 4 6 9 z E ..$.%.=.=.;.=.w.=.9.%.$.$.$.$.%.%.%.$.",
"@.-.@.-.-.N.E.w.n.n.w.n.n.E.n.n.%.q...L y M R M c c b b b q q 9 q q 9 8 > 4 4 5 6 0 6 9 l L { $.w.w.n.w.=.M.=.%.$.$.$.%.%.%.$.$.",
"@.@.$.-.-.N.N.E.Q.n.w.w.n.%.$.$.O.o.U p 8 M R R T >.>.>.D M c l l c l q l l q q 0 6 8 4 8 9 B ..%.n.n.n.M.=.w.=.%.%.%.%.$.$.$.@.",
"@.@.$.%.N.N.-.-.n.9.8.X.' _ / I K N h 9 l b R 4.h.z.j.h.5.2.P L L L Z B B D M v q 9 6 8 8 a B | v.n.n.M.n.n.w.9.%.9.=.=.$.$.$.@.",
"@.@.$.%.N.-.%.o._ ] ] Z m v s r : 7 8 c M R 5.z.K.G.c.G.J.5.{ | ..7.7.| | { ] T D B m B B E ' $.w.w.n.M.n.n.=.%.=.%.$.%.$.@.@.o.",
"@.@.$.%.%.-.o.B z b b q q A b - = - 9 b Q g.G.L.J.F.p.F.5.R K ^ | O.#.#.%.q.n.8.+.O.o.O.o.$.%.-.w.=.n.n.M.n.=.%.$.$.$.$.@.@.o.@.",
"@.@.@.%.-.%...c 6 9 9 6 l A M 7 - 8 9 M <.G.L.L.J.F.p.4.Y p r p K ^ | 8.%.w.n.Q.n.n.n.n.n.E.-.-.=.=.n.M.n.n.v.%.$.$.-.$.#.@.@.o.",
"@.@.%.-.-.%.| s 4 4 4 4 7 t 7 - 4 8 l b <.c.U.x.h.p.i.Q c t 8 a c M Y ` X.8.w.w.E.n.w.-.%.-.-.-.%.w.=.M.=.w.v.&.$.%.%.$.@.@.@.@.",
"@.@.@.@.-.%.| i - = & % % % O o > 9 l A r.A.K.x.p.p.4.M > 4 0 b S S C C Y { 9.w.n.%.%.%.%.%.%.-.%.=.M.=.=.w.%.n.w.$.$.$.@.@.o.o.",
"-.@.-.-.-.%.} , O % % & % O X . * 9 l A r.L.U.P.G.i.,.c = % 9 F 3.>.b x b T 5.V.n.n.%.%.%.$.%.-.%.=.v.=.M.=.n.n.=.=.%.$.@.o.o.@.",
"-.-.@.-.-.-.} d > w t y t 3 ; @ * 5 l S t.K.Y.T.J.i.F w O % 8 Y 5.>.x a q S 5.A.Z.B.$.$.%.-.-.$.&.=.w.M.=.=.=.n.=.$.$.$.@.@.o.@.",
"@.@.-.-.-.@.@.~ ~ I ^ / / I H g i 9 q G h.K.U.Y.Y.p.Y > o % - y C b q 0 0 x >.5.z.f.X.+.%.%.&.&.&.n.v.=.n.=.=.n.=.$.$.$.@.$.#.$.",
"-.-.-.$.$.-.-.-.$.$.$.@.%.%.#.o.U s a S t.x.h.u.i.y.M ; X % % - > 4 6 9 6 0 z S >.R E _ O.%.=.n.n.&.=.w.=.n.n.M.=.=.%.$.$.@.$.$.",
"-.-.-.-.$.-.-.-.-.%.%.-.n.E.W.-.| n 9 v ! h.r.,.1.,.v ; o % & & & & 7 9 0 0 9 a z z z M W O.%.n.n.%.n.n.n.=.=.n.=.%.$.$.$.$.$.=.",
"@.-.$.$.-.-.@.$.%.$.%.%.%.n.n.E...n 6 c R h.h.t.y.y.R u * % & - % & - 8 6 8 6 0 l q 0 z C E ..%.%.=.n.=.n.=.n.w.%.%.$.$.@.@.$.=.",
"&.&.$.&.$.#.$.$.$.$.$.&.=.M.w.9.o.N a C 3.h.c.u.1.r.3.U j w 3 & % % % - - - 4 9 a a 0 0 l v P ..#.%.$.=.=.=.v.=.%.%.%.@.@.@.$.$.",
"$.&.$.$.$.#.$.$.$.$.$.&.=.=.w.n.o.P M R 3.h.H.h.r.r.t.+. .~ k w % o % % & & - 8 v D D z 0 0 a P ..@.$.$.=.=.%.w.%.9.%.@.@.$.$.$.",
"$.$.&.$.$.$.#.$.$.$.$.&.9.=.n.n.@.U M C R r.c.A.p.p.u.v.$.@...J 1 $ o o % % & 8 D r.t.G l 0 l v P ..$.$.%.%.-.$.$.=.$.@.@.@.$.$.",
"%.$.$.&.$.$.$.&.$.$.&.=.n.M.M.n.%.{ Q A Z <.c.Y.K.x.j.f.9.$.$.@.} H < @ o * - 8 b ! h.r.C l C C Z / ..$.%.&.w.%.w.$.$.@.@.$.$.$.",
"$.$.$.%.=.$.$.=.&.$.$.&.n.M.M.n.w.v.k.r.,.,.x.K.c.H.H.A.B.%.%.=.$. .J e * % - 8 0 z Q <.C 0 V Q A D ] $.v.-.v.$.$.=.$.@.@.$.$.%.",
"%.$.$.%.$.$.#.$.&.&.&.=.n.n.M.M.=.B.D.A.r.,.h.c.u.u.p.x.f.9.%.=.n.%.o.~ d ; % 4 6 0 b V a 6 a V b b ] v.=.&.%.$.$.$.$.@.$.9.=.=.",
"$.$.$.$.$.@.$.$.%.%.&.v.=.M.M.=.v.=.C.c.r.G r.h.r.r.y.p.g.b.n.M.n.n.%.#.( g > - 2 5 5 7 4 5 6 0 0 z r.b.B.=.$.$.@.$.$.$.$.=.w.M.",
"%.%.$.%.=.$.@.@.@.%.%.%.=.n.w.w.%.=.v.] A A 4.h.z.j.x.p.j.k.M.M.M.n.q.%.#.) g > # 2 = = & 2 5 6 9 x ,.c.C.=.$.$.$.$.$.$.=.9.M.=.",
"%.$.$.$.%.$.$.$.#.&.&.&.&.&.v.=.w.=.+.E l b 1.x.K.U.G.x.x.c.b.M.n.n.n.%.%.$.) k : O O & # & 2 9 z l A r.k.v.$.$.$.$.$.=.=.=.n.9.",
"=.$.$.$.$.$.$.$.#.&.&.&.%.v.&.=.=.w.$._ s z Q t.c.K.c.x.H.J.C.B.n.n.w.$.$.$.$.) g : O O & & 2 5 l 0 l C F ` O.@.$.$.$.9.=.=.=.=.",
"=.%.$.$.%.%.$.$.=.&.=.n.w.=.M.n.=.w.=...P a C ,.h.c.h.y.p.x.h.v.q.w.%.%.$.%.%.$.) f : % & & & 2 8 l l 0 0 C [ +.@.$.$.$.=.w.=.9.",
"=.v.=.=.$.$.$.$.@.$.&.n.w.=.n.n.v.=.=.$.( v l C 1.x.h.u.i.i.u.f.v.n.q.%.%.%.%.%.%.( u * O # & & 8 C C a 0 a E X.#.$.$.$.%.=.=.=.",
"=.%.v.%.=.$.$.$.@.$.$.=.n.n.=.=.=.n.w.%.+.I a z G u.c.A.Y.F.p.p.b.n.%.%.%.n.%.%.%.$.~ w # O & # 3 C C a q l C [ o.$.$.$.%.%.=.=.",
"=.w.%.=.$.=.$.$.$.$.=.%.n.n.n.M.=.n.=.=.$.[ Z l V ,.g.Y.Y.Y.J.J.A.b.n.%.%.%.v.$.9.n.#.J : O O & - 7 9 0 l z v P ..@.@.$.$.v.%.w.",
"%.9.=.%.=.$.=.=.=.%.%.v.n.n.=.=.=.=.9.=.$.@.U h a A t.A.Y.Y.Y.J.j.d.9.%.n.%.%.%.-.n.n...g # O O & & 2 8 0 l 0 C [ @.o.@.$.%.%.w.",
"$.%.=.%.$.%.=.&.%.%.%.=.n.n.w.9.9.n.w.w.v.%.+.E C V ,.j.c.Y.Y.Y.G.z.b.n.%.%.%.%.%.-.n.v.( u = O O & - 4 5 9 5 a / o.$.o.$.%.%.%.",
"$.%.$.%.$.=.=.=.%.9.=.=.=.=.M.=.v.w.=.=.=.9.$.X.Q b C r.c.K.c.x.x.h.d.$.$.%.%.$.$.%.=.M.+.I r % O # & 2 5 8 6 a U o.#.#.#.=.=.%.",
"$.$.%.$.$.%.$.%.%.$.9.=.M.M.M.=.w.=.=.=.=.=.$.+._ v b Q u.h.r.>.1.r.t.f.%.=.9.%.$.9.=.M.M...h # O O & 2 2 5 0 B [ @.#.#.#.#.$.=.",
"$.$.$.=.%.%.%.%.$.$.=.=.M.n.=.M.=.=.9.=.=.=.$.+.[ Z Q 1.r.h.u.u.x.J.J.D.b.%.%.%.$.=.=.w.M.v.I : X O O & 2 7 N ..@.$.@.#.#.$.&.$.",
"@.$.$.%.%.9.=.$.$.%.$.=.n.M.w.=.=.9.=.=.=.$.$.$.../ R Q Q t.c.K.P.Y.Y.K.b.=.9.=.=.=.w.w.M.n...d O O & & r I [ $.$.$.$.#.#.#.$.@.",
"$.$.$.$.w.=.%.%.=.$.%.=.M.n.n.n.=.%.=.=.%.$.$.$.@.) Z z V r.A.Y.P.L.x.u.t.v.w.=.=.M.M.n.M.n.$.H > = 3 f ^ o.$.@.#.$.#.#.=.#.&.$.",
"#.#.$.$.$.=.=.9.@.%.%.%.n.M.w.v.$.$.$.=.=.9.$.$.@...I a b r.c.K.L.L.L.J.L.S.M.w.w.=.n.M.M.n.=.) h h P ) @.$.$.$.#.#.#.$.$.&.$.$.",
"#.#.$.$.9.%.=.$.=.%.=.v.M.=.=.=.9.$.$.=.=.=.=.$.$.@./ N C t.c.K.L.Y.P.P.H.l.v.=.=.=.M.M.M.n.=.@...[ o.$.$.%.#.$.$.#.$.$.&.$.$.#.",
"#.#.$.$.%.=.$.=.@.%.=.=.M.M.w.=.=.$.$.9.m.w.=.$.$.=.o.U Z r.c.c.L.I.L.u.,.,.d.v.=.M.M.M.M.=.9.9.@.@.@.$.v.=.=.=.&.&.$.&.$.&.$.#.",
"$.@.$.$.9.%.9.%.=.9.%.=.w.M.=.=.%.$.9.9.M.w.v.%.%.$.+...` { t.g.l.D.K.h.h.c.K.V.n.v.=.n.M.n.=.$.$.$.=.=.=.w.n.n.v.%.%.=.%.$.$.@.",
"@.@.$.$.%.=.%.%.%.%.%.=.M.=.M.=.%.%.=.=.M.M.M.=.8.$.$.$.$.+.+.7.v.b.b.b.C.S.!.M.n.n.n.n.M.M.=.$.$.$.&.$.w.v.n.n.w.%.%.%.$.%.$.=.",
"+.@.$.&.=.=.%.%.%.%.%.9.=.w.=.=.%.%.v.=.M.M.M.=.=.$.$.$.%.%.%.$.%.$.v.=.M.M.B.M.n.=.=.n.n.n.=.%.&.&.%.=.=.M.n.n.=.v.%.%.&.$.%.=.",
"@.$.&.=.=.=.=.=.v.%.w.w.M.w.9.9.$.$.=.=.M.M.w.M.n.=.$.%.$.%.%.%.%.$.&.&.M.n.n.n.n.n.n.=.n.n.w.=.$.&.=.w.v.=.n.n.M.n.=.%.&.&.&.&.",
"$.$.$.=.=.=.=.9.=.=.=.n.M.=.=.=.%.9.=.w.M.M.n.n.n.n.v.%.%.v.%.=.%.$.%.%.n.n.n.n.=.w.=.=.=.M.w.v.&.&.&.=.n.M.n.n.M.M.=.=.v.=.9.=.",
"$.=.%.%.=.=.w.M.n.9.M.n.=.M.=.&.$.=.=.w.M.M.M.w.w.=.9.=.$.%.%.=.$.$.%.n.n.M.n.n.v.=.=.=.M.=.w.%.&.&.=.n.n.n.n.n.M.=.M.M.%.w.%.%.",
"$.%.%.=.%.w.n.=.n.n.=.M.=.=.9.&.%.9.=.w.M.M.=.=.9.=.%.=.$.$.%.%.%.$.%.%.n.=.n.n.w.=.n.n.w.n.n.%.%.%.&.v.=.n.n.M.=.M.M.=.=.%.=.%.",
"$.%.%.%.%.9.v.n.n.n.n.=.M.=.=.&.%.=.=.M.M.M.=.=.$.$.$.$.$.$.$.$.$.$.%.%.n.w.w.v.%.9.=.n.n.n.n.%.=.%.%.%.n.n.n.=.w.M.w.w.v.$.$.%."
};
