/* XPM */
static char *d7f47f1f0c4c4ee7d859a38157cba5422Vnhq0GwDwoaG3uI[] = {
/* columns rows colors chars-per-pixel */
"64 64 142 2 ",
"   c #75746F",
".  c #777672",
"X  c #787773",
"o  c #7B7A76",
"O  c #7E7D7A",
"+  c #8D7F65",
"@  c #847C6C",
"#  c #897F6C",
"$  c #837D73",
"%  c #807F7C",
"&  c #BE8A34",
"*  c #BC8E3C",
"=  c #D68A07",
"-  c #DC8D05",
";  c #D18708",
":  c #DB8E0B",
">  c #DE910D",
",  c #D18B11",
"<  c #DA8F10",
"1  c #D38F1A",
"2  c #DD9312",
"3  c #D5921C",
"4  c #DC951B",
"5  c #E08F02",
"6  c #E49104",
"7  c #E3930C",
"8  c #E39613",
"9  c #E59915",
"0  c #E29718",
"q  c #E49A1A",
"w  c #C98D26",
"e  c #CE932C",
"r  c #D29324",
"t  c #D99724",
"y  c #DD9A24",
"u  c #D59528",
"i  c #D6992F",
"p  c #DC9B2A",
"a  c #C58F33",
"s  c #CC9433",
"d  c #C5933B",
"f  c #CA963B",
"g  c #CE993E",
"h  c #D19734",
"j  c #D59932",
"k  c #D49B39",
"l  c #D89D39",
"z  c #E49E24",
"x  c #E19E2B",
"c  c #DDA039",
"v  c #E5A027",
"b  c #E5A12B",
"n  c #E3A232",
"m  c #9B835B",
"M  c #AB8546",
"N  c #B38A43",
"B  c #AD8C53",
"V  c #B18F53",
"C  c #8E8068",
"Z  c #948364",
"A  c #998664",
"S  c #93856D",
"D  c #988769",
"F  c #9B896B",
"G  c #868176",
"H  c #82817E",
"J  c #8A857B",
"K  c #8E887E",
"L  c #938671",
"P  c #958972",
"I  c #9C8D74",
"U  c #90897D",
"Y  c #9A8F7A",
"T  c #9E927B",
"R  c #A29274",
"E  c #AD9976",
"W  c #A9987A",
"Q  c #B29B75",
"!  c #CD9B44",
"~  c #C29549",
"^  c #D09E4A",
"/  c #CFA04E",
"(  c #DBA343",
")  c #D3A24C",
"_  c #CEA256",
"`  c #D1A352",
"'  c #DCAC57",
"]  c #E0A642",
"[  c #E3AF55",
"{  c #E0AE58",
"}  c #D4AD68",
"|  c #DCBA7E",
" . c #E0B66D",
".. c #E8BA6B",
"X. c #E2B974",
"o. c #E9BE74",
"O. c #E3BD7C",
"+. c #838380",
"@. c #B2A183",
"#. c #BBA683",
"$. c #CEB385",
"%. c #D9BA85",
"&. c #D1B98F",
"*. c #DBC295",
"=. c #D9C29B",
"-. c #E6C182",
";. c #E2C38F",
":. c #EAC68A",
">. c #EAC88F",
",. c #E0C493",
"<. c #EBCA94",
"1. c #E0C79B",
"2. c #E3C89B",
"3. c #EBCE9B",
"4. c #E1CAA2",
"5. c #EBCFA0",
"6. c #EAD1A7",
"7. c #ECD2A5",
"8. c #EDD3A7",
"9. c #E6D0AD",
"0. c #EDD4AB",
"q. c #EFD8AF",
"w. c #EED7B1",
"e. c #EED8B4",
"r. c #EFDBBC",
"t. c #EFDFC3",
"y. c #F0DEC2",
"u. c #F1E1C6",
"i. c #F0E3CB",
"p. c #F1E3CC",
"a. c #F2E5D0",
"s. c #F3E6D2",
"d. c #F2E6D4",
"f. c #F2E8D7",
"g. c #F4E8D7",
"h. c #F2E8D8",
"j. c #F3E9DB",
"k. c #F3EADB",
"l. c #F4EBDE",
"z. c #F4EBDF",
"x. c #F4EDE1",
"c. c #F5EDE3",
/* pixels */
"O O O O O O % % % % +.O +.+.O O % $ O O O o o o O O O O O O G % % % H H % +.+.% O O +.O +.O O O . O . +.O +.O +.+.+.+.O O O O O ",
"O O O O O % % % % % O O +.+.O O o o O O o o o O O o o O O O % O O O % % +.+.+.% O O +.+.+.+.O O +.. . O O O O O O O +.O O O O O ",
"O O O O O % % % +.% % +.+.% % O o o % % o o o % O O % % O O O % % % % H +.+.+.% O +.+.+.O O O O O O O O +.O O O +.+.O O O O O O ",
"O O O O O % % % % % % +.+.O O O o o o o O O O O % O $ % % % % G % % % % % % % % O O +.+.+.O O O O O . +.O +.O O O +.+.+.+.+.O +.",
"O O O O O % % +.O +.+.+.+.O O . % o X o o % O % O O O G O O O O O O O % +.+.% +.O +.+.O +.+.O O O O O +.O +.O O +.O +.. O +.O O ",
"O O % % % O O +.+.O O O +.O O +.% % o o o o % o O O o O O % O O O o O % % +.% % +.+.+.+.O O O % O O . O +.O O O O +.+.+.+.O O O ",
"o O % % % O O O O O O +.+.+.+.+.% % % o % o O O O O O O O % O H % O O O % +.% +.+.+.+.+.+.O % +.+.O +.+.O +.. +.O O +.+.+.O +.O ",
"o % % % % % % % O +.O +.O +.+.O % % % % o o o O O O O O % O O H O O O % +.+.% % +.O O +.+.+.+.O +.O O O +.. O . . O . +.+.+.O O ",
"O O . +.O O +.O O O O +.+.+.+.+.% % o % o o X X X % % o % o X % O O O O +.+.+.O +.O O +.+.+.O % O +.+.O +.+.. +.O . . +.+.+.O O ",
"O O O O +.+.+.+.O +.O +.+.+.+.O % o % o % o o o X X o % o o o o O O O % O +.+.+.+.O +.+.+.+.+.+.+.+.. +.. . O . O O +.. O O O . ",
"O O O +.O +.+.O +.+.+.+.+.+.+.O o % O O o o o o X o o o o o o % O O % +.% +.+.+.+.O O +.+.+.+.+.+.. +.. +.. +.. . . +.+.+.. . O ",
". O O O O +.+.O +.O +.+.+.+.+.+.% % O o o $ o O o o o o % o o o % % % +.+.+.+.+.+.+.+.+.+.+.+.O +.+.+.. +.+.. +.O +.+.. O O O O ",
"O . O +.+.O +.+.O +.+.+.+.+.+.+.% % O O o o o o o o % o % $ % % % +.+.% % % +.% +.O +.+.+.+.+.+.. O O +.+.. +.. . +.+.. +.O O . ",
"O O O O +.O O O O O +.+.+.+.+.+.% % % % % % o o o X X o $ % % o O % % % O O % % O +.O +.+.+.+.O +.+.+.. . +.+.. . . +.+.+.O +.+.",
"O O O O O +.O O O +.O +.+.+.+.O $ o % % % % o o o X X o % % % % % % O O O O O % +.+.O O +.+.+.O +.+.+.O +.+.+.. . . . +.+.+.+.+.",
". O O O +.O +.+.O O O +.+.+.+.O % o % % % % % % o X o % % % +.+.+.O % O O +.% % +.+.O +.+.+.O +.+.+.. +.. +.+.. +.. +.. . O +.O ",
". . O O +.+.+.+.% % % % +.+.+.+.O O +.+.+.% +.O % X % $ % X % % O O O O % +.+.% +.+.+.+.+.% % % . . +.+.O +.. O . O . O O O O O ",
". +.. O O +.+.+.+.% % +.+.+.+.% % O O +.+.+.+.O % % % % % % % H % O O o % % % +.% % +.% +.+.+.+.+.+.. +.+.O +.O +.. O . O O O O ",
". . O O O +.+.+.% % % +.+.+.% +.% % % +.+.+.+.O % $ % % % % % % % O O O % % % +.+.% +.+.+.+.+.% +.O +.+.O +.+.O O O O O O O O O ",
". O O O +.O +.+.+.+.% +.+.+.% % % % +.+.+.+.+.+.% % % H % % $ E W +.O O % % +.% +.+.% +.+.% % +.O +.O +.+.O +.O +.O O O O O O . ",
". O . O O O +.+.+.+.O O +.% +.+.+.% +.% +.+.+.% % % % J % J @.,.4.@.+.O % +.% +.% % +.% +.% +.% +.+.+.+.+.O +.+.O O O O O O . O ",
". . . O +.+.+.+.+.+.+.+.+.+.+.+.+.J % +.+.% +.% % % % % J @.4.p.a.9.#.J % +.+.+.% +.% +.+.+.% % +.O O +.+.+.+.O O O O O O . . . ",
". . O O O +.O +.% % % % +.+.+.+.+.+.% +.+.J +.$ % % H % @.2.a.z.j.j.9.#.+.+.+.% +.+.+.+.+.+.% % O +.O +.+.O +.O O O O O O O . . ",
". . . . +.+.O +.+.% +.% +.+.+.+.+.G % +.+.% +.+.% H $ @.2.p.z.g.j.j.j.9.@.+.+.+.+.+.+.% % +.% % O O +.+.O +.O O +.. O O . . . . ",
"O . O +.+.+.+.+.+.+.+.+.U +.+.K % +.+.+.U +.+.U +.U @.2.p.z.g.p.p.g.z.z.9.#.U H K +.+.+.+.% +.% +.+.+.K +.U +.+.O O o o o . $ $ ",
"O . O . +.U L # # # L + # # L # + + # + + # # # # #.4.a.z.j.p.5.;.p.j.c.j.9.#.I # # # # # # I # # L L # # # # # +.O % $ o $     ",
". O O O G + ~ g g ^ l g h h h h h h ] l f a a & _ 2.a.z.z.j.y.o...w.g.z.c.g.6.} ! h f f ^ ( ^ ` ` ^ ` ` ' ) ^ g +.V + +.. .     ",
"O O . O V u 0 z b n b b z z b z z z b n p < 1 ( <.a.z.z.x.a.6.:.:.6.p.j.x.z.a.5.[ p y z z z b b b z b n n b b z ~ u a + X       ",
"O O O G f 0 7 0 4 0 8 0 0 0 0 0 8 q b x t 1 ( 2.a.z.j.j.j.y.3.<.<.3.w.j.x.h.x.g.6.{ u 3 0 8 7 7 < : < 7 7 8 8 7 : 5 8 & O X X O ",
". O +.+.p 7 5 = < < 7 6 7 7 7 7 7 9 z y 4 ] <.g.z.z.j.j.a.6.3.3.<.3.5.p.z.h.g.x.g.6.' r y 8 7 6 7 : ; = 6 6 6 7 : - 7 w # X O X ",
"+.O O +.z 0 : : 7 7 6 5 : : 7 7 6 7 8 0 ] <.a.z.g.g.d.d.y.6.p.y.w.p.0.w.a.j.g.j.j.g.6.{ p y 7 6 6 < : ; 5 6 6 7 7 : 7 u + X X O ",
"O +.O +.z 0 : 7 7 : 5 5 5 7 7 5 6 6 7 c <.a.j.a.a.g.g.p.5.y.z.y.e.x.p.9.y.j.a.a.g.g.g.5.{ y 7 6 6 5 : : 6 6 6 7 : 5 7 u + X o O ",
"O O O B b q 2 > 2 6 6 6 > - > > 6 6 > ' e.f.d.d.d.d.d.0.3.i.f.u.y.j.j.3.5.a.g.a.a.d.j.t. .r = - > > : - 6 6 7 > - > 7 i C   o $ ",
"O o o Z i q 6 > 4 2 8 7 > > > 8 7 7 > t X.r.k.k.d.d.t.<.3.i.z.y.e.j.a.5.:.r.g.a.j.g.t.O.h , - > 7 - - - 7 6 7 7 > 9 9 * X . . o ",
"O o O G N 2 6 8 q 9 q v v v v n v v y r k O.r.k.k.d.7.q.e.r.k.y.y.j.y.0.w.6.t.x.g.i.-.l 3 4 4 q 9 2 8 9 9 9 q 2 8 9 e m X . o o ",
"O o o O C M w 3 r r k k c ) ) ` ) ) ! d d ~ | t.x.r.3.t.r.5.0.q.5.0.3.0.y.8.e.j.p.*.^ s h l n c j j i j l i i u r & m o X . o o ",
"o O o O O G C Z Z A A F F R R I F F D Z Z Z R *.r.0.2.q.9.=.>.>.<.3.<.9.0.8.8.y.*.Q F D F F F D F D A m D A A A C + o o X o $ O ",
"o o o O o o X o O O % % H H H H % o o o o o o I *.q.i.f.f.d.i.i.t.t.a.d.g.g.y.&.W % % % % G % % % O O o O O O O o o o o X o % % ",
"o O O O o o X X o % % % H H H H % O o o G X X X S *.t.c.c.z.f.f.g.g.j.c.c.a.1.@.$ % % % % % % % O O o o o O O o o o O o o O % H ",
"O O O O o o o o o o % % O O H H % % % O O o X   X P *.r.j.j.f.f.g.g.j.c.a.&.@.H % % % % H % % % O O o o O O o o o o o O O O % H ",
"O O o O O o o o o O O O O O O H % H H % O o o X o o R &.9.i.j.j.d.j.x.t.&.@.% o % % % % % +.% H % o o o O O O o o o o o % % % % ",
"O o o O O o o o o o O G H H H O % % G % O o o o o o G Y &.r.j.f.d.j.a.&.Y % % o % % % % +.% % H % o O O O O O o o o o o O % H H ",
"O O O O O O O O O O H H H H G H H % % O O o o o O O O G K &.r.f.l.y.&.#.$ % % % % % % +.K +.+.% % o O % G % O o o o o o O O % H ",
"H O G H O o o o o o O O H H H O % H O O % O o o o O O o O T &.e.y.,.@.+.o % o % % % % % % +.% J % % % % % % O o o X X o $ O % % ",
"O O H O O o o o o o o O H H H H % H % % O O o o o o o o H J T $.%.Q % % $ % % o $ % % J +.+.U +.G % % % G % O O o X X o o O O O ",
"O G H H G O O O o O O H O H H H H H % O % G % o o o o o H H H Y T J % % % % % % % % % +.+.+.+.+.% % % % O O O O o o o X o o O O ",
"O H O O O O O O O O G H H H H O G O % G % % O o o o o o o H H H % % % % % % % o % % % +.+.+.+.+.H % % % O O O O O o X X X o O O ",
"O O O o O O O H O O H H H H H H H O % % % % o % O H o O o O O O $ % % % % % $ X o % % % J +.+.+.H O % o O O O O O o o . . X o O ",
"o o O O O O O O O O O H H H H H H H O H H O o o H G O o G o o O o O o o o O O O O o O H H H H J H % O O O O O O O O o X X X o G ",
"O o o O O O O O O o o % G +.H H H G O H G O o o o H O O o o o O O o o o O H O O o O O % H +.+.H H H % O O G O O O O o X X o o o ",
"o o o O O O % o O % o % H H H G O O O H H O o o o o o o o o o O o o   o o H O O % % H H H +.H H H H O O O O O O o O o o o o o o ",
"o o o O G O O O O o % H J H H H O O O H O O o o o   X   o o o o o o o o o H H G O % H H J H H H % H G O O O O O o o o o o o o O ",
"o . o o O O O O O O O H H +.H H O O O H G o o O o     o o o o O o o o o H H H H O H H H H H H H O O O o O O o o o X X o o O o o ",
"X o o O O O O O O O O H H +.H % o o O O O O O O o o   o o G o o X X X o G H H O O H H J K H H H O O o O o o O O o o X o o O O O ",
"X X o O O O O @ O O O O H J H O o o o H H H O O @ o o o o O G o o X o o O H H O O H H H +.H H O O O X o O O O O O o o o O O O o ",
"X X o o O H O H O o O O H H H H G o O H H O O O o o o o O O o o o X o o O H H H O H H +.+.G H O o o O o O G O H % % O G O O O O ",
"  X o O O H O O O O O O H H H H O O O H H H H O O O o O O O O o X o o O H H H H % % % H H J H O o o O O O H H H % % G O O O O O ",
"o X o O H O O o O O O H H J G O O O O H H H H H O o o o o O G O o o o O H H H J H % % % H +.H O o O O O O H G H % H O O o O O O ",
"X o o H O H H G G O O O H H O O o G O H H H H H G O o o O O H o o o O O H H H H H H H G H H H % O O O G H H H H H H % O O O O O ",
"o o o O O H o H O H H H H H H O o o H H K H K H H G H O O O O H O O O O H H H H H H O % H H H H O O O H H H H H H H H % O O H O ",
"O o O H H H H H H H H H H H H O O O O H H J J H H H H O O O H H O O O O H H H H H H O % H H H H O O G O H H G H H H H H H H H O ",
"o H H o o H H H H H H H H H O H O o H H +.J H H H H H O o O O O o o o o O H H H O H H % H O H H O O O H H H H H H +.K H G H % % ",
"o G o H H O H H H H H H H H H H O H H H J H H O o O O O o G H o O o o H G H H H H H G H H H G O O O O O H H H H H H H H H % O o ",
"O o H o o o H H G H H G o H H O O O H H H H O O o o O O o o o o H o o o H H H H O O O H H H H H O O O O % H H H % H % % % O o o "
};
