/* XPM */
static char *_fbb5c2f43ed43ccf4e94d8a7cffe7beKGbO7GkkmWQwmDdZ[] = {
/* columns rows colors chars-per-pixel */
"64 64 183 2 ",
"   c #2E1E11",
".  c #39260F",
"X  c #2E2013",
"o  c #3B2911",
"O  c #453115",
"+  c #4A3615",
"@  c #543D14",
"#  c #543F18",
"$  c #45392E",
"%  c #493D2F",
"&  c #463A30",
"*  c #4A3E33",
"=  c #574115",
"-  c #5D4514",
";  c #654B16",
":  c #644B17",
">  c #6B511B",
",  c #7C5D15",
"<  c #785A18",
"1  c #4C4135",
"2  c #4C4239",
"3  c #514536",
"4  c #5A4935",
"5  c #52463A",
"6  c #54493D",
"7  c #5C4D3B",
"8  c #6C572F",
"9  c #6C5635",
"0  c #6D5833",
"q  c #64563B",
"w  c #66593E",
"e  c #785B34",
"r  c #4F4943",
"t  c #564C43",
"y  c #594F45",
"u  c #5C5244",
"i  c #56504B",
"p  c #5C544C",
"a  c #5B5651",
"s  c #5E5852",
"d  c #655742",
"f  c #60574E",
"g  c #635B54",
"h  c #675F58",
"j  c #766848",
"k  c #7A6C4C",
"l  c #6A6057",
"z  c #66615A",
"x  c #6A635C",
"c  c #776B55",
"v  c #6D6760",
"b  c #6E6963",
"n  c #726B65",
"m  c #736E69",
"M  c #75726D",
"N  c #7A746E",
"B  c #767672",
"V  c #787772",
"C  c #7B7A76",
"Z  c #7E7D7A",
"A  c #8A6818",
"S  c #936F1A",
"D  c #99761A",
"F  c #A17B1B",
"G  c #815D34",
"H  c #8E6E28",
"J  c #8E712B",
"K  c #91742D",
"L  c #84633A",
"P  c #996D3A",
"I  c #8F7231",
"U  c #917333",
"Y  c #9A713F",
"T  c #887446",
"R  c #967C43",
"E  c #80766E",
"W  c #807F7C",
"Q  c #AC8518",
"!  c #B38A1C",
"~  c #BA8E1C",
"^  c #BB911A",
"/  c #AD8428",
"(  c #B38A22",
")  c #B0872F",
"_  c #BB9223",
"`  c #B08633",
"'  c #C0951B",
"]  c #C5991C",
"[  c #CE9E1E",
"{  c #D09E1E",
"}  c #CFA11C",
"|  c #D0A21C",
" . c #D88B2B",
".. c #CD9C23",
"X. c #C89826",
"o. c #D59324",
"O. c #D89325",
"+. c #D29B23",
"@. c #D3942B",
"#. c #D99429",
"$. c #D49C2B",
"%. c #DA9A2D",
"&. c #CB8637",
"*. c #CB8837",
"=. c #CB893A",
"-. c #D58B35",
";. c #D98831",
":. c #D38B3C",
">. c #D39434",
",. c #D79933",
"<. c #DC9B31",
"1. c #D4923C",
"2. c #E19E3F",
"3. c #CEA123",
"4. c #D2A223",
"5. c #D4A42B",
"6. c #D4AA2A",
"7. c #D8A738",
"8. c #E2A53D",
"9. c #E3AB3F",
"0. c #9C894D",
"q. c #9E8D52",
"w. c #A29155",
"e. c #A3935B",
"r. c #81807D",
"t. c #82817D",
"y. c #81807E",
"u. c #81807F",
"i. c #83827E",
"p. c #84837F",
"a. c #A79866",
"s. c #D48D40",
"d. c #CE9044",
"f. c #D69243",
"g. c #D89948",
"h. c #D9AE45",
"j. c #DDB743",
"k. c #C4AC56",
"l. c #DDA654",
"z. c #C7B059",
"x. c #C9B35C",
"c. c #E3A649",
"v. c #E2B948",
"b. c #E4AD55",
"n. c #E7B557",
"m. c #EABB53",
"M. c #C6AF6A",
"N. c #C8B470",
"B. c #CCBA7C",
"V. c #E8BD69",
"C. c #E4C24D",
"Z. c #E9C75A",
"A. c #ECC45B",
"S. c #DEC471",
"D. c #ECCC62",
"F. c #EFD565",
"G. c #EED56A",
"H. c #EFD96F",
"J. c #F0D466",
"K. c #F1D369",
"L. c #F3DB6C",
"P. c #EDCC74",
"I. c #F0CD78",
"U. c #E9D37A",
"Y. c #F3DC74",
"T. c #F1D47C",
"R. c #F3DC7B",
"E. c #828180",
"W. c #838281",
"Q. c #848382",
"!. c #858482",
"~. c #CDBD81",
"^. c #EECF80",
"/. c #E9D686",
"(. c #E8D689",
"). c #F3DD86",
"_. c #F3DC8B",
"`. c #F6DF91",
"'. c #F5E087",
"]. c #F6E28D",
"[. c #F6E393",
"{. c #F7E59A",
"}. c #F8E59A",
/* pixels */
"Z Z Z Z Z Z u.u.u.u.Z u.u.u.u.u.t.C Z Z Z Z Z C C Z t.C t.Z t.t.t.t.r.W r.W.u.r.Z u.u.E.W W Z Z C B Z Z Z u.Z u.u.u.C u.Z Z Z u.",
"Z Z u.Z Z Z u.u.Z Z u.u.u.E.u.Z C C Z Z C C C C Z C C W Z Z Z Z Z t.W W r.W.u.u.W W E.u.u.W Z Z C C C u.u.Z Z u.u.u.u.Z Z Z Z Z ",
"Z Z Z Z C u.Z u.u.Z u.u.u.u.u.Z C Z Z C C C Z W t.C C W Z t.Z Z t.t.W W u.E.u.u.u.u.W E.W W Z Z Z Z Z u.Z Z Z Z u.u.u.Z u.C Z u.",
"Z Z Z Z Z Z u.u.u.Z Z u.u.u.Z C C C C C C C Z Z C W C t.Z t.Z Z W W W W u.r.r.r.W W Q.E.W W Z Z Z C C u.u.u.Z Z u.u.u.u.u.u.u.C ",
"Z Z Z Z Z Z u.u.u.Z Z u.u.u.C C C C C C C Z Z Z W t.t.C W N M m M M B Z u.u.r.u.u.!.u.u.u.Z Z Z Z C Z u.Z Z u.u.u.u.u.Z Z Z u.Z ",
"Z Z Z Z Z u.Z u.u.u.u.u.u.u.Z Z t.C C C C Z Z Z C C W C Z c f p r r a C E.E.r.E.u.u.E.u.u.W u.W Z Z C u.u.Z C u.u.Z u.u.u.Z Z Z ",
"C Z u.u.u.Z Z Z u.Z u.u.E.E.u.u.Z t.t.C C Z Z Z W t.C t.m s c b i r a C u.r.r.W.u.u.u.u.Z u.u.u.u.Z u.u.Z Z Z u.u.Z u.u.u.u.Z u.",
"Z Z Z u.Z u.u.u.Z u.u.u.E.E.u.u.Z t.t.Z Z C C Z C C u.C M x N z a i s C W.u.r.r.Z u.W u.u.u.u.u.u.u.u.Z Z Z C Z Z u.Z u.u.u.u.B ",
"Z u.Z Z u.u.u.u.Z u.u.u.E.E.E.u.W t.C Z C C V V C Z Z Z N x E m b z h Z Q.E.Q.W W W u.E.Q.W W W E.E.u.u.u.u.B u.B u.u.u.u.u.Z u.",
"u.Z Z Z W u.u.u.u.u.u.u.E.E.E.u.Z t.t.C C C C C N C C C V n c N m s h M W E.E.E.E.W u.u.u.W Q.u.u.B u.u.B B u.B u.B u.u.B u.Z B ",
"C C Z Z W u.E.u.u.Z u.E.Q.E.E.u.Z C C t.u.C C Z V C Z Z Z V n x v m x x V E.u.u.Q.W W Q.Q.Q.E.u.u.B u.B u.u.B u.B B u.B B u.Z B ",
"C C Z Z u.u.E.u.u.u.u.E.Q.E.E.u.W Z t.C C C C E C C V Z Z Z Z Z Z Z Z x m u.!.u.W Q.W Q.Q.Q.u.u.u.E.u.E.B u.u.B u.u.u.u.u.B Z Z ",
"Z C C u.E.E.u.E.u.u.E.E.Q.Q.E.E.t.C Z Z C C C C C Z C Z W Z Z Z Z u.V x b u.u.E.u.u.u.!.!.!.u.W u.u.B E.Z u.B u.B u.E.Z u.B u.u.",
"C Z C u.Z E.Z u.W W u.E.Q.Q.E.E.Z t.t.C W Z C C C V V C C W C N M B v g B Z u.u.u.W u.E.!.Q.u.Z u.u.u.u.u.Z u.B u.Z Z E.u.Z B u.",
"B Z Z u.u.Z Z Z W W u.u.E.E.u.u.t.C Z C C t.C C C V C C W t.u.b s f s b C Z u.Z Q.W W u.Q.Q.W Z E.E.u.u.u.Z Z B B Z E.E.u.E.E.E.",
"Z Z C Z Z u.E.Z u.Z u.E.E.E.u.W C C t.t.t.t.Z C C V Z Z t.t.W M p p v Z Z u.u.u.Q.Q.W W W E.W W E.E.E.B E.u.Z Z B B B Z Z E.E.E.",
"Z B Z Z u.u.u.E.u.Z u.u.u.E.E.E.Z Z u.u.Q.W Q.W Z Z C C C C N x f r g B W W W W Q.Q.Q.p.Q.W W W B E.B E.p.W W W V V V Z Z E.Z Z ",
"Z B B Z u.u.E.E.u.u.u.u.E.E.E.Z Z Z u.E.u.Q.W W Z V m x x h f 2 * $ * p x h m m Z W t.u.E.p.u.W E.E.E.E.u.E W E Z V Z E W Z C C ",
"B Z B Z u.E.E.E.u.u.u.E.E.E.E.u.E.Z E.E.W Q.W W C b h y y 6 3 $ & $ * 3 y 5 y p n Z W Q.Q.W p.u.Z u.E.u.u.u.E.E Z W W C W C W V ",
"B Z Z Z u.E.E.E.E.u.u.E.E.E.u.u.E.Z E.E.Q.E.E.E n g 5 w L G G G G G G G G L d t f m W Q.u.E.W W E.u.u.u.u.u.E.E.W W W C W W C V ",
"B B B Z Z u.u.E.E.E.E.E.E.E.u.u.p.W p.W W W W E g 5 0 ` &.&.&.=.&.&.&.&.s.g.M.c 3 g n W u.u.u.W u.u.E.Z E.E.E.Z W W W C V V V V ",
"B B B u.u.u.E.E.E.E.Z E.E.E.E.E.p.p.W p.!.W n f 5 0 ) $.,.:.:.:.:.:.:.:.f.b.(.~.c 5 f m Z u.u.u.u.u.Z E.Z E.E.Z C C W W C V V V ",
"B C B u.Z E.u.E.E.Z Z E.E.E.E.E.p.p.W p.W m h * 8 / ..4.,.1.:.:.:.:.:.:.s.V.[.`.~.c 6 f m Z u.Z Z u.E.E.E.Z Z Z Z C C W C B M B ",
"B B B C u.u.E.E.Z E.E.E.E.E.E.E.p.W W W m f 3 e / [ 3.} 5.1.:.=.:.s.:.:.g.I.[.{.}.~.j 5 g m C Z u.Z E.E.E.E.Z Z C W W C V M B B ",
"Z B B Z u.u.u.u.u.E.E.E.E.u.u.u.W p.W m s 6 0 / [ } } } ..>.=.:.s.&.s.:.l.`.{.{.}.[.B.j 5 g n C Z t.t.Z t.C t.Z C C Z V V V V V ",
"Z Z B u.Z u.u.u.Z B Z u.u.E.E.u.W W m g 5 8 / ..} } } } } @.>.:.&.s.s.g.V.`.{.}.{.{._.N.k 6 g M Z t.t.t.t.W t.t.W W W V V M M B ",
"u.B u.B u.u.u.Z B u.B u.Z E.E.E.W C c t 0 ) 3.| } } } } [ @.>.:.s.:.s.g.I.{.}.}.{.[.[.).M.j t x N Z Z t.t.t.t.t.W W Z Z B B B M ",
"B u.B u.Z Z Z Z u.B B u.u.E.E.E.W m f 6 0.7.5.| } } } } ..$.>.:.;.:.:.b./.}.{.{.[.[.[.].U.q.6 x V t.t.t.t.W t.t.W C C V B B B B ",
"u.B B u.B u.Z Z B u.u.B E.E.E.u.W h 2 3 q.Z.j.6.| | 4.4.+.@.;.;. .;.;.c.I.`.{.`.].[.[.'.R.e.6 l N Z t.t.W t.t.t.Z Z Z C C C C C ",
"B u.u.u.Z u.u.u.E.B u.B E.E.E.E.Z h * 1 q.G.J.j.6.| 6.$.O.O.O.#.O.#.#.#.2.n.I.`.[.'.'.R.R.e.6 x V t.W t.t.t.Z t.u.Z Z C C C C Z ",
"E.u.B E.B u.u.u.u.E.u.u.u.E.E.E.Z h 2 2 q.G.L.J.C.7.$.#.o.+.4.4.| 4.+.o.{ #.c.P.'.).R.R.Y.e.6 l B t.t.Z t.Z t.t.Z Z Z C C V C Z ",
"u.u.u.B u.B B Z B B B u.u.u.E.E.Z h 2 * q.G.L.L.F.v.#.+.+.4.3.! S D ! { { o.O.2.G.Y.Y.Y.Y.e.6 x V t.Z t.t.Z t.W u.Z C C V C Z Z ",
"t.Z C C C C C C C C C Z Z t.t.t.C z 2 * q.J.L.L.J.c.%.| | [ D = + # ; F [ [ +.@.8.J.Y.Y.Y.w.6 h N Z Z Z t.W t.C Z u.C V V C C Z ",
"Z Z C C C C C C Z C C Z t.t.Z t.C z 2 1 w.L.L.L.m.%.4.| | ^ - + H F > > ^ } [ +.O.m.L.Y.L.w.6 h B Z V Z Z W C t.t.t.C V V V C C ",
"C Z C Z C C Z Z C C C Z t.t.t.t.C h 2 1 q.G.L.J.8.O.} } | Q + + ( 4.! D ' | [ [ o.8.J.Y.Y.w.6 h N C V Z Z t.Z Z C Z C V V V C C ",
"t.C Z Z Z C C C Z C Z Z t.t.t.t.Z z 2 1 q.G.L.A.2.4.| } | ! @ X - S ~ [ | | | [ 4.<.D.Y.R.w.6 x N Z V Z Z Z Z Z C t.C V V C C C ",
"C C C Z Z C C t.Z Z C t.t.p.p.p.Z z 2 1 0.D.F.m.%.4.| | } ] A .   o - S ' [ } [ | %.m.R.R.w.5 z N Z C C Z Z t.C C C C C V Z Z Z ",
"C C W N C C C C Z Z t.t.p.t.p.p.Z z 1 1 R j.C.7.%.| | | } } ^ , O X   o < ' } } 4.o.c.D.D.0.6 l V C C Z Z t.Z C C C C C C Z t.u.",
"t.C Z Z C V V C N t.Z t.t.Z t.p.Z z 2 * I $.4.+.#.4.| | } } [ X.D : o   . D } } 4.$.,.7.5.U 5 z V C C C C Z C C C C C C C t.t.p.",
"Z C C t.t.C C V C C t.C Z Z t.t.Z x 2 * J [ 4.o.o.+.[ | } Q D ..3._ A @ . , [ | 4.o.o.3.3.J 5 l N C C C Z Z C C C Z Z Z Z t.t.t.",
"W C C Z C C C C C C Z Z Z Z Z t.Z z 2 1 J [ } +.O.+.[ | [ A > ~ 4.4.3.A o , [ 4.4.O.+.[ 3.K 3 x N C C C W C C C C C Z Z Z t.Z Z ",
"t.C C Z Z Z Z C C Z t.W W t.t.Z Z x 1 % J ..} 4.#.o.{ { [ S = S X...! : + F 4.5.+.O.{ | 4.K 5 x N C r.C W t.C C C C C Z r.u.W t.",
"W t.Z Z t.Z C C C Z Z t.t.t.t.t.Z x 2 % I 3.} 4.+.O.+.} { ( > = < < # O < ] 4.+.O.o.[ { 3.K 3 h N r.Z r.W C C C C Z C Z C t.W Z ",
"t.E W Z C Z C C C C Z t.t.t.t.t.W x 2 * I 3.| } +.<.o.+.{ ..! A - - ; A X.4.5.@.o.{ } | { K 3 x V r.W W W W W C C M N C C W t.t.",
"Z t.t.Z W C C C C C C Z t.t.t.t.Z z 2 % I ..{ 4.7.Z.b.%.+.4.3.3._ _ ' ..$.$.%.-.-...3.} [ J 3 h V Z t.Z t.C C C C V C V Z W t.t.",
"Z Z t.t.t.C W t.C Z Z t.t.W t.t.Z s * % I X.+.h.P.).T.V.<.@.+.5.7.5.$.+.@.;.:.:.-.@.4.3.} J 5 x V r.r.Z Z W W C C V V C C C C W ",
"Z Z Z Z Z Z t.Z Z Z t.t.t.Z u.u.Z z 2 1 I ..h.P.].[.[.].P.n.7.<.%.%.<.%.;.-.:.=.:.;.>.$...K 3 x N r.Z Z C W C C C C V V V C Z t.",
"C Z Z Z C C Z Z Z Z Z t.t.t.u.u.Z M t 1 I h.P.'.].[.[.[.[.T.Z.Z.A.m.Z.n.1.1.:.s.s.:.-.>.@.K 6 x V Z C Z W C t.W C C V V V C Z Z ",
"C C C Z C t.C Z Z C Z t.t.t.t.t.p.C x 6 T S.'.].].[.{.{.{.'.H.L.L.G.L.D.g.:.:.s.f.f.=.1.3.j 3 z V r.Z Z C t.C C t.C N N V C C t.",
"C C C C t.C Z Z W Z Z C t.u.t.t.t.C b q q a.(.[.].[.{.{.{.'.H.L.L.L.L.K.c.:.:.:.:.1.=.=.U 4 r c C r.Z Z t.C t.C t.C C C C C C C ",
"C N Z C C t.C t.C Z C t.p.t.t.t.Z C M c r w a.(.[.[.[.{.[.R.L.L.L.L.L.L.V.:.:.:.:.:.1.U 4 6 z B Z t.r.Z t.t.C t.C C C N C C C C ",
"C C C t.t.C t.C t.C t.W t.p.t.Z Z Z Z N x i u a./.].[.[.].H.L.L.L.L.L.L.D.g.:.:.:.=.Y 7 t x B Z Z Z Z Z C t.C C C C C C C C C C ",
"C C C C C t.t.C t.Z C t.p.p.t.Z Z Z Z W B z t q a./.].'.Y.H.L.L.L.L.L.L.K.b.:.-.&.P 7 t c B Z Z Z C C C Z C C C C V V C t.C C C ",
"N C C C t.C C C C Z C t.p.p.t.Z C C C t.Z B x 6 q a.U.R.H.G.L.L.L.L.L.L.L.n.g.=.P 7 t x B r.t.Z Z C C C C Z C C C C C C C t.C C ",
"N C C C C t.C t.C Z C t.t.t.t.t.C C C t.u.t.N c r q a.S.G.F.L.L.L.L.L.L.G.Z.d.P 7 u z V t.t.W Z C C C C t.C t.C C C C t.t.C C C ",
"C N C C t.C t.C t.C C t.p.t.t.t.t.W C t.u.W C N z i q e.k.k.z.z.x.x.x.x.x.k.R 7 t x N r.W.W t.C C Z C t.t.t.t.t.t.t.t.C C t.C C ",
"V M C Z t.Z t.Z t.C Z t.t.p.t.Z t.C C t.t.t.t.W V x u 6 q q q w w w w w w w 7 y j B Z t.t.W.t.C C C C t.t.Z t.t.t.C C C t.C t.C ",
"C C C C Z t.Z Z Z t.C Z p.t.t.Z C C t.t.t.t.t.W Z N x p p t p 6 p u i u p y s h B C Z t.p.p.W C C Z Z W t.t.t.t.t.t.t.C C t.t.C ",
"C C C Z t.t.Z Z t.C t.t.t.t.t.C Z t.t.t.p.p.p.p.W Z V n m m M n M n M m M m M V W t.t.t.t.t.t.Z W Z t.t.t.t.t.t.t.t.C C t.C C t.",
"C C C t.C t.t.t.Z t.Z t.t.t.t.t.C E t.t.p.p.p.t.t.t.t.W C C C t.C C C Z p.u.W u.t.Z t.t.t.t.t.Z C t.Z t.t.t.t.t.p.t.t.t.t.t.C t.",
"C C t.Z Z t.t.Z t.t.t.t.t.t.Z Z Z Z t.t.p.p.p.t.t.t.W Z t.C W W Z C C t.u.t.t.t.t.t.t.C t.Z t.t.C t.t.t.t.t.t.t.p.p.p.r.t.t.t.t.",
"C Z C Z t.Z t.t.t.t.t.t.t.t.t.Z Z Z Z t.p.p.t.t.Z Z Z Z C W t.C C C C Z W t.t.t.C t.t.t.t.t.t.Z W C Z t.t.t.t.t.p.p.p.p.C C C C ",
"C C t.C Z Z Z t.W t.t.t.Z t.Z t.Z Z t.t.p.p.W Z C C Z Z C C Z Z Z C C t.t.p.t.t.Z t.t.t.t.t.t.t.Z Z Z t.t.t.t.t.r.r.p.r.C C C t.",
"t.t.C t.C Z W t.t.t.t.t.t.t.t.Z Z Z Z t.t.t.t.C C C C Z C C C C Z Z C Z t.t.t.C C t.t.W.t.C Z t.Z C Z Z t.Z t.t.C t.t.t.C C C C "
};
