/* XPM */
static char *_c2f55a70cdd4d7dab58f9072ec250553FbKJ2Ci8gg79RER[] = {
/* columns rows colors chars-per-pixel */
"64 64 163 2 ",
"   c #171C17",
".  c #181D18",
"X  c #302E14",
"o  c #333114",
"O  c #433C14",
"+  c #5C4D12",
"@  c #665512",
"#  c #796216",
"$  c #74736F",
"%  c #777672",
"&  c #787773",
"*  c #7B7A76",
"=  c #7E7D7A",
"-  c #9D780D",
";  c #846D1B",
":  c #94771F",
">  c #987C1B",
",  c #997D22",
"<  c #987D2B",
"1  c #997E4F",
"2  c #957D55",
"3  c #997F52",
"4  c #977F59",
"5  c #A07F45",
"6  c #867A65",
"7  c #8B7D63",
"8  c #857F6D",
"9  c #827E74",
"0  c #807F7C",
"q  c #B88727",
"w  c #B38E26",
"e  c #B88827",
"r  c #BB8D2C",
"t  c #BF9926",
"y  c #BD942D",
"u  c #BB992C",
"i  c #AC8132",
"p  c #A38B3F",
"a  c #AC8A3F",
"s  c #B18837",
"d  c #BB8C34",
"f  c #BD9934",
"g  c #B59239",
"h  c #BB953B",
"j  c #BB9C3D",
"k  c #CC8703",
"l  c #CE8A03",
"z  c #C68308",
"x  c #CB870B",
"c  c #CC8D0D",
"v  c #D18701",
"b  c #D48A01",
"n  c #D98D01",
"m  c #CE9002",
"M  c #CF950D",
"N  c #D69402",
"B  c #DB9402",
"V  c #D59B02",
"C  c #DC9D02",
"Z  c #D4930D",
"A  c #DC920A",
"S  c #D3990E",
"D  c #DB9E0B",
"F  c #C58A15",
"G  c #CB9312",
"H  c #CF9A17",
"J  c #C3931B",
"K  c #CC9A1D",
"L  c #D09214",
"P  c #D39B12",
"I  c #D89D14",
"U  c #D49B1B",
"Y  c #D89F1F",
"T  c #E19403",
"R  c #E29D04",
"E  c #DEA103",
"W  c #DBA30E",
"Q  c #DCA90C",
"!  c #CFA11C",
"~  c #D6A414",
"^  c #DCA414",
"/  c #D3A51C",
"(  c #DFA318",
")  c #DAAB1D",
"_  c #E1A304",
"`  c #E8A307",
"'  c #E6AE01",
"]  c #E2A509",
"[  c #E6AA0B",
"{  c #E8AE0A",
"}  c #E7B103",
"|  c #E9B306",
" . c #EBB40A",
".. c #EEB80C",
"X. c #E0A316",
"o. c #E9AE10",
"O. c #EEB511",
"+. c #E1B118",
"@. c #E8B81B",
"#. c #C79B24",
"$. c #CB9E24",
"%. c #C1962A",
"&. c #C99328",
"*. c #C49C2C",
"=. c #C99F2F",
"-. c #C49C33",
";. c #CCA225",
":. c #CEA42B",
">. c #D0A523",
",. c #D5A921",
"<. c #D9AC24",
"1. c #D1A92A",
"2. c #DBB028",
"3. c #C6A130",
"4. c #CFA931",
"5. c #C1A23F",
"6. c #9F8947",
"7. c #9C844F",
"8. c #9D894E",
"9. c #9D8252",
"0. c #9E8B52",
"q. c #9A855B",
"w. c #9B8B5D",
"e. c #A58144",
"r. c #A38B43",
"t. c #A38A4D",
"y. c #AA8B4C",
"u. c #B28C41",
"i. c #AE9345",
"p. c #A6914D",
"a. c #AB924B",
"s. c #B29442",
"d. c #B49943",
"f. c #B49348",
"g. c #B79C4A",
"h. c #A38752",
"j. c #A28D54",
"k. c #A88A50",
"l. c #A18E5A",
"z. c #A79152",
"x. c #AB9452",
"c. c #A5915C",
"v. c #A9945C",
"b. c #BEA248",
"n. c #8F8164",
"m. c #8C836C",
"M. c #948664",
"N. c #988762",
"B. c #958865",
"V. c #9A8C63",
"C. c #92866A",
"Z. c #958A6B",
"A. c #998D69",
"S. c #9E9062",
"D. c #858176",
"F. c #8B8473",
"G. c #8F8873",
"H. c #82817D",
"J. c #89857A",
"K. c #8C887C",
"L. c #938B71",
"P. c #A09162",
"I. c #838380",
/* pixels */
"= = = = 0 = 0 0 I.= 0 0 I.0 I.= = * = 9 = = * * = * 0 = = 0 0 0 0 H.I.0 I.I.I.0 = 0 I.I.0 0 0 = & & = = = = I.I.I.I.I.= = = = = ",
"= = 0 = = 0 0 I.I.= 0 0 I.I.0 = * 0 0 * = * * = = = * = 9 0 = = = 0 0 0 0 I.I.0 = 0 0 I.0 0 = = = & = 0 = = = = 0 = = = = = = = ",
"= = = = = = 0 0 = 0 0 I.0 I.= = * * 9 * * * = = = = 9 = 0 = = 0 0 = H.0 0 I.I.0 0 I.I.0 0 0 = = 0 & = = = = = = I.0 0 I.= = I.= ",
"= = = = = 0 0 0 0 0 0 0 0 = = = * * * = * * * 0 0 0 = = 0 0 0 0 0 H.H.0 0 I.0 0 0 0 I.I.0 0 = = = 0 & = I.= = 0 I.0 I.0 I.= I.= ",
"= = = = = = 0 I.0 0 0 I.I.= = = = & * * = = = = = = 0 = 0 9 0 = = = = 0 I.I.0 0 0 I.I.I.I.= = = = = = = I.= 0 0 I.= I.I.= = = = ",
"= = 0 0 0 = 0 0 0 0 0 = = I.= = = = * * = = = = = = = = = = = 0 = = = 0 I.0 I.I.I.I.0 0 = = I.I.= = = = = I.= = = I.= = = I.= = ",
"* = 0 0 0 0 = 0 I.0 = I.I.= I.= 0 0 = = * = = = = * = = = 0 0 0 = = = 0 I.0 = I.I.0 I.0 0 = 0 0 I.= = I.I.= & = I.= I.= I.= I.= ",
"= = 0 0 0 0 0 = 0 0 I.= I.I.I.I.H.0 D.= * * * = = = 9 = 0 = 0 0 = = = I.0 I.0 0 I.0 0 0 0 I.0 H.0 0 0 0 = = = = = = = = I.I.I.= ",
"= = 0 0 0 0 0 0 = I.0 I.I.I.0 0 0 0 0 = = * % % * = = = = * 9 0 = = 0 0 0 J.I.I.0 0 H.H.H.H.H.0 0 0 0 0 = = = = & = = I.I.= = = ",
"= = = = 0 I.I.0 I.= 0 I.I.I.I.0 = = 9 n.0.0.8.8.8.h.j.j.j.0.h.j.B.w.c.P.v.v.v.v.v.v.v.P.Z.I.I.I.0 0 0 0 = = = & & = = = = = = = ",
"= = = = I.I.I.0 = = I.I.I.I.I.= = = 9 p G m M M M H M P S S S S P D ^ I X.X.X.X.X.X.X.Y f.J.0 I.0 0 = = = = & = = = = = = = = & ",
"& = = 0 0 I.I.0 0 I.I.I.I.I.I.I.= = = n.6.t N C C V V C V C C C R C R _ _ _ ` _ R R U y.Z.I.I.= 0 0 D.= = = = = = = = = % = = = ",
"= = = = I.I.0 I.0 I.I.G.Z.5 a k.S.V.V.V.0.*.' ' ' ' ' ' ' ' ' ' ' ' ' ' ' } ' ' } [ 3.P.P.V.V.w.5 < < 5 0 0 = = & = I.& I.= = & ",
"& = = = 0 0 0 0 = = H.j.; O + > ,.,./ / ! Q ' } ' ' ' ' ' ' } } ' } ' ' ' ' ' ' }  .+.,./ >./ ! : O O ; 9 0 = & = = = I.I.= = I.",
"& = 0 0 0 0 0 0 0 0 J.p + .   + t j d.g i.j ~ } ' ' ' ' ' ' ' } ' } } ' ' ' ' ' } +.-.d.d.d.d.%.@ . . + = 0 I.% % = = I.= I.I.I.",
"= = = = 0 0 0 0 0 0 H.8.# X o # 8.D.0 H.D.m.#.' ' ' ' ' } } ' ' ' ' } } ' ' ' '  .1.G.H.H.J.J.h.; o X ; I.I.= = % % = & I.I.= = ",
"& = & = I.I.I.0 0 0 0 7 d - , e.8 = H.H.I.J.s.[ ' ' } ' ' ' ' ' ' ' ' ' } ' ' | O.g.H.I.I.H.0 F.5 < - &.A.0 = = * & & = = 0 0 9 ",
"= & = = 0 I.I.I.0 I.0 J.-.Y l.J.0 0 H.I.I.J.j.Q ' ' ' ' ' } ' } } } } } ' ' '  .@.v.H.I.I.H.H.0 9 v.Y =.F.= 0 = = * * * = 9 = = ",
"& = & = = I.I.I.0 0 I.0 -.Y C.H.= 0 H.H.I.I.B.K ' ' ' | } { |  .} } | | } |  ...2.A.I.I.I.H.I.H.H.B.:.-.D.H.H.0 = = = = * 0 * * ",
"& & & 0 = I.0 I.I.I.0 I.c.<.d.C.9 0 H.I.I.H.F.r N N N N C C C R R _ R ` R ` ` ` -.G.I.I.I.I.0 0 F.h <.x.D.H.H.0 H.= = = 0 = * * ",
"& % & = I.I.= I.I.I.0 I.9 b.4.v.d.k.Z.J.I.H.G.s l l k k k v b b B n B B n B T T d F.I.I.I.C.j.i.-.) 5.L.H.H.H.H.0 0 0 = * * & & ",
"& % = = I.I.I.I.I.0 0 I.K.K.f.4 ,./ ;.x.K.J.y.H N N N N B N B B B C B R D C R B L u.h.C.z.#.~ / >.g.L.H.H.H.0 0 = * = = * * & & ",
"& & & I.I.= I.= 0 0 I.I.I.I.I.I.P.x.:./ j.C.%.E C _ B C B C C C C R ] R R ] R C C D K h / $.j.B.Z.J.0 H.H.H.H.0 * * = = * & $ $ ",
"% & & & I.I.I.I.I.I.I.I.I.I.I.I.I.J.V.;.$.s.P ] E E C V N C V C D W R ] C ] D ] C _ I ( 1.V.H.0 0 0 0 H.H.H.0 0 * = 9 * * & % % ",
"& % % = = I.I.I.I.I.= I.I.I.I.I.H.H.J.z.~ U E ] ] E C V C C C E _ _ C R C _ E ] E ] ] ^ x.0 0 0 0 0 H.H.H.0 H.H.9 = * = & & % % ",
"= = & = = I.I.= = = = = = I.I.= H.H.I.G.u V E E _ E C C V E E _ C C C C C C E E ] _ E f m.= = 0 = D.H.H.0 0 H.H.0 = = * & & $ $ ",
"= = 0 0 = I.I.= = = & = I.I.I.I.= H.H.H.y.D E E _ C E C E _ ] E C E C C C C ] ] [ [ K q.* = = = = 0 H.H.H.= H.H.H.0 = = & % $ $ ",
"& & = & = = = = % & = = = = I.I.0 H.H.I.N.K C E C C C _ ] E _ E E C V C C C ] ] [ ] r m.= = 0 = = 0 0 H.H.H.H.H.0 = = = & % % & ",
"= = = & = I.= = = = = = I.I.I.= = H.H.H.J.t.S E C E E E E E V E E C V C C C _ ] ] ] a * = 0 0 0 0 = 0 H.0 H.H.H.0 = = * * & * * ",
"& = = = = = I.I.= = = = I.I.I.I.= H.H.J.0 B.H E C E E E V C E E E C R E E _ ] ] [ ) 9.= = 0 0 0 0 = H.H.H.0 D.H.0 = = = * * * = ",
"I.I.= = & = I.= = = = = = = I.= H.H.H.H.I.F.g D E E E E E E E E C _ ] [ ] ] [ o.+.3.9 * = 0 H.0 0 0 H.H.H.0 0 D.H.0 9 = * * * = ",
"= = = = = & & = % = & I.I.I.I.I.H.H.H.H.0 H.C.y E _ E _ _ _ E ' _ ' { { {  .O.O.:.B.= * = = 0 H.0 D.= H.0 = H.0 0 = 0 * % % * = ",
"= = * = & * * = * * * H.0 H.H.H.= = = 0 0 0 F.p F M M M N V N V V _ R ] I I I U g 9 = = * = = = = = = = = H.0 0 0 9 = * % * * * ",
"= = * * * * * * = * * = 0 H.H.* = = * = 0 9 * n.2 2 2 1 e l m l N N N r 9.3 3 4 m.9 = = = = = = = = & & = 0 0 = = 0 * * % % * * ",
"* * = * * * * = * * * * H.H.H.H.= = = = = * * * & * * = 9.J V V V E J 0.= = = * = * D.H.H.H.= = * * = & = = = = = 0 9 * % % * * ",
"= * = = * * = = = = * H.H.H.H.H.0 = = = = 9 * * * * = * m.y E C ] { 3.m.= * = = = 0 0 H.J.I.= = = = * = 9 0 = = = = * * % * * * ",
"* * = = * * * = = = = J.H.H.I.H.0 0 * * * = = = * = = 0 8 q b B B T &.m.= * = = = H.H.H.H.H.H.0 = = = * = = = = * * * * % * * H.",
"* * * = * & * * = = 0 H.H.H.I.J.0 * 9 & * * * * 0 9 0 0 D.r.x b n A u.9 = * = = = 0 = H.= D.H.= = = * * = = = = * * * * * * H.H.",
"= * 9 = * * * * = = = 0 H.H.H.H.= = * * * * * & * = H.H.H.B.K ' [ / N.= = * * = = = 0 0 H.0 = H.= * * * 9 = = * * * * * * 0 H.H.",
"= = = = * * * & * * H.= * H.H.H.0 = 9 0 9 * % % * = 0 H.H.A./ | ..<.B.= * * * = = 0 0 0 0 0 = = = * * * = = * * * 0 0 * * 0 H.H.",
"= * = * = * * * * * = 9 = 0 0 0 H.0 H.= = * & * * * 9 H.H.A./ |  .<.N.= * = = = = 0 H.H.H.H.H.H.= * * = = = * * * * * 0 0 0 0 0 ",
"= = * * = * = * = * 0 0 0 H.0 0 0 H.= H.= 9 * * * * 9 0 H.V./ }  .~ N.= * = = = 9 0 H.H.I.H.H.H.* * = = = = = * * * * = 0 0 H.9 ",
"= = = = 0 0 * = 0 0 0 H.H.H.H.H.H.D.= = = * * * = = 0 0 0 l.~ } ' ~ w.= * = = = 0 0 H.H.H.H.H.H.= = = 0 H.= = * * * * * * 0 0 H.",
"D.0 0 0 * * * * * * * 0 H.H.H.H.0 H.= 0 = 9 * * * = = 0 0 a.Q E _ Q a.D.= 0 9 = 9 0 H.H.I.J.H.K.H.= 0 H.D.= = * & % & * * 0 0 H.",
"0 0 D.0 0 * * * * * = 0 0 0 J.H.0 0 0 9 = = = * * * * 9 m.*._ C E ' *.m.= H.= = = 0 H.H.I.H.K.I.D.0 0 0 0 = = = * & * & * = 0 H.",
"0 H.H.0 0 * 0 9 * * 0 H.0 0 0 H.H.0 H.H.= = = * & & * * 0.~ _ C E _ P j.= 0 = = 0 H.I.I.I.I.I.I.H.0 0 0 0 = = * * * & & * 9 = 0 ",
"= 0 0 0 * 0 0 0 * 0 0 H.I.0 0 0 0 0 H.= = = = 9 * * * m.u C _ C C _ C *.m.H.= = = 0 H.J.I.I.I.I.H.= = = H.= = = * * & & & * * 0 ",
"* * * * * = 0 = 9 0 0 H.H.J.H.H.0 H.H.0 0 = = = = = 9 r.S C ' C E ' R D a.D.= = = = H.H.I.I.I.I.D.= = = = * H.= 9 * & % & * = * ",
"* * 0 * * 0 9 * 0 * = 0 H.H.H.H.H.H.0 0 0 9 * * = = w.! _ _ } C _ | [ { ,.w.0 0 = = = H.I.I.I.I.H.= 0 = = = = = = = * % % * * * ",
"* = * 0 0 * * 0 0 = 9 0 H.H.H.H.H.= 0 0 0 0 * * = n.u Q ' [ ' ' [ }  .O.o.%.M.0 = = = H.H.I.I.H.H.H.H.= 9 0 0 * 0 * * * * * * = ",
"* * * * 0 0 = = 0 0 * 0 H.H.H.H.9 = 0 0 0 * * & 6 i l N n B B B B B T R R T d 7 = = = H.H.K.H.H.H.H.= = 0 0 0 = * * * * * * * * ",
"* * * 0 * 0 = = 0 * 0 0 H.H.H.H.0 * 0 0 0 m.m.n.i z v v b b b b n n n n n T T d Z.G.G.K.H.H.H.H.0 0 = = * 0 * * * * * * * * = * ",
"* * * = = = 9 0 = = = H.H.I.H.0 = = 9 D.w.w t t S C C C R C ` _ _ _ R R C R _ D t u u S.H.H.H.H.0 * * * 0 * * * * & & * * * * * ",
"* % * 9 = = * 0 = = = H.H.K.H.= * * = H.8.F k t c c Z S Z Z Z Z A Z Z Z Z M Z Z V ~ G p.K.H.H.= 0 * * * * * = * * & * * = 0 9 * ",
"% % * * = = 0 * = * = H.H.H.H.H.= * = H.m.4 8.7.1 1 1 3 h.3 1 1 1 1 1 3 9.9.7.q.7.8.w.m.H.H.H.= * * * * 0 9 0 = = * * = = = = * ",
"% * * * 0 = = 0 = = = H.H.H.H.H.0 * = 0 H.= 9 * = * * = = 0 9 & & & * = H.H.0 0 = H.H.H.K.H.H.= * * * 0 0 0 0 H.0 = 0 9 = = = * ",
"& & * = = H.= = 9 = = H.H.H.H.= 0 = = 0 H.H.0 0 0 * * * = = = * * * * = H.J.I.H.H.H.H.H.H.K.H.* = * = = H.= H.H.H.H.0 * 0 = = * ",
"& * * * H.H.= = H.= = = H.H.H.= = * 0 0 I.H.H.H.0 * * & = = 9 = * * * = H.H.H.I.H.H.* H.H.H.H.* * * = H.H.H.H.H.H.0 0 * * 9 0 0 ",
"& * * H.= H.= H.= = = H.H.H.= = * * 0 H.I.I.H.H.0 0 = = = = 0 = = * = 9 0 H.H.H.H.9 = H.H.H.H.* = = = H.H.H.H.H.H.H.H.= 9 0 0 0 ",
"* * 9 = = H.= H.H.H.9 H.H.H.H.= 9 = 0 J.J.I.I.J.D.0 = = = 0 0 0 = = = = H.H.H.H.H.H.H.= H.H.H.H.= = = H.H.H.H.H.H.H.H.0 0 0 0 * ",
"* * H.H.H.H.H.H.H.= H.H.H.H.H.= = = 0 H.K.I.H.H.H.H.0 = = 0 0 0 0 * * 0 0 H.H.H.H.H.H.H.H.H.= H.* = 9 H.H.H.H.H.I.I.H.H.0 H.0 0 ",
"H.* H.* = H.H.H.H.H.H.H.H.H.H.= = 9 0 H.I.I.J.0 0 0 0 = = = 9 = * * * 0 H.H.H.H.= H.H.= H.H.H.H.= = = H.H.H.H.H.H.K.H.H.H.0 0 = ",
"= * * H.= = H.H.H.H.K.H.H.H.H.= = 0 H.H.H.H.0 0 * * = 9 * * = = * * * 0 H.H.H.H.H.= H.H.H.H.H.H.= = = H.H.H.H.H.H.H.H.H.0 * * = ",
"* H.* * * = H.H.H.H.H.H.= H.= 9 = 0 = H.H.H.D.* & * = = * * * 9 * 0 * 0 D.H.H.H.* 9 H.H.H.H.H.= = = = 9 H.H.= H.= H.H.H.9 * * * "
};
