/* XPM */
static char *_5887ed8381b40cdfcd0819cda2f382abfLfXTxmZrRR912I[] = {
/* columns rows colors chars-per-pixel */
"64 64 109 2 ",
"   c #74736E",
".  c #767572",
"X  c #787773",
"o  c #7B7A76",
"O  c #7E7D7A",
"+  c #807F7C",
"@  c #7E817E",
"#  c #82817E",
"$  c #3B92B5",
"%  c #7D8685",
"&  c #77898C",
"*  c #7D8A8C",
"=  c #758D93",
"-  c #7B8E92",
";  c #5E95AC",
":  c #4B96B6",
">  c #4E98B6",
",  c #4597B9",
"<  c #4C9ABB",
"1  c #5A9AB4",
"2  c #5A9FBB",
"3  c #6695A1",
"4  c #6D9AA7",
"5  c #6A9AAD",
"6  c #7295A1",
"7  c #7997A3",
"8  c #749DAD",
"9  c #789DAD",
"0  c #659CB3",
"q  c #56A0BF",
"w  c #63A4BE",
"e  c #6AA4BC",
"r  c #6BA8BF",
"t  c #7CA6B7",
"y  c #72A4B9",
"u  c #7CABBD",
"i  c #57A1C0",
"p  c #5EA5C2",
"a  c #62A6C2",
"s  c #73ADC3",
"d  c #7AAEC2",
"f  c #72AFC8",
"g  c #7BB2C6",
"h  c #848481",
"j  c #888784",
"k  c #848986",
"l  c #8A8986",
"z  c #858B8A",
"x  c #8D8C8A",
"c  c #908F8D",
"v  c #8D908D",
"b  c #91918E",
"n  c #848E90",
"m  c #85969B",
"M  c #8A9799",
"N  c #949493",
"B  c #989795",
"V  c #999897",
"C  c #939799",
"Z  c #9C9C9B",
"A  c #A09F9E",
"S  c #A1A09F",
"D  c #859DA2",
"F  c #819AA5",
"G  c #949FA1",
"H  c #87A1A8",
"J  c #87A1AC",
"K  c #9BA3A4",
"L  c #94A6AC",
"P  c #9FA7AA",
"I  c #85A7B5",
"U  c #8CA6B0",
"Y  c #8FA8B0",
"T  c #85ACBB",
"R  c #8BB1BF",
"E  c #9DB3BB",
"W  c #A3A3A3",
"Q  c #A4A4A3",
"!  c #A5A5A5",
"~  c #A7A8A7",
"^  c #A8A8A7",
"/  c #A9A9A9",
"(  c #ABABAB",
")  c #ADADAB",
"_  c #ACACAC",
"`  c #B0AFAF",
"'  c #A6AFB1",
"]  c #A8B2B7",
"[  c #A1B4BB",
"{  c #A5B7BD",
"}  c #B3B2B2",
"|  c #B2B3B4",
" . c #B5B5B4",
".. c #B6B6B6",
"X. c #B7B8B8",
"o. c #B4BBBD",
"O. c gray72",
"+. c #82B1C3",
"@. c #8FB3C0",
"#. c #82B6CC",
"$. c #92B7C6",
"%. c #86BBD1",
"&. c #B1BEC3",
"*. c #99C5D8",
"=. c #B1C6CF",
"-. c #A3CADA",
";. c #ABCEDC",
":. c #BBD6E1",
">. c #C2DAE4",
/* pixels */
"O O O O O O @ + @ h + + h + + + + + + + + + + +   + +   + + + + + + + + + + + + + + + h + + O O . . O @ + O + + % + + O O O O % ",
"O O O O O + + + O O + h @ h + +   + +   +     + + + + + + + + + + + + + + + + + + + h + + + O O O O O O + O O + + + + + O O O O ",
"O O O O O + + @ + @ + @ + + + O + + + + + +   + + + + + + +   + + + + + + + + + + + h + + + O O O O O @ + + O + h + + + + O O O ",
"O O O @ + + + + + + + + % O O O   +   +   + + + +   + + + + + + + + + + + + + + + h + h + + O O O . O @ + O O % h + h + + O O % ",
"O O O O O O + @ + + h @ + + O O   + +   + + + + + + +   + + + + + + + + + + + + + h + + + + + + . O O + + O O O + + + * + + + O ",
"O O @ O O O + + + + + + + + O O + +   + +   + + +   + + + + + + + + + + + + + + + h h + + + + + @ O O O % O O O + + + + + O O O ",
"O O @ @ O O O + + + + + @ + + + + + + +   + + + +   + + + + + + + + + + + + + + h @ h @ + + + + + @ O % O O O O + + + + + O O O ",
"O O O @ @ + @ + + + h @ @ h h + + + + +   +   + + + + + + + + + + + + j + + + + + + h @ @ + + + + + + + O O O O + + + + + % + O ",
"O O + + + + + + + + @ @ h h + + + + + + +     + o O O O O o O O +   + + h h h h O O h + h + + h + O & O + . O O O O + & + + + + ",
"O O O O + h + h + + @ h h h h + + + + + + + +   X o O o o o o O + + + # j + h O h O + h @ h h @ + O O + + + . . . O O O + + O O ",
"O O O O + h + + + + h h h h + + O O O O + +   + o o O o o O h j b b b A b h h h + + h + @ @ h h + + + O + O O O O O O O O O . O ",
". O O O h + h h + h + h h h h + O O O O   + +   o o o o h B A W } O.} ` A j h h h h + h h h + + + + + O + O + + O O O O . O . O ",
"O O O & + % + + + + + h h h + + + + O O o O O o o o o O A ` C W ....} ( B j + + + @ h h h h + + + + + O O O O . O + + + + O O O ",
"O . O O O % + + + + h h h h h + + O O O O o o o X o + c ` ..Z ! ` ` ( A j + + h + h h h z h + O + + O O O O . + O + + + + + + + ",
". O O O + + + + + + + h h h + + O O + + O o o o X + B _ | ` ` ` ` ` ( Z j O + + h + + + h h + + h + & + + & O . . O + + + + + + ",
"O O O O + + + + + + + h + h + + O O O + + + O o o j B A ! ` ` ` ` ` ( Z h + O + h + + + + h + + + + + + + + O O . . O + + + & + ",
". O . & O h + + h + + + h h h + O + + h h h + O O + + h B } | ` ` ` ` C h + + h h + h + h + + + + + + + + + O . . O O O O O + O ",
"O . O O + + h h + h + h h h h + O + + h h h + O O O O O B } ..} } } ` Z h + h + + h + h h + + + + + + + h + + O + . . O O O O O ",
". O O O + h h h h + + + + h + + + + h h h h + O O O O h A ..| ] ] ] ] W j h h + + + + h + h h + + + + h + + + + + . O O O + O . ",
"O . . O + + + h + + + + h + h + O + + + h h + + + h j C ` ] $.+.a 0 I P C h h + + h h + h h + h + + h + + + + + + + + O O O O . ",
". . . O + h h h h + + h h + + + + h h h h h h j C C P | E t a a q , : 9 C C n z n h h h h + + + + h + h + h + + + + + + O O . . ",
". . O O + % + + h + + h h h h + + + + h h x C F 7 ; J P t a i i q : , : F F ; 7 7 n h h h + h + + + + h + + + + O + + O . . . . ",
". O O + + h h + + h + h + h h h h + h j n 7 7 ; 6 = C U f a a e i < i < 9 C 7 7 = ; ; n h h + + h + h + h + + + . + O O O . . . ",
". . . + + + h + h + + + h h + h h j n 7 7 7 7 j h h C U y f #.+.a , q , ; C x x C m 7 ; 7 n h O + + + h h + + O . O + O . . . . ",
". . . + h + h h + + h + h + h h j n 7 7 x c C j h x C L y f #.+.a < : < 0 C c j c W C x 7 7 n h + + h h + + + + O O O . O . . . ",
"& . . + + + h + + + + + h h h h F 7 7 h c B c j j c C ] d f #.f i < < i t C C x h c C j x F 7 F h h + + + + + + O O O . . . . . ",
"O O O O + + + O O O O O + h h 7 7 C h h B A j j C x W &.=.*.#.#.a q a %.&.C j C h + B c h C C 9 n h + + + + + h + O O O . . . . ",
"O . O O O O O O O . O O + h 7 7 F x h C A x j B c h Z &.:.:.-.*.f %.*.*.=.W h c c O h C x h C P F n h h + + + h + O O O . . . . ",
". O O O O O O O O . . + h 7 7 C C h j A C h c B j h W &.:.>.=.*.#.*.;.;.=.( h h B h + x C h j W C F 7 h + + h h + . O O . . O O ",
"O O O . O O & + O O O + h = x C j h B A h h B c + + Z &.:.=.*.#.a a #.*.=.( h # C c + + C c h c C C 7 * + + + + + O O O . . . O ",
"O O O & O + + O O & . h 7 * C C h j Z c + j B x + h C ] $.#.#.f a < < q $.( h + c A h O c A j h C C n 7 h + + h + + O . O . O O ",
"O O O O . O + O O . + ; & n C h h c C j h c B h + h C P y f f #.q < , , y P h + h C j O h A c h c C x n h + + + + + O O . . O O ",
"# o # # #     @ @ @ % k l b V # # V v # # B v @ @ o B Y w r s g a , , $ ; C h O + c c + + c B h h A c l - % + + + O O X X X O O ",
"o #         # o @ @ & v l B c o l V # o # V # o o k K [ r w r r i < , $ 9 C + O + j B + O j A j + c A j n * @ + + O O X X X X + ",
"#     # #   @ o @ @ v @ v B l # v v # o l v @ l v Q ) o.@.r r w i q , 1 P W C x j h c j + h A c + j A j z m % O O + O X X X o o ",
"o # # o @ #   @ @ @ v # b b # # b v o @ l B S ) ..X...o.{ @.g s i q 1 J W W ^ ( ! B B c h + c c + + A N + m * O O O O X X X o o ",
"# # o # @ @   @ @ - k @ V v # # v l # l S ..} X.} ) ) ~ ) ) ' Y 5 7 C B C Z W ! ` ( ( B c + j c + + c A + x n + . + + X X X + + ",
"  o o o   @ @   @ & @ v S v # # l l V ) } ..) ) S v v v v v K S x h h h h j x C A ( ( _ ! B c N + + j A j j m + + + X . X + + + ",
"o o #       @ @ k k @ v S # # # b S ) ..) ) v l # # @ @ o k v v j h + O O O + h j c A ! / / A A + + + B x + c j . + + X + + + # ",
"# o # # @ @   @ k @ @ v V # # b ) } ) ) V l o X o o @ @ k k K H F j O O O O . O O + j c A / _ ! j + + c c + j x + . X + X + # # ",
"o o o # o o o # l # # v v # b ) ) ) S l # o   o o o # # l S T r 0 7 O O O O . O O O + h x B ! ( A x # b c # # b + + + + X + + + ",
"# o o o o o o # v o # l l v ) ) ) V # # o o o o o o o # v K r 2 2 0 * O X O O O O + h + j j c A ^ A l l l # # B h . X + + + + + ",
"# o o o # o # # l # # v b S ) Q v # o o # o o o o # # o v Y r 2 < 0 n O O O O O + + + h # # # x S ^ A b x # # b l . X + + + + + ",
"# o # # o # # # l o # b S ) S l # # # # o o o o o # o # # V Y r 1 7 h O O O O O + + + + # # # # x S ( A b # + B c + + X + + + + ",
"# o o # # # o # # o # S ) S l # # # # o # o o o o o o # o v G Y F k + O O + O O + + # + h # + + # x A ^ A + + b c     + + + + + ",
"# # # # o o # # l o l S S v # # o # # # o # o o o X o o # # v K c + + O + + O O + + # h h h j # + # b Q W # + b c + +   X + + + ",
"o # # o # # # b l # B Q b # # # # # # o o # # o o o o # # k G H - + + O O + O O + + h h h j h # # # # N A B # c c + +       + + ",
"# o # o o # # b l v S B # # # o # # # # # o # o o o o o o v Y r ; n + + + O O O O + + h h h j # O O O j A A # c # +     + + + + ",
"o o # o o o # v v B S v # # # # # # # # o o o o # # o o @ V R w 4 S # o o # o # # # # # # # # # # o + # c S b c l o X X X o # o ",
"o o o o # o # l b S b # # # # # # # # # # # o o o # o o @ K u w 2 # # o # o # o X # # # # # # # # O # o # N Z N l @ o X X o o # ",
"# o o # # o o v S S # # # # # # # o # o o o o o o o o o @ G R 3 > 3 # o o # o o # # # # # # # # # # # o # l V V l # o X o o o o ",
"o o o o o # # l S b # # # # # # o # o # # o # o o o o o @ v Y D p @ o o # o # # X # # # # # # # # # o # # # b V # o o X o o o o ",
"o X o # # o o # B c o # # # # # # o # # o o o o   o o o o l S ) 8 @ @ @ # # # o # # # # # # # # + o o # o # x N # X X o o o o o ",
"X o o o o # # # l # o # # # # # o o # # # o o o o     o o o c S M @ @ @ # # # # # # # # # # # # o o o o o o # x # X o o # o o o ",
"X X o o # o o # # # # # # # # o o o o # # # # o o   o o o # o # @   @ @ o # # o # # # # # # # # o o o o o o # # o X o o # o # o ",
"o X o o o # # o # o o # # # # # # o o # # # # o o o o o # o o o   @ @ @ # # # # o # # # # #   # + o o + # + # # # o o # o # o X ",
"o o o o o # # o o o # # # # # # # o o # # # # o # o o o # #   # @     # # # # # # # # # # # #     # #   # # # # # # # o # X @   ",
"o o o o # # o o o # o o # # # o o # # # # # o # o o X #   # #   @   @ @ # # # # # # # # # # # # #   # # # # # # # # # o o # + # ",
"o o o # # # o # # # o # # # # o o o # # # l # # # o   o # #   # @   @   # # # # # # + # # # #   #   # # # # # # # + o o + X + X ",
"  o o # o # o # # o # # # # # # o o # # # # # # # # # #   # # #   @ @ @ # # # # # #   + # # # # # # # # # # # # # # # o + + # # ",
"o o o # # # o # # o # # # # # o o # # # # # # # # # o o # # # # # # # # #   # # # # + # # # # @ + # # # # # # # # # # # + + + + ",
"o o # o # # # # # # # # # # # # o # # # # # # # # # o # #     #     #   # # # # + # + + # + # # +   # # # # # # # # # # # + + + ",
"o # o # # o o # # # # # # # o # # o # # # # # # # # # o # # # # #   # # # # # # + + + # # # # #   # # # # # # # # # # # # # X # ",
"o o # o o # # # # # # # # # o # # l # # # # # o o o o #   #   #   #   # # # # # + + # # # # # # # #   # # # # # # # # # + #   + "
};
