/* XPM */
static char *f10118ad60f34bdcf9ab34e4bbf128d6c81zB3q7NwEynnhf[] = {
/* columns rows colors chars-per-pixel */
"64 64 114 2 ",
"   c #060606",
".  c #0C0C0C",
"X  c #111111",
"o  c #1E1E1E",
"O  c #20201F",
"+  c #232323",
"@  c #2D2D2C",
"#  c #30302F",
"$  c #353434",
"%  c #383736",
"&  c #383837",
"*  c #3D3D3C",
"=  c #413F39",
"-  c #4C4537",
";  c #40403F",
":  c #504634",
">  c #50493A",
",  c #6E572A",
"<  c #765C2D",
"1  c #745E34",
"2  c #7F612A",
"3  c #424241",
"4  c #494847",
"5  c #4B4B4A",
"6  c #565656",
"7  c #5C5B5B",
"8  c #635843",
"9  c #645B49",
"0  c #605F5E",
"q  c #61615E",
"w  c #636361",
"e  c #686764",
"r  c #6F6F6B",
"t  c #706F6C",
"y  c #73726E",
"u  c #767572",
"i  c #787774",
"p  c #7B7A76",
"a  c #7E7D7A",
"s  c #826226",
"d  c #87682F",
"f  c #8C6E36",
"g  c #826C45",
"h  c #887655",
"j  c #8F7F62",
"k  c #857F73",
"l  c #827E74",
"z  c #807F7A",
"x  c #807F7B",
"c  c #807F7D",
"v  c #807F7E",
"b  c #BB831B",
"n  c #BA8522",
"m  c #AD863C",
"M  c #AE873C",
"N  c #BE8E35",
"B  c #B58B3E",
"V  c #C58A18",
"C  c #CA8C18",
"Z  c #DF9913",
"A  c #DF9A17",
"S  c #D4951D",
"D  c #DC9A1D",
"F  c #DD9E25",
"G  c #CA9638",
"H  c #CD9839",
"J  c #CA983C",
"K  c #92815F",
"L  c #B58F49",
"P  c #A78B57",
"I  c #8C8473",
"U  c #8B8374",
"Y  c #81807B",
"T  c #85817A",
"R  c #81817D",
"E  c #82817D",
"W  c #80807E",
"Q  c #81807E",
"!  c #81807F",
"~  c #83827E",
"^  c #84837F",
"/  c #8B8579",
"(  c #928772",
")  c #948772",
"_  c #958B75",
"`  c #A48B60",
"'  c #B39662",
"]  c #CB9A41",
"[  c #CEAF74",
"{  c #E6C27E",
"}  c #828180",
"|  c #848381",
" . c #848480",
".. c #858480",
"X. c #858482",
"o. c #8E8D8B",
"O. c #93918E",
"+. c #9A9A97",
"@. c #A9A9A9",
"#. c #BBBBBA",
"$. c #C0BFBE",
"%. c #DFC491",
"&. c #EAC683",
"*. c #C1C0BF",
"=. c #D2CAB9",
"-. c #CCCCCC",
";. c #D3D3D2",
":. c #D8D7D3",
">. c #E2E2E2",
",. c #F2F0ED",
"<. c #F5F4F2",
"1. c #F9F8F5",
"2. c #F7F7F8",
"3. c #FCFCFC",
/* pixels */
"a a a a a v v v v v a } } } v a a a a x a p p p p x p x R a R R R a R a R | ! ! a a } } Q Q a a a p p a v a a v v v v v v a a a ",
"a a a a a v v v v a } a } } v a p a a p p p a a a p p l a a l a a R } a v | | } a Q } } Q a a a a a i a v a i v } v v v a a v a ",
"v a a a a a v a a a v } } } a p p a l a p p x x a a a x a a Y a a a R } R ! } ! a } } } Q a a a a a a a v a i a } } a v v a a v ",
"a a a a a v v v v v v } } a a p p p p p a p p x a x a x a l R E R R ! a ! } ! a Q Q X.Q a } a a a p a v v v v v v } } v v v v v ",
"a v p v a v v v v v Q Q v a a a a p i a a a a a a a a a a a a a a a a ! ! R a ! Q Q X.} v v a R a i a v v a a v v v v v v v a a ",
"p a v v v p v v Q v v Q } a a a x x p p p a x a a p a a Q a E a a a a a ! | | | Q } } Q v a v a v v a a v v v v a v a v v v v a ",
"p a v v v p v v x v v Q } } } } a E x p p l x x p a a a a a E E a a a ! } R ! a Q Q Q Q v v R } v v a v a a i v v v v v v v a a ",
"v a v v v v v a v a v } } } } a x Q a a p p a p l a l a Q l a a a a a R ! } ! ! Q Q Q } } a Q Q v v v v v a a i a a v v v v v v ",
"a a a a Q Q Q Q a v Q } | | Q v a a a a a p i i p a a a p p a a p p v v } } } } } ! ! ! Q Q Q Q v v v v p v p p p p v v v v v v ",
"a a a a Q } Q Q x v Q ^ | Q Q x a a a a a p p i i p a p a p p x a ! v ! ! ! } } } ! } ! } ! Q | v v p v v p v p p p p a a i i a ",
"a a a v Q } Q Q v Q Q | X.^ } Q a a a u r y y y r r t y t y y y u y u u p p u i T ` ' ' P K Q } v v p v v i p p a a a a v i a i ",
"p a a Q } Q } Q v Q Q X.X.X.Q Q Q a w ; * ; 4 4 4 4 4 5 5 5 5 5 5 5 5 4 5 5 5 5 8 f N F S M U } v v v v v v v p a a a v v v i v ",
"p p a v Q Q Q } Q Q Q X.X.| Q Q E i 4 o O # * * * * * ; ; ; * * * * * * * * * * & ; < C Z G ( a v v v v v v a a a a v v v a i v ",
"p v v v Q Q a Q v Q Q | | ^ Q v Q u & X O $ * * * ; 3 ; 3 3 3 ; ; ; 3 ; ; ; ; ; ; * - s b H ( a p v v a a a a i i p a v v a v v ",
"a p p v v a a a x v Q Q | Q Q v a y & . O * 3 3 3 3 3 3 4 3 3 4 3 3 3 3 3 ; 3 3 ; ; ; * < B ( a v } v a v v v i i p a v v v v v ",
"a a p v v Q Q Q a v Q Q | Q Q x a y $ . O & 3 3 3 3 3 3 3 3 3 3 3 3 3 3 ; 3 3 3 ; 3 3 * : g U a v v v v v v v p i i p p v v v v ",
"i i i v v } } } Q Q Q Q X.Q ^ Q Q y # . O & ; ; 3 3 3 3 3 3 3 3 3 3 3 3 3 3 3 ; ; 3 ; * & 7 a Q a p v v T Q Y z p p p p z E a a ",
"i a i v v Q } } Q Q Q Q Q X.Q Q Q y # . + * 3 3 3 3 3 4 3 4 4 3 3 3 3 3 ; * 3 3 ; ; 3 ; * q v Q v v a v E a a a a p p p p a z z ",
"i p v v } } } } Q Q Q | X.| Q Q E u & X + = 3 3 3 3 3 3 3 3 4 4 3 3 * 3 3 * ; ; 3 ; ; ; * 0 v v v ! } a E E E a a z p a z z z p ",
"i i i v } } } } Q Q Q Q Q Q Q Q E y & X + ; 3 3 3 3 ; 3 3 3 3 3 3 3 3 3 3 3 ; ; ; 3 ; ; & 0 v v Q } X.} E E Q E E a a a p p p p ",
"u u a } Q } } } Q Q Q Q X.Q Q Q ^ i & X + 3 3 ; 3 3 3 ; 3 3 3 3 3 3 3 3 ; ; ; ; ; ; ; ; * 7 Q v Q Q ~ ~ E E E E E a a a a p p p ",
"u p p a } v } } Q Q Q | Q X.Q } ^ i & X @ * 3 3 3 ; ; ; * 3 ; ; 3 3 3 3 ; ; ; 3 3 3 3 ; * 7 } } Q Q ~ ~ ~ E E E a a a l z u u y ",
"u i p a a } } } Q Q Q Q X.| } } ^ u $ . @ * ; 3 3 ; ; 3 3 3 ; ; 3 3 3 3 3 ; ; 3 3 3 3 * * w a } a E ~ ~ ~ ~ E a p a a a Y u u u ",
"u i p a } } } } Q Q Q Q | } ! } ^ u @ . + * ; 3 ; ; 3 3 3 3 4 3 3 3 3 3 ; ; 3 ; 3 3 3 3 * w } a a Q ~ ~ ~ Q a a a p a a p p u y ",
"i i i v v v v } ! } ! ! } } } } ^ y #   + * 3 3 3 3 3 3 3 ; 4 3 3 3 3 ; 3 3 3 3 3 3 3 ; ; q a a a ~ Y ~ T E z R T p p p p p u u ",
"a a i v v v v v a p v v } } } } Q y #   + * 3 3 3 3 3 3 ; ; ; ; 3 ; ; 3 3 3 3 3 ; 5 3 * & 7 a } a a ~ T E a R E Y a a a p u y y ",
"i v a v v v v v a p p v v } } ! Q y @ . @ & ; 3 3 3 3 3 ; ; 3 ; 3 ; 3 3 3 3 3 3 3 3 3 ; * 7 a a a ~ E R E E R R Y Y a a p u y y ",
"v i a i a a v i i p p a v } } ! Q y # . + & ; 3 3 3 3 3 ; 4 3 ; 3 ; ; 3 3 3 3 3 3 3 3 3 3 q a a a a a ~ R a E ~ Y a a p p u u p ",
"i v i a v v v v a a v p v v ! ! l y # X + & * 3 3 3 4 ; ; ; 4 ; 3 * 3 3 3 3 ; 3 3 3 3 ; * 0 a a a a ~ ~ Q a E ~ Y a a p p p p p ",
"i v v a v a v v a a p v v v } v Q y # X + * ; 3 4 3 3 3 ; 4 ; 3 3 3 3 3 3 3 * 3 3 ; * ; * 0 Q R Y a Y ~ Q a Y R Y a l a p p p p ",
"v v i v i v v v a v v v ! } } } Q y # . @ * ; 3 3 3 3 ; ; ; ; 3 3 3 3 * ; ; 3 3 3 3 3 * * 7 a Q a R ~ Y R Y R R R R a a p p p l ",
"v v v i i i v i i i i v v } } } Q y @ . @ * ; 3 3 3 3 4 3 4 ; 3 3 3 3 ; ; 3 ; 3 3 3 3 * * 0 a R Q a ~ Y R R a R R a l p p u p p ",
"a a a p p p p p p p Y Q a ~ ~ ~ R r @ X @ * ; ; ; 3 3 3 3 3 3 3 3 3 3 3 3 3 3 3 3 3 3 * * q p a a a a p a Q E a a a a p u u p T ",
"a p p p u p p p p p p a a a ~ a a r # . + * * ; 3 3 4 4 4 4 3 3 3 * 3 3 3 3 3 3 3 3 3 * & 7 a x a a p p a Q E l a E a p u u p p ",
"p p p a p p p Y Y p p a ~ ~ a a a r # . + * ; 3 3 3 3 3 3 4 3 3 3 3 3 3 3 3 3 3 3 3 3 * & 7 x p p p p p a a a a a Y a p u u p p ",
"p Y Y a a p Y p p p a Y ~ ~ ~ ~ R y #   O * * ; 3 3 3 4 3 3 4 3 3 3 3 3 3 * 3 3 3 3 3 * * q x a l a p p a a a l l a a p u y p p ",
"a p a a p p Y Y a a a Y ~ ~ ~ ~ R r @   + & * ; 3 3 3 3 3 4 3 4 3 3 3 3 3 3 3 3 3 ; ; * ; q E a x a a p a a a a a Y p p u p Y a ",
"p p a a p p p p a a Q Y ~ ~ ~ ~ a u @   O * ; 3 3 3 3 4 3 3 3 3 3 3 3 3 3 * * 3 3 3 * * ; q a E x a p p a l a a p p p p p p a Q ",
"p p a a p u p p a a a Y Y ~ ~ ~ a y @   + * 3 3 3 3 3 3 3 4 3 3 3 3 3 3 3 3 3 3 3 3 * * ; q x a l a p p p a a p p p Y p i Y Q R ",
"a a a a p p p p p a Y a a E ~ ~ R u #   + * 3 3 3 3 3 3 3 3 3 3 3 3 * 3 3 * 3 3 3 3 ; * = q Q a a a p p p a a p p p i T i R ~ ~ ",
"p p p a a p p u p p z z z z Y a R u @   o & ; 3 3 3 3 3 3 3 3 3 3 3 3 3 3 3 3 3 3 3 3 3 * q ^ a l p p a a a a p u a p z z z Y R ",
"z a p a a a p a z a z a Y a a a R y @   o & * 3 3 3 ; 3 3 3 3 3 3 3 3 3 3 3 3 3 3 3 3 3 3 q ^ Q a p a R a l p p p i i z z Y R a ",
"z a a l a l p a a a Y E Y ~ a Y R y @   o $ * 3 3 3 3 3 3 3 3 3 3 3 3 3 3 3 3 3 3 3 3 3 ; e v x a a a a R a a a i p p p a a R R ",
"z z z z a a p p p a a T Y ~ ~ ~ R y @   o & * * 3 3 * 3 3 3 3 3 3 3 3 3 3 3 3 3 3 3 3 * ; q a v R l R a R a a p p p u i p l R R ",
"a Y R Y a l p p u p E a Y Q Q ~ R u # . + & * * ; ; 3 3 3 3 3 ; 3 3 3 3 3 3 3 3 3 3 ; * > h / | a R a R a a a a p i i i p a a R ",
"a R R Y a a a p p E a a Q ~ ~ Q a i #   O & * ; ; ; * 3 ; ; ; ; * 3 3 3 3 3 3 3 3 * * * 1 L _ | Y a a R R a a a p p p i p p a R ",
"a E a a a a E a a a E E ~ E Q a ! i #   O & * * * * ; * ; ; ; ; 3 3 3 3 3 3 3 3 3 * 3 2 n ] _ | R R a a a a a a T i i i u p a a ",
"a a a p a a a a a a E E Q E } a ! r $ . O $ & & * * * * * & & * * * * & * * * * * * , V D J ( | R a a a l l p a a Y i i u u p a ",
"l p a a a a a a a a a R ~ ~ ~ ~ R u * # 4 6 7 7 7 7 7 7 7 6 6 7 6 6 6 6 7 6 7 6 9 d n A D M I X.R z z p a R l a a a p u u p p T ",
"a p p a Y a a a a a a R ~ ~ ~ ~ R u u @.-.-.-.-.-.-.-.;.;.-.-.-.-.-.-.-.-.-.-.-.=.%.&.{ [ K T ~ ~ R p Y a R a a a a p p u p p p ",
"p a a a a a a a p a a Y ~ R Y Y Y Y #.,.3.3.3.3.3.3.3.3.3.2.2.3.3.3.3.3.3.3.3.3.3.1.<.,.:.O.a ~ R R ~ Y a a p T a a p u u u p p ",
"p p p p p U a a a a a a | ~ Y Y R R $.1.3.3.3.3.3.3.3.3.3.3.3.3.3.3.3.3.3.3.3.3.3.3.3.3.>.+.~ ~ R Y a a Y p Y p p p p p p Y p p ",
"p p p l a a a a Y p z R ~ ^ R R Y a o.#.;.;.;.;.;.-.;.;.;.;.:.:.;.;.;.;.;.;.;.;.;.;.;.;.$.O.a a Y p Y a a p p p a i u p Y a a i ",
"u u p Y a a a a p Y p R ^ ^ R Y p p u y i p p p u u u u u p i i p u y u u p p u p u u p p a ~ a z p p a a p p Y i u p i p z z p ",
"p p i i a E a a a a R R R ~ R U p p z z p i u i u y y u u u u y y y y u u p p u p u Y a Y Y a a p p p p p a a p z p i z Y a a a ",
"u i a a a a Y p l a Y R ~ Y Y p Y i p R R T p Y Y p p a a R p i p p p a ~ ~ E a a Y E Q ~ R Y z a p p a a a T Y R z a z a a Y u ",
"u u Y a Y a a a a a a R ~ ~ ~ a a a a R ~ R Y Y a Y p p a a p p p u p a Q ~ ~ ~ a Y ~ ~ ~ ~ Y Y p p a a a Y z R R z a a a l a a ",
"p p p a ~ Y a a a a a R ~ R Y a p a a Y R ~ ~ R l p p p a Y a a p p p a Q ~ ~ ~ ~ E a ~ ~ ~ a a p Y a Y R E R R R Y a p a a a a ",
"p p Y a Y R a Y a a a R ~ R R a p Y R ~ ~ ^ ^ R l Y p p a Y R Y a p a a Y ~ ~ ~ Y E E Y ~ ~ E a Y a a Y E R R z R R R Y a a a a ",
"p p a a Q Y a ~ R a R R Y R Y a p T R R | ~ ^ ^ Q a a a a a a Y a a a a Q ~ Q Y E ~ a a E ~ ~ a a p a Y T R R R R R R Y a a a z ",
"p p Y a Y Y ~ Y ~ a R ~ Y R Y Y a a Y ~ ~ ~ ~ ~ ~ Q Y a a a a a a a Y a Y ~ ~ Y Y Y E E R ~ ~ Y a a a a R ~ ~ ~ ^ ^ R ~ E R R R ",
"Y a Y a a a ~ Y Y Y Y ~ ~ R a Y a p a R ^ T ~ E Q ~ Y a l Y a Y p p p a Y Q ~ Y a E E a a ~ a Y Y a a E R ~ ~ ~ ~ ^ ~ R Y R p Y ",
"a a a a a R a Y ~ ~ Q Y R R R a U p Y ~ ^ / R T a Y z p a p p a p a p a a ~ ~ ~ a Q Y Y ~ ~ Y Q p Y a T Y R R R R ~ R R T T z i ",
"a a E a a a ~ R ~ ~ ~ Y a Y a Y a Y Y ~ ~ ~ R i u p Y p a p p a a p Y a ~ ~ R Y a a ~ ~ ~ ~ a R a Y p Y R R Y R Y R a R a Y p p "
};
