/* XPM */
static char *_303d8f1d7e04ae9f150a409bbc945305dEeYikkZmoiuCcR[] = {
/* columns rows colors chars-per-pixel */
"64 64 172 2 ",
"   c None",
".  c #5B0F15",
"X  c #5B1117",
"o  c #5E1319",
"O  c #760003",
"+  c #7A0004",
"@  c #630D15",
"#  c #6C0C14",
"$  c #730B14",
"%  c #7B0A14",
"&  c #760F18",
"*  c #601117",
"=  c #63151A",
"-  c #69171C",
";  c #65191E",
":  c #71151B",
">  c #721A1F",
",  c #671C20",
"<  c #6A1F23",
"1  c #7E1A20",
"2  c #6C2225",
"3  c #6F2A2F",
"4  c #6B252B",
"5  c #702125",
"6  c #7B272A",
"7  c #75292C",
"8  c #7E2C2F",
"9  c #742F33",
"0  c #7B3134",
"q  c #830004",
"w  c #890004",
"e  c #82040C",
"r  c #860713",
"t  c #8B0712",
"y  c #840A14",
"u  c #8E0B16",
"i  c #920613",
"p  c #900813",
"a  c #930D18",
"s  c #85171D",
"d  c #9E1922",
"f  c #951E25",
"g  c #962329",
"h  c #8B2F30",
"j  c #803A3F",
"k  c #8A3D3C",
"l  c #823435",
"z  c #9C3838",
"x  c #A03B3A",
"c  c #AC3D3E",
"v  c #823F44",
"b  c #8C3F43",
"n  c #854146",
"m  c #8C4A4F",
"M  c #934543",
"N  c #9A4344",
"B  c #974A47",
"V  c #9C4E4B",
"C  c #9F514D",
"Z  c #9C5A5F",
"A  c #935156",
"S  c #A24040",
"D  c #A84847",
"F  c #AE4C4C",
"G  c #AC4444",
"H  c #B64341",
"J  c #B74845",
"K  c #A3544F",
"L  c #B7514F",
"P  c #A55551",
"I  c #A95752",
"U  c #AF5852",
"Y  c #AE5E59",
"T  c #B95C57",
"R  c #BD5E5F",
"E  c #B85858",
"W  c #B2615B",
"Q  c #BA655F",
"!  c #A05E63",
"~  c #A76165",
"^  c #A7686D",
"/  c #BD6A63",
"(  c #B16264",
")  c #AC6C72",
"_  c #B4757A",
"`  c #C7534F",
"'  c #C45350",
"]  c #CE5954",
"[  c #D45953",
"{  c #DB5E5A",
"}  c #CE625F",
"|  c #C2625B",
" . c #DE655F",
".. c #E7665F",
"X. c #DD6963",
"o. c #C27167",
"O. c #C6736A",
"+. c #CB786D",
"@. c #DD726C",
"#. c #C17072",
"$. c #CE7B71",
"%. c #D47E73",
"&. c #D8797A",
"*. c #E76760",
"=. c #E66D65",
"-. c #E86C65",
";. c #E96E69",
":. c #F16A66",
">. c #F16E69",
",. c #E77067",
"<. c #E87067",
"1. c #E9736B",
"2. c #E9786E",
"3. c #E6746A",
"4. c #F1736D",
"5. c #E07572",
"6. c #EB7571",
"7. c #E27B74",
"8. c #EA7D73",
"9. c #EC7D7A",
"0. c #F07770",
"q. c #F07B74",
"w. c #D58176",
"e. c #D78478",
"r. c #DA867A",
"t. c #DD897D",
"y. c #D98276",
"u. c #EB8176",
"i. c #E58479",
"p. c #EC857A",
"a. c #E28B7F",
"s. c #EB8A7E",
"d. c #F08077",
"f. c #C37E82",
"g. c #C08286",
"h. c #CE8082",
"j. c #C18489",
"k. c #D18587",
"l. c #CB8E93",
"z. c #D2969B",
"x. c #EE8582",
"c. c #E48D81",
"v. c #EC8D81",
"b. c #EF8A88",
"n. c #F08E8C",
"m. c #E69184",
"M. c #EC9386",
"N. c #ED9689",
"B. c #EE998B",
"V. c #E79495",
"C. c #E39A9D",
"Z. c #F29292",
"A. c #F49D9E",
"S. c #DC9EA3",
"D. c #DDA0A5",
"F. c #DEA3A8",
"G. c #E6ABAF",
"H. c #EDA4A6",
"J. c #F6A3A5",
"K. c #F6AAAC",
"L. c #E9AFB3",
"P. c #F9AFB1",
"I. c #EDB3B7",
"U. c #EFB3B8",
"Y. c #F9B3B5",
"T. c #F9B6B9",
"R. c #F5BBBF",
"E. c #FBBBBE",
"W. c #F7BDC1",
"Q. c #FABEC2",
"!. c #FCC2C6",
"~. c #FDC4C8",
/* pixels */
"                                                                                                                                ",
"                                                :.q.d.v.v.N.M.N.M.v.v.p.4.                                                      ",
"                                            >.9.s.b.N.N.n.N.N.B.M.B.v.M.M.p.q.:.                                                ",
"                                        >.p.v.M.N.B.B.B.N.B.B.B.N.N.N.N.N.N.v.v.d.:.                                            ",
"                                      d.v.v.B.N.B.M.B.B.B.B.B.B.B.N.B.B.B.B.B.B.v.v.q.                                          ",
"                                  4.s.M.N.N.N.M.B.B.B.B.B.B.B.B.B.B.B.B.B.B.N.N.B.N.M.p.>.                                      ",
"                                0.s.N.N.B.N.B.B.B.B.B.B.B.B.B.B.B.B.B.B.B.B.B.B.N.N.N.v.v.4.                                    ",
"                              q.v.N.N.N.N.B.B.B.B.B.B.B.B.B.B.Z.B.B.B.B.B.B.B.N.B.B.N.B.N.v.0.                                  ",
"                            0.v.N.N.B.N.N.B.B.B.B.B.B.B.B.B.B.B.B.B.B.B.B.B.B.B.B.B.B.N.B.N.v.4.                                ",
"                          >.v.M.N.N.B.B.B.B.B.B.B.B.B.B.B.B.B.B.B.B.B.B.B.A.B.B.B.B.B.B.B.N.N.v.4.                              ",
"                          p.M.B.B.B.B.B.B.B.B.B.B.B.B.B.B.B.B.B.B.B.B.B.B.B.B.B.B.B.B.B.B.N.B.v.s.                              ",
"                        q.M.N.N.N.B.B.B.B.B.B.B.B.B.B.B.B.B.B.B.B.B.B.B.B.B.B.B.B.B.B.B.B.B.N.B.v.q.                            ",
"                      :.s.N.N.B.B.B.B.B.B.B.B.B.A.B.B.B.B.B.B.B.B.B.B.B.B.B.B.B.B.B.B.B.B.B.N.N.B.M.4.                          ",
"                      q.N.N.B.B.B.B.B.N.B.B.B.B.B.B.B.B.B.B.B.B.B.B.B.B.B.B.B.B.B.N.B.B.B.B.B.B.N.v.s.                          ",
"                      s.N.N.B.B.B.B.B.B.B.B.B.B.B.B.B.s.B.B.B.B.B.B.B.B.B.B.B.N.B.B.B.B.N.N.B.N.B.B.v.4.                        ",
"                    4.v.N.B.B.N.N.N.N.N.N.N.N.B.B.B.s.B.B.B.B.B.B.B.B.B.B.B.B.B.N.N.N.N.N.N.N.B.N.N.N.d.                        ",
"                    p.N.N.N.N.N.N.N.N.N.N.N.N.B.B.B.B.B.B.B.B.B.B.B.B.B.B.B.B.N.N.N.N.N.N.N.N.N.N.B.N.M.>.                      ",
"                    s.N.N.N.N.N.N.N.N.M.M.M.M.B.s.B.B.N.N.N.B.N.N.N.N.N.N.N.M.M.m.N.m.N.N.N.N.N.N.N.M.v.d.                      ",
"                  p.s.N.N.N.N.N.m.m.v.v.s.c.v.s.B.B.B.N.N.N.B.B.B.N.N.N.N.M.m.v.v.s.v.v.m.M.N.M.N.B.B.M.M.q.                    ",
"                d.s.N.N.N.N.N.M.s.i.u.8.8.8.u.s.s.a.B.N.N.N.B.N.N.N.N.M.m.v.p.8.8.8.8.u.i.s.m.M.N.N.N.M.M.M.q.                  ",
"              4.s.N.N.N.N.N.s.s.8.3.3.3.1.6.1.u.i.s.s.N.N.N.N.N.N.N.N.v.p.8.3.3.1.1.1.3.2.u.s.m.N.N.N.B.M.N.s.4.                ",
"              d.M.B.B.N.M.m.s.2.,.=.8.x.n.n.x.2.3.8.i.M.M.N.N.N.N.N.v.s.8.,.1.9.x.n.n.9.2.1.8.s.s.N.N.N.N.N.M.p.                ",
"              M.B.M.B.N.M.s.8.,.*.6.Z.K.T.Y.K.M.u.1.8.s.M.N.N.N.N.m.v.8.=.;.p.A.P.T.P.A.x.1.;.u.s.M.M.N.N.N.N.M.                ",
"              M.B.M.M.N.M.i.3...;.Z.Y.Q.~.~.Q.P.N.2.1.p.m.N.N.N.N.v.i.3.=.9.A.T.!.~.~.Q.J.x.;.2.u.M.N.N.B.N.N.N.                ",
"              M.M.M.B.N.v.u.-...9.J.!.~.Q.U.F.C.V.8.1.8.v.N.N.N.N.v.8.-.-.x.C.S.G.W.~.~.T.Z.;.,.u.s.N.N.N.N.N.M.                ",
"              M.B.B.N.M.s.2.,.:.q.P.~.Q.L.j.) _ h.@.,.2.s.N.B.N.M.s.8.=.=.&.f.) _ S.W.~.W.A.6.-.8.v.M.N.N.N.v.M.                ",
"              M.M.M.B.N.s.u...:.f.P.~.Q.z.A v Z ( } =.8.s.N.B.N.M.v.8.*.{ R ~ m v _ I.~.W.A.6.-.8.v.N.B.N.B.B.v.                ",
"              d.M.B.B.N.M.u.,.*.q.J.Q.Q.l.v 4 v N ` ,.u.s.N.M.N.M.v.8.=.[ G b 9 3 ^ L.Q.T.Z.;.,.u.M.M.N.N.B.M.p.                ",
"              >.s.M.M.M.s.p.3.*.;.n.P.Q.S.! 0 8 z ] 3.u.M.N.N.N.N.v.i.1.{ H h 7 n g.U.E.J.9.-.2.u.v.N.M.B.B.x.4.                ",
"                4.s.N.M.m.s.u.=.*.2.n.J.H.k.Y F ` X.8.s.M.N.M.N.N.M.s.8.=.] J F #.C.K.A.p.3.,.u.s.M.N.N.N.v.0.                  ",
"                  4.p.M.M.M.s.8.1.-.2.9.x.x.3.X.=.8.s.m.N.N.N.N.N.N.M.s.8.=. .X.7.x.x.9.1.3.2.s.m.N.N.v.p.4.                    ",
"                      u.M.M.M.s.8.1.1.3.1.3.3.2.u.s.s.M.N.N.B.N.N.N.M.M.s.8.2.3.1.1.3.1.1.u.s.M.N.N.M.s.:.                      ",
"                        s.M.N.m.v.s.i.8.8.u.u.i.m.M.M.N.N.N.m.m.m.m.N.N.m.v.i.u.8.8.8.u.s.s.M.M.N.M.M.4.                        ",
"                        4.v.M.N.M.M.v.v.s.s.M.M.M.N.N.N.m.t.w.w.w.a.M.N.N.m.M.m.m.s.m.v.M.M.N.N.N.M.d.                          ",
"                          q.M.M.N.N.N.N.N.M.N.N.N.N.N.N.m.e.O./ +.r.m.N.N.N.N.M.M.N.N.N.N.N.N.M.M.p.                            ",
"                            q.v.m.N.N.N.N.N.N.N.B.N.N.M.m.r.e.r.r.c.m.N.N.B.N.N.N.N.N.N.N.N.N.M.s.:.                            ",
"                              q.v.M.N.N.N.N.N.N.N.N.B.M.M.M.m.N.N.N.N.N.N.N.B.N.N.B.N.N.N.M.M.d.:.                              ",
"                                4.p.M.M.N.N.N.N.N.N.N.N.N.B.N.N.N.B.N.N.B.N.N.N.B.N.N.M.M.v.8.                                  ",
"                                    6.p.M.M.N.B.N.N.B.B.N.N.N.N.B.N.N.N.B.B.N.N.N.N.M.M.u.4.                                    ",
"                                        0.d.i.r.a.m.N.N.N.N.B.B.B.B.N.N.m.m.m.t.e.w.7.4.                                        ",
"                        +                   L P ! / / w.w.r.r.t.t.r.r.e.w.+./ Y C N c                                           ",
"                        w +                 1 2 5 0 k M B V C P P K C V M k l 6 < - $                                           ",
"                          + +             t @ . . o = ; , , 2 2 2 2 , ; ; - * * . . . %                                         ",
"                            + w           $ @ . . . . . . . X X X X . X X @ # @ @ . . # t                                       ",
"                              O w       r @ . . . . . . . . . X X . . . X @ $ % @ . . @ %                                       ",
"                              w +     d : . . X . X X X X X X X X X X X X . % i $ . . . #                                       ",
"                                e s c D 8 = . . X . X X X X X X X X . X . . %   a : 5 7 6 f                                     ",
"                                  z L o.K 7 = @ . X X X X X X X X X X X X X $     S I W W L                                     ",
"                                  | Q O.o.M > $ * X X X X X X X X X X X X . #     @.t.c.a.8.                                    ",
"                                  7.%.w.w.T g % # . X X X X X X X X X X X X @ a   8.M.N.m.p.                                    ",
"                                  p.v.s.i. .  r @ . X X X X X X o X X X o X * y   4.v.M.v.d.                                    ",
"                                  >.8.6.      % @ X X X X X X X X X X X X X X %     4.d.p.>.                                    ",
"                                              $ X X X X X X X X X X X X X X X $                                                 ",
"                                              # X X X X o X X X X X o X X . . #                                                 ",
"                                            t @ X X X X X X X X X X X X X X . * r                                               ",
"                                            % @ X X X X o X X X X X X X X X X @ %                                               ",
"                                            $ . X X X X X X X X X X X X X X X X #                                               ",
"                                          p @ . X . X X X X X o X X X X X X X . @ t                                             ",
"                                          % @ . . X X X X X X X X X X X X X X X @ %                                             ",
"                                          $ . . . X X X X X X X X X X X X X X . . #                                             ",
"                                        y @ . . X X X X X X X X X X o X X X X . X @ y                                           ",
"                                        # . . . . X X X X X X o X X X X X X X . . . #                                           ",
"                                      p @ . X X . X . X X X X X X o X X X X X . . X X r                                         ",
"                                                                                                                                "
};
