/* XPM */
static char *edbc05d1028f4e3ebc8e01ffe50d7d5fxCX0izoZXOfBFJb2[] = {
/* columns rows colors chars-per-pixel */
"64 64 164 2 ",
"   c None",
".  c #171717",
"X  c #181717",
"o  c #181817",
"O  c #171718",
"+  c #181718",
"@  c #191919",
"#  c #201E1D",
"$  c #22201F",
"%  c #262321",
"&  c #282523",
"*  c #2C2926",
"=  c #302824",
"-  c #322D2A",
";  c #35302D",
":  c #3E3733",
">  c #3F3834",
",  c #3C3C3C",
"<  c #323334",
"1  c #413936",
"2  c #473F39",
"3  c #4D3A38",
"4  c #603F3A",
"5  c #4D443E",
"6  c #464141",
"7  c #524741",
"8  c #5B4F48",
"9  c #514D4D",
"0  c #545454",
"q  c #5B5858",
"w  c #7E4F47",
"e  c #63554B",
"r  c #6C5D54",
"t  c #625452",
"y  c #755854",
"u  c #746459",
"i  c #7B6A5F",
"p  c #676767",
"a  c #7D6C60",
"s  c #787676",
"d  c #7E7C7C",
"f  c #8E5B54",
"g  c #9D5C53",
"h  c #93615A",
"j  c #8F6761",
"k  c #806E62",
"l  c #837164",
"z  c #887568",
"x  c #8F796C",
"c  c #927C6F",
"v  c #887F7E",
"b  c #987A75",
"n  c #937E71",
"m  c #AF6E63",
"M  c #B36E62",
"N  c #BD7568",
"B  c #A67B76",
"V  c #C87568",
"C  c #C37466",
"Z  c #D07D6F",
"A  c #CE7C71",
"S  c #968173",
"D  c #96807D",
"F  c #988374",
"G  c #A18778",
"H  c #A58D7C",
"J  c #BD8077",
"K  c #DF8577",
"L  c #DF8778",
"P  c #D28A7B",
"I  c #DE8D7D",
"U  c #D38476",
"Y  c #DD907F",
"T  c #E08D7E",
"R  c #8A8A8B",
"E  c #908F90",
"W  c #979797",
"Q  c #9C9A9A",
"!  c #AE9482",
"~  c #AB928F",
"^  c #B29785",
"/  c #B49A88",
"(  c #B79B88",
")  c #BEA18E",
"_  c #ABABAB",
"`  c #AEA4A3",
"'  c #BDA7A4",
"]  c #B9B9B9",
"[  c #DF9281",
"{  c #D5998F",
"}  c #D49589",
"|  c #CA9E99",
" . c #DB9D94",
".. c #E18F82",
"X. c #E19584",
"o. c #E09987",
"O. c #E29688",
"+. c #E29A8A",
"@. c #E59D92",
"#. c #C4A693",
"$. c #C7A995",
"%. c #C9AB96",
"&. c #CDAE99",
"*. c #CFB09B",
"=. c #D1B19D",
"-. c #E1A28E",
";. c #E2A492",
":. c #E3AA95",
">. c #E6A59B",
",. c #E2AD99",
"<. c #E8A89F",
"1. c #E3B39D",
"2. c #C1ADAA",
"3. c #D6B6A0",
"4. c #D8B7A1",
"5. c #DDBBA5",
"6. c #E5AEA5",
"7. c #E8ABA2",
"8. c #E4B6A1",
"9. c #E9B0A7",
"0. c #E4BBA5",
"q. c #EAB3AA",
"w. c #E4BFA9",
"e. c #EBB8AF",
"r. c #ECB7B0",
"t. c #ECBAB3",
"y. c #EEBFB9",
"u. c #DFC0BC",
"i. c #E6C3AC",
"p. c #E9C6AF",
"a. c gray78",
"s. c #D2CECF",
"d. c #D9C9C8",
"f. c #D8C5C3",
"g. c #D2D2D2",
"h. c #DDDDDD",
"j. c #EFCCC8",
"k. c #F0CAC6",
"l. c #F2CDC8",
"z. c #F1D1CC",
"x. c #E7D4D2",
"c. c #F3D5D2",
"v. c #F2DAD7",
"b. c #F4DCD8",
"n. c #F5E1DE",
"m. c #E7E7E7",
"M. c #E2E2E2",
"N. c #EAE8E9",
"B. c #F7E2E0",
"V. c #F7E7E5",
"C. c #F7E4E1",
"Z. c #F8E9E7",
"A. c #F8EDEB",
"S. c #F5ECEB",
"D. c #F5F5F6",
"F. c #F5F2F2",
"G. c #FBF3F2",
"H. c #FBF6F5",
"J. c #FBF8F7",
"K. c #FAFAFA",
"L. c #FDFCFB",
"P. c #FDFDFD",
"I. c #FCFEFE",
"U. c #FCFBFC",
/* pixels */
"                                                                                                                                "
"                                                    i.i.i.i.i.i.i.i.i.i.                                                        ",
"                                              i.i.i.i.p.i.i.i.i.i.i.i.p.i.i.i.                                                  ",
"                                          i.i.i.i.i.i.i.i.p.p.i.p.i.i.p.i.i.i.i.i.                                              ",
"                                      i.i.i.i.i.i.i.p.p.p.p.p.p.i.p.p.p.p.i.i.i.i.i.i.                                          ",
"                                    i.i.i.i.p.p.p.p.p.p.p.p.p.p.p.p.p.p.p.p.i.i.i.i.i.i.                                        ",
"                                  i.i.i.i.i.p.p.p.p.p.p.p.p.p.p.p.p.p.p.p.p.p.p.i.p.i.i.i.                                      ",
"                                i.i.i.p.i.p.p.p.p.p.p.p.p.p.p.p.p.p.p.p.p.p.p.p.p.p.i.i.i.i.                                    ",
"                              i.i.i.i.p.p.p.p.p.p.p.p.p.p.p.p.p.p.p.p.p.p.p.p.p.p.p.p.i.p.i.i.                                  ",
"                            i.i.i.i.p.p.p.p.p.p.p.p.p.p.p.p.p.p.p.p.p.p.p.p.p.p.p.p.p.p.p.i.i.i.                                ",
"                          i.i.i.p.p.p.p.p.p.p.p.p.p.p.p.p.p.p.p.p.p.p.p.p.p.p.p.p.p.p.p.p.i.p.i.i.                              ",
"                        i.i.i.i.i.p.p.p.p.p.p.p.p.p.p.p.p.p.p.p.p.p.p.p.p.p.p.p.p.p.p.p.p.p.i.i.i.i.                            ",
"                        i.i.p.p.p.p.p.p.p.p.p.p.p.p.p.p.p.p.p.p.p.p.p.p.p.p.p.p.p.p.p.p.p.p.p.p.i.i.                            ",
"                      i.i.i.i.p.p.i.p.p.p.i.p.p.p.p.p.p.p.p.p.p.p.p.p.p.p.p.p.i.p.p.p.p.p.p.i.i.i.i.i.                          ",
"                      i.i.p.i.p.p.p.p.p.i.p.p.p.p.p.p.p.p.p.p.p.p.p.p.p.p.p.p.p.i.i.i.i.p.p.p.i.p.i.i.                          ",
"                      i.i.p.i.i.p.i.p.i.p.i.p.p.p.p.p.p.p.p.p.p.p.p.p.p.p.p.p.i.p.i.i.i.p.p.i.p.i.i.i.i.                        ",
"                    i.i.i.i.p.i.i.i.i.i.i.i.i.i.p.p.p.p.p.p.p.p.p.p.p.p.p.p.p.i.i.i.i.i.i.i.i.i.p.i.i.i.                        ",
"                    i.p.i.i.i.i.i.i.i.w.i.w.w.i.i.i.i.i.i.i.i.p.p.i.i.i.i.i.i.i.w.w.i.i.i.i.i.i.i.i.i.i.i.                      ",
"                  i.i.i.i.i.i.w.w.0.0.1.1.8.0.5.i.i.i.i.i.p.p.p.i.i.i.i.i.0.0.0.8.1.8.1.5.w.i.i.i.i.i.p.i.i.                    ",
"                  i.i.i.i.i.i.0.1.1.;.;.-.;.:.,.=.5.w.i.i.i.p.i.p.i.i.w.0.1.,.;.;.-.;.;.1.0.0.i.i.i.i.p.i.i.                    ",
"                p.i.i.i.i.i.0.1.;. .[ [ [ o.o.+.;.,.0.i.i.i.i.i.i.i.i.0.1.-.o.X.o.o.o.[ +.-.1.0.i.i.i.i.i.i.i.                  ",
"              i.p.i.i.i.i.0.1.-.Y T +.7.r.r.6.;.O.-.,.0.i.i.p.i.p.i.0.,.-.X.X.>.9.e.q.>.O.X.+.,.0.i.i.i.i.i.i.i.                ",
"              i.i.i.i.i.0.1.-.Y I @.p.b.Z.V.b.y.;.X.-.1.w.i.i.i.i.0.1.-.T X.<.l.n.Z.C.z.9.O.X.;.1.w.w.i.i.i.i.i.                ",
"              i.i.i.i.i.0.<.O.T O.y.Z.H.I.P.H.b.t.+.X.,.0.i.p.i.i.0.:.X.T @.l.S.K.P.P.G.c.<...[ ,.w.i.i.i.i.i.i.                ",
"              i.i.i.i.i.0.;...Z @.c.H.I.K.m.g.s.u.>.X.;.8.i.i.i.i.0.;.T T 6.d.s.h.F.P.P.A.y.O.[ :.0.i.i.i.i.i.i.                ",
"              i.i.i.i.i.1.;.I T <.b.P.P.M._ E Q ' { Y -.1.i.i.i.i.1.-.I I | ` R W a.D.P.G.k.@.T ;.8.w.i.p.i.i.i.                ",
"              i.i.i.i.w.1.-.I T <.b.P.F.a.p 0 s D J Y -.1.i.i.i.0.1.-.T A B v p 0 Q m.P.G.k.+.Y -.8.w.i.i.p.i.i.                ",
"              i.i.i.i.i.1.;.Y T O.z.L.F.] 0 < 9 y m Y -.1.i.i.i.i.1.;.T C f t , , R M.P.A.y.X.X.;.8.i.i.i.p.i.i.                ",
"                i.i.i.i.i.1.[ T ..t.n.F.s.d 6 1 f N [ ,.i.i.i.i.i.w.:.X.Z g 4 1 q _ N.A.z.>.T o.,.w.i.i.p.i.i.                  ",
"                  i.i.i.i.=.-.X.T O.r.c.x.2.b f m P -.1.i.i.i.i.i.i.1.;.I C h j ~ f.v.k.6.X.[ ;.1.i.i.i.i.i.                    ",
"                    i.i.i.i.1.-.Y T O.>.6.,.} U Y -.1.0.5.i.i.i.i.i.1.1.-.T U P  .6.7.@.o.X.-.1.0.i.i.i.i.                      ",
"                      i.i.i.1.1.:.+.X.X.X.o.o.+.:.1.0.i.i.i.i.p.i.i.i.0.1.;.+.o.X.o.o.o.+.;.1.0.i.i.i.i.                        ",
"                        i.i.i.0.1.1.:.;.;.;.:.,.1.0.i.i.i.i.i.5.0.i.i.i.0.1.1.:.-.-.-.;.1.1.0.i.i.i.i.                          ",
"                          i.w.i.w.w.8.8.8.8.0.i.i.i.i.i.5.=.#.) %.=.p.i.i.i.0.1.1.0.0.0.0.i.i.i.i.i.i.                          ",
"                          i.i.i.i.i.w.i.i.w.i.i.i.i.i.i.5.#.^ H ) &.w.i.i.i.i.i.i.i.i.0.i.i.i.i.w.i.                            ",
"                            i.i.i.w.i.i.p.i.i.p.i.p.i.i.5.&.$.&.&.=.i.i.i.i.i.i.i.i.i.i.i.i.i.i.i.                              ",
"                              w.i.i.i.i.i.i.p.i.p.i.i.i.5.i.w.i.i.i.i.i.i.p.p.i.p.i.i.i.i.i.i.w.                                ",
"                                  i.i.i.i.i.i.p.i.i.i.p.i.i.i.p.i.p.i.i.p.i.i.p.i.p.i.i.i.i.i.                                  ",
"                                      w.i.i.i.i.p.i.p.p.i.p.p.p.p.p.i.i.p.i.i.i.i.i.p.i.i.                                      ",
"                                          w.3.*.3.4.i.i.i.p.p.p.p.p.p.i.0.i.5.=.&.%.=.                                          ",
"                                            x z S F / ) ) %.*.*.*.*.%.%.#.^ H c i r                                             ",
"                                            - < : 5 8 r r i a z a a a u r e 7 1 - $ @                                           ",
"                                            . . @ # # $ * - - ; ; < - * & % @ o X . . .                                         ",
"                                          . . . . . . o o o o @ o O o O o . . . . . . .                                         ",
"                                          . . o . o o o o o o o o o . o o . . . o . . . .                                       ",
"                                        @ @ @ O O O @ O O @ O o o O @ @ O O o   . . . . .                                       ",
"                                  = u i 2 $ o . . O @ @ @ @ @ O @ @ @ @ O O o     % ; : :                                       ",
"                                  e x H l 1 @ . o @ @ @ @ @ @ @ @ @ @ O O O O     y z S S n                                     ",
"                                  H G ( ^ r * o o @ @ @ @ # @ @ @ @ @ O O O O     #.*.5.3.=.                                    ",
"                                  =.#.$.%.F 2   . O @ @ @ @ @ @ @ @ @ @ @ O O     i.i.i.i.i.                                    ",
"                                  w.5.5.5.      . o O @ @ @ @ @ @ @ @ @ @ @ @       i.i.i.i.                                    ",
"                                    i.i.      . @ X @ @ @ @ @ @ @ # @ @ @ @ @ @       i.i.                                      ",
"                                              . . @ @ $ @ @ @ @ @ @ @ @ @ @ @ o                                                 ",
"                                              O O O @ @ @ @ @ @ # @ @ @ @ @ O .                                                 ",
"                                              O O O @ @ @ @ @ @ @ @ @ @ @ O O .                                                 ",
"                                            . O @ @ @ @ # # @ @ @ @ @ @ @ O @ @ .                                               ",
"                                            . o O @ @ @ @ @ @ @ @ # @ @ @ O O . .                                               ",
"                                            . o O O @ @ @ # @ @ # @ @ @ @ @ O . .                                               ",
"                                          . . o O O @ @ @ @ @ @ @ @ @ @ @ @ O . . .                                             ",
"                                          . . o O @ @ @ @ @ @ @ # @ @ @ @ @ O . . .                                             ",
"                                          . X o o @ @ # @ @ @ @ @ @ @ @ @ @ @ @ . .                                             ",
"                                        . . . O O @ @ @ @ # @ @ @ @ @ @ @ @ @ @ . . .                                           ",
"                                        . . X O O @ @ @ @ @ @ @ @ # @ @ @ @ @ @ . . .                                           ",
"                                                                                                                                "
};
