/* XPM */
static char *f5046c7b5eee4a5b8bfcdde10874ef78XMk6jENFsuvZzVGm[] = {
/* columns rows colors chars-per-pixel */
"64 64 219 2 ",
"   c #1F2428",
".  c #22272A",
"X  c #282D31",
"o  c #292E32",
"O  c #2A2F33",
"+  c #2B3034",
"@  c #2C3135",
"#  c #2D3236",
"$  c #2E3337",
"%  c #2F3438",
"&  c #303539",
"*  c #31363A",
"=  c #32373A",
"-  c #32373B",
";  c #33383B",
":  c #33383C",
">  c #34393D",
",  c #353A3E",
"<  c #363B3F",
"1  c #373C40",
"2  c #383D40",
"3  c #383D41",
"4  c #393E42",
"5  c #3A3F43",
"6  c #3B4043",
"7  c #3B4044",
"8  c #3C4144",
"9  c #3C4145",
"0  c #3D4245",
"q  c #3D4246",
"w  c #3E4346",
"e  c #3E4347",
"r  c #3F4447",
"t  c #3E4349",
"y  c #3E424B",
"u  c #3F4448",
"i  c #3F444A",
"p  c #404548",
"a  c #404549",
"s  c #414649",
"d  c #41464A",
"f  c #42474A",
"g  c #42474B",
"h  c #43484C",
"j  c #44494C",
"k  c #44494D",
"l  c #454A4D",
"z  c #454A4E",
"x  c #464B4E",
"c  c #464B4F",
"v  c #474C4F",
"b  c #434750",
"n  c #464B51",
"m  c #464A53",
"M  c #474C50",
"N  c #484D50",
"B  c #484D51",
"V  c #484D53",
"C  c #494E52",
"Z  c #4A4F52",
"A  c #4A4F53",
"S  c #494E54",
"D  c #4A4F55",
"F  c #4B5054",
"G  c #4B5056",
"H  c #4C5155",
"J  c #4D5255",
"K  c #4D5256",
"L  c #4E5356",
"P  c #4E5357",
"I  c #4F5457",
"U  c #4D5258",
"Y  c #4F5458",
"T  c #505559",
"R  c #515659",
"E  c #50555B",
"W  c #51565A",
"Q  c #52575B",
"!  c #52575D",
"~  c #52565F",
"^  c #53585B",
"/  c #53585C",
"(  c #53585E",
")  c #54595C",
"_  c #54595D",
"`  c #54595F",
"'  c #555A5E",
"]  c #565B5E",
"[  c #565B5F",
"{  c #545861",
"}  c #565B61",
"|  c #555962",
" . c #575C60",
".. c #585D61",
"X. c #595E61",
"o. c #595E62",
"O. c #5A5F62",
"+. c #5A5F63",
"@. c #595E64",
"#. c #5B5F68",
"$. c #5B6063",
"%. c #5B6064",
"&. c #5B6066",
"*. c #5C6164",
"=. c #5C6165",
"-. c #5D6265",
";. c #5D6266",
":. c #5E6366",
">. c #5E6367",
",. c #5F6467",
"<. c #5F6468",
"1. c #5F646A",
"2. c #606568",
"3. c #606569",
"4. c #616669",
"5. c #61666A",
"6. c #62676A",
"7. c #62676B",
"8. c #62676D",
"9. c #63686B",
"0. c #63686C",
"q. c #64696C",
"w. c #64696D",
"e. c #64696F",
"r. c #656A6E",
"t. c #666B6E",
"y. c #666B6F",
"u. c #676C6F",
"i. c #646871",
"p. c #656A70",
"a. c #666B71",
"s. c #676C70",
"d. c #676C72",
"f. c #676B74",
"g. c #686D71",
"h. c #686D73",
"j. c #696E72",
"k. c #6A6F73",
"l. c #696E74",
"z. c #6A6F75",
"x. c #696D76",
"c. c #6B7073",
"v. c #6B7074",
"b. c #6B7076",
"n. c #6C7174",
"m. c #6C7175",
"M. c #6D7275",
"N. c #6C7177",
"B. c #6D7276",
"V. c #6E7376",
"C. c #6E7377",
"Z. c #6F7477",
"A. c #6C7079",
"S. c #6D7278",
"D. c #6E7379",
"F. c #6D717A",
"G. c #6E727B",
"H. c #6F7478",
"J. c #6F747A",
"K. c #6F737C",
"L. c #707578",
"P. c #707579",
"I. c #717679",
"U. c #70757B",
"Y. c #71767A",
"T. c #72777A",
"R. c #72777B",
"E. c #71767C",
"W. c #72777D",
"Q. c #72767F",
"!. c #73787B",
"~. c #73787C",
"^. c #73787E",
"/. c #74797D",
"(. c #757A7D",
"). c #74797F",
"_. c #757A7E",
"`. c #767B7E",
"'. c #767B7F",
"]. c #777C7F",
"[. c #737780",
"{. c #747881",
"}. c #757A80",
"|. c #767B81",
" X c #757982",
".X c #767A83",
"XX c #777C80",
"oX c #777C82",
"OX c #777B84",
"+X c #787D80",
"@X c #787D81",
"#X c #797E81",
"$X c #787D83",
"%X c #797E82",
"&X c #7A7F82",
"*X c #7A7F83",
"=X c #787C85",
"-X c #797E84",
";X c #7A7F85",
":X c #797D86",
">X c #7A7E87",
",X c #7B8083",
"<X c #7B8084",
"1X c #7B8086",
"2X c #7C8185",
"3X c #7D8285",
"4X c #7D8286",
"5X c #7E8386",
"6X c #7E8387",
"7X c #7E828B",
"8X c #7F8488",
"9X c #808589",
"0X c #80858B",
"qX c #81868A",
"wX c #82878B",
"eX c #83888C",
"rX c #84898D",
"tX c #858A8E",
"yX c #868B8F",
/* pixels */
"% 7 e e e > : d e M h 7 u d e d 1 > c e > 4 > c c d 7 4 d % c M e u d e u d d d c d u h d d d h d e d : h u u $ 4 F h - c e d X ",
"4 H / T T F c B / +._ H _ +.T T e c  ./ H / T 5._ _ _ T / e T _ / +.<.5.;.;.0.s.r.0.5.r.r.5.<.5.<._ H 7 T T +.Y B +.+.H ;.T T : ",
"e _ <.+.;.;._ Y 5.k.r.r.P.P.v.v.c H 5.;. .+._ r.s.v.H.k.r.B +.5.Y +.5.0.%.+.5.k.P.P.P.*X/.P.H.H.<XP.<.c _ +.5.%.Y 5.k.r.~.k.k.c ",
"7 _ ;._ %.r.5. .k.P.P./.*XXXP./.B F ;.+.+.;.+.0.P././.P.C.B %.;.P.XX8X6X/.P./.<XH.C.P././.P.H.H././.s.B +._ +.;.+.k./.P.*XC.H.B ",
"d +.;.Y ;.H.P.k.P.6X6X*X/.C.k.P.T F +.+.r.~.P./.<X/./.P.H.H ;.;./.P.~././.C.v.H./.~.P././././.*Xk./.k.B <.+.5.P.C.P.6X/./.v.C.u ",
"M %.;.T 5.XX<X/.C./././.*XH.P.6X+.H _ +.k.*X~./.6X/.P.~.~.T ;.0.6XP.P./.6X/././.*X/./././.~./.XXC.<Xk.c +._ 0.*XP.H.XX/.*X~.6XB ",
"B  .+._ s.*XXX~.v.C.k.C.*X*X*XyX .Y +.%.s./.C.C.P.C./.*X/.T 5.r.*XC.k.P.*X/./.*X/./.P.~.~.C.k.v./.wXr.e +._ 5.*X/.k.P.P.XX6XyXH ",
"B +.+.;.P.*X/.P.*X~.s.k.XX*X/.6XY H ;.0.H.6X/.<Xr.k.XX6X/.H %.s.<XC.v.~./.~./.*X*X*X/.XXP.k.r.r.~.6X0.d r.r.k.6X6XC.P.H.~./.6Xd ",
"B %.;.;.C.6X*XP.P.s.*Xk.k.5.<XH.Y H 5.;.k.wX~./.k./.r.*XC.B 5.k.r.r./.*XP.H././././.*X*XC.C./.*X5.XX5.H r.r.5.6X*X/.k./.s.P.*Xc ",
"B %.<.+.r./././.*Xv./.C.k.r.6X~.H T 0.<.s.6XH.v.C.C.+./.C.B +. .+.;.C.*X/./.*XXX/.P.~.P.v.C.P.H.C.<X<.B +.;.;.6XC.k.r.C.s.C.P.e ",
"c  .;._ ;.C./.6X6XP./.P.~.P.6X*XF T +./ ;.*X*X*X/./.r.<XP.H _ _ H / r.P.P./.*X/.*X/.~./.XX*X*X*X~.6X<.M _ %.;./.6X<X*X*X*X<XXXh ",
"M ;.5._ 5.C./.6X*XP./.P./.P.*X*XF _ ;. .;./.<XXX~.XXP.wXP.B _ 5.T T 5.C.v.P.P.v.v.C.C.C.H.P.C.P.P./.5.H +.;.<.P.*XP./.k.~.XXP.c ",
"4 F F d B _ _ _ T H H T T Y H _ 1 B T H T T T M F T T +.B > c T M M H T F T T B H ;.+.Y T T H / T +.H c H T Y _  .Y _ d / %.+.7 ",
": h d 4 e h d 4 e e - e e 7 - u 7 c e e 4 : d u e e e u d c B T B M B c u c c > 4 T T B _ _ / <./ %._ _ ;.;.+.+.5. .;.> F H H e ",
"h  .+.Y / +.+.+.<.+.u H _ ;.B _ 5.5.T  .T c %.r.+.<.5.%.<.C.P.C.C.k.k.s.5.r.0.H 4 _ _ T k.P.H.<XXX*X*X*X<X6X*X/.6XP.*Xd +._ _ B ",
"d +.5. .+.0.k.~.P.0.e Y ;.k.H ;.r.C.s.*XC.B _ _ _ k.XX5._ r.C.C././././.P.*XP.;.e _ T Y v./.C././.~.C.v.C.P.H.k.P.k./.7 / T _ T ",
"d 0._ 5.5././.P.P.C.c  .+.<.k.+./.*X/.C.C.T <.r.*X/./././.XX*X*XC.P./.H./.v.8Xs.e 5.k.;.s././.P./.P./.~.P.~.P.P.C./.v.4 ;.;.;.c ",
"c 5. .C.C./.~.*X~.P.d _  .0./.v.~./.~.C.H.F %.r.*X/./.~.~.~././.P./.XXC./.C.6Xr.u ;.v.r.C.XX/././.*XXXXX/./.P.H.C.P.C.e 5.k.P.H ",
"M ;.+././.~.H.6X*X~.c /  .r.<X/.P././././.H +.v./././.P.P.~.~.P././.~.C./.P.6Xr.e ;.C.C.P./.P.XXP././.*X/.P.k.k.~././.d %.v.*Xc ",
"c ;.+.*XXXP.v./.<XXXB +.+.k.*X/./.P.P.*X*XH ;./.v.P.~.~./././././.P.C.k./.P.wXr.e +.C.~./.H.C.P.P.~././.~.H.C.v./.P.<Xc T 0.XXd ",
"d 5.5./.~./.C.k.~.~.F <.;.k.*XP.P.C.H./.*XH 5./.r.C.P././.XX*X/.XX~.H.k.P.C.<X<.e +.C./.XX~.H./.*X/.XX/./.XX/./.v.C.XXc T 0.6XH ",
"c r.5.~.P.*XH.k.C.H.B ;.;.k.*X~.P.C.C.C.~.H %.v.;.C./././.XXXX/.*X/.~.k.P.k.XX;.u %.C.P.*X6X/.*X~././.P./././.~.~.~.*Xc +.<./.T ",
"B 5. .~./.*XC.H.C.H.c +. .r.*X/.P.P.H.C./.T _ +.+.k.~.~.~.*XXXP././.XXH./.k.<X5.7 +.0.5.v./.H.k.C.P.P.P.P.H.C.C.*X/.C.e %.+.5.M ",
"T _ F ~.6X/.C./.*X/.c / T 5.*X/.P.XX/.P./.T T F T 5.H.P.P.*X6X/.C.P.*XP.XXC.wXv.1 _ %./ ;.s.5.T H.P.~./.~.P.C.k.H.k.+.% ;. .+.h ",
"B <.;.r.~.P.*XP.wXr.H _ 5.r.v.*X/.C.~.*XP.H ;.%._ +.k.5.P.r.C.k.k.k.C.C.P.*XP.+.X H H  .c T _ T +._ T _  ./ Y F T B c 1 e h +.> ",
"- B d c B d h e d > - 4 e u d B d u 7 7 d X e d c 7 d e M e H _ _ H Y Y H T H d % d e c + > d 7 c d e 4 e d h c M c c d c d H   ",
"$ B M B B c M c H T Y H B B c c M B e > H 4 c B B e u 4 d 1 B _ +._ ;.s.r.r.k.0.H.~.C.~.F _ 0.T  .;.r.C.C.k.s.r.r.r.H.k.C.s.C.4 ",
"e <.r.r.k.s.P.H.C.P.H.0.+.;.;.+./ 5.H c v.;.;.;.;.Y _ _ ;.c / 5._ _ C.wX8X*X<X6X/.P./.wXH Y %.c _ 0.P.*XXXP.C.k././.*X/.*XXX6XH ",
"B P./.P.P.P.XXP.v.P.C.5.0.C.H.k._ <.H B *XH.P.P.5.T ;.;.;.c H ;._  .C.8X*XC.C.v.C.C.P.yXT Y ;.F v./.*X~.P./.6XwXP.C.C.k.P.H.XXc ",
"T /.XXP.P.P./.C.H.~./.~./.6X<X/.k.r.Y T *XP.6X<Xv.5.5.+. .d Y %.5.0.P.6XP.C.P.H.r.r.r.*XH F 5.5.0.C.~.C.C.P./././.P./.C./.P./.d ",
"T /.*X/.XX/.6XP././.XX/./.XX~.P./.<.H  ./.s.XXP./.H.P.;.+.B _ ;.+.5.P.XXP.P./.P.H.XXP.wX%._ C.wX5.P.6X<X<X6X*XP./.P.P.k.P.H./.h ",
"Y ~.~.P.~././.v.*XXX/./.P.H.E././.+./ s.wXC.6XP.P.H./.<.+.c T T +.r.*X<X/./.P.r.C.6X/.6X;.Y 5.6Xr.P.P.C.P./.*XP.*XH.v.r.H.H.6XH ",
"F ,X!.L.u.V.b./.{.{.W.W.W.{.K.l.6Xr.B r.wX/.C.k././.~.k.Y M _ 5./ ;.~.6XP.C.P./.P.wXH.*X0._ %././.~.P.P.P././.XXv./.P.P.H././.Y ",
"j `.V.L.u.b.L.,Xb.W.}.XX1X$XA.1.8XC.T r.*XH.C.P.P././.k._ M B / +.;.P.XXP.P.XX*XC.XXk.H./ T 5.XXP.~./.XXXX*XXX~.P.<X/././.*X/.T ",
"j `.V.L.n.!.!.,X1X}.{.W. X:X[.f.a.<.H <.C.5.k.C.C.*XP.r.5.H B ;.T _ 5.0.<.C.*X/.*X<XP./.H T s.v.P.*X<X/./.XX~.C.C.~.C.~.~.*X/.T ",
"j !.L.!.n.L.b.b.4X}.D.l.F.[.F.i./ } T r.*XP.~./.C.*Xs. .+.H c ;.+.;.;. ./ k.P.k.C.P.C./.c B <._ s.C.C.r.0.C.H.C.P.XXC.P./.*XP.F ",
"Z ,X].5X].,XT.!.W.}.1X1X7X:Xx.&.D ! D <.*X~./.P.*XwXC.+.;.B d / <.;.+.H B %.0._ +.%.+.r.d H 5.T _ ;.5.;.5.C.P.~.C.P.r.C.k.k.5.e ",
"8 n.u.n.t.b.u.g.1.d.d.d.f.i.&.Y %.<.H ;.P.P./.C.r.k.;./ +.B 4 c d e e 4 4 c H d c c 1 M - e F c d c H H F F Y T c M h B B F F X ",
". L r f 0 z z D D D n t y b n n u c > 4 c d h 7 T B B F H B d c d e d c d c B c u e X d 1 e d c B d u u 4 - : u e d u M c c B : ",
"= O.x r 7 z B Y D ! } / ~ { { { D _ B B T B c 4 *Xk.r.k.r.k.C.v./.v.P.P.s.;.%./ ;.;.F H././.P./.6Xk.5.;. ./ 5.*X~./.C.C.5.%.5.B ",
"j X.O.,.= $.u.L.l.v.H.W.{.[.G.D.U ;.s._ / ;.H _ <X~.6X*X~./.k.~.*X*XXX/.XXP.5.F B Y T *X~.XX/.C.<X/.;.Y _ B XX/./.H./.*XXXH T T ",
"x 6.$.$.r L.].,XA.D.H.K.K.G.D.D.r.D.*Xr.0.5.T / XXC./.P.~./.C.*X~./.XX/.XX/.k. .+.T B P.C.H.P.H.*X*X0._ +.B P.C.H.P././.*X+.;.H ",
"^ ].,.X.z `.`.`.}.~.~.~.[.[.[.{.$X*X6X/.P.k.T / /.C.P.C.H./.H.*X~./.*X/././.C.5.k.+.B P.v.v.H.P.P.<Xk.;.%.M P.C.k.P./.P.*X5.5.c ",
"L 5X6.^ z ,XT.H.{.XX{.{. X.X X}.|.E.*XP./.k.Y _ 6XP.P.k.v.P.C.XX/.*X*X/.P.C.k.k./.<.B /.~.H.H.P.P.*XC.;.;.B /./.k.C.~.P.*X0.;.d ",
"r ].u.^ z ,XT.!.v.D.K.~.OX[.|.E.H.C.P.C./.k.T _ 6XP.P.C.C.~.C.*X/./././.~.H.C.C.P.;.H *X<X/.P.P.~.*Xk.+.+.c /.6X~.H.H.~.6X;.%.c ",
"x ].b.,.j ]./.!.l.A.E.|.OXOX X~.E.~./.C.H.C./ +.<XC.P.P.P.*XP.<X~.P.~././.P.~./.s.+.B *X*X*X~.H./.6Xk._ T c /.6X<X~.P.~.*X+.+.M ",
"L !.c.<.0 V.T.b.K.E.|.XXOXOXOXXX~.|.*Xr.s.k. . .6XC.P.P.~.*XH././.P.P./.XX/./.*X5.+.B P.C./.XXP.C.~.5._ / d P.P.XXXX~.v.P.+.;.c ",
"x ,.-.$.6 n.,Xb.~.E.E.E.[.{.[.|.D././.<.<.k. ._ 8XP./././.XXk.H.6X/./.*X*X/.~./.r.;.F k.s./.*XP.;.k.;._ +.c P.C.C.*XP.5.r.+.;.d ",
"R ^ R ' 0 /.b.,Xb.!./.T.T./.1X1XP./.P.5._ _ +._ P.P.P./././.~.P.C.k.r.+.k.6Xv.T +.T c v.<XC.C.r.+.H r.;.H d s./.C.C.r.+.+.;._ c ",
"z R R ' i }.T.4Xb.T.XX/.D.T.~.T./.P.C.;._ T B h %.r.P.C.0.<.k./.k.H.C.5.%.0.5.%.s.+.d T %. .r.5.+.H <.+.T d ;.r.%.5.;._ _ ;._ d ",
"u / ' ' t q.%.q.q.q.g.q.<.q.q.<.5.5.%._  ._ F d d d d d c c B B F B B h e 4 u d d d > 4 d u B e d : e e e - e e e c d 7 u M d - ",
"> R R H 6 H z H L z B z 0 z R D H B F F T T H c _ H M B T / B d H d 1 B  .H T H h T / T H H B 4 Y B H Y T H H H H _ H c c H B e ",
"R ,X,X/.b.,X,X,XH.-.%.$.H <.1XT.*X/.~./.~.P.P.~.C.P./.~.k.;.+. .<.T M C.eX/.XXP.~.*XXX<./ +._ H XX*X~./././.~.*XP./.v.;.+.;.%.H ",
"z W.!.b.T.!./.,X/.$. .' z >.4X/./.P.P.P.C.C.P./.XX/././.H.r.+.Y / T B ~.8Xk.~.P./.*X6X;.T +.T Y *X8XP.P.C.~.v.*X<X6XP.;._  ._ B ",
"B ,Xb.g.T.b././.6X<.<.-.D <.6XH./.C.v.H./.XX/.*X6XP.v.P.*XXX5.H  .+.F C./.;.P.P.v.H.6Xk.<.0.T T ~.6Xr.k.r.P.r.~.*X6X/.r.+.;. .B ",
"B XXb.q./.b././.4X<.0.<.H -.,X1.*XC.k.P.*X*X/.P.~.~./././.P.C.r.k.r.B v./.5.*XP.P.H.6Xr.%.<.H H P.6Xr.s.C.*Xv.XXP.XX/.r.;.<.+.B ",
"H /./.T.H.V.,X/.1XT.<.$.i g.<X/.r.r.C.P.*X*X*X*X/./.C.C.H.C.C.*Xr.+.F /.6X/.C.s.XXP.6XC.5.%.H Y 6X/.~.P.C.v.P.*X/./.*XC.%.%._ M ",
"$.4X6X/.T.b./.b.T.d. .! z b.4X/.P.P.H.P.P.P.P.H.~.XXP.H.H.k.k./.5.;.H *X*X/.P.P.C.k.~.r.+. .H _ eX6X*XXXP.C.v.P.P./.P.5.T +._ c ",
"Y }.,X~./.T.,XD./.g.%.$.B b.`.b.*X*X/./.XXXX*XXX~.*X/./.XXP.H.*X<.;.T /.XX/./.*X/.~.XXk.+._ H +.*X~.P./.*X~.P.P./.XX~.;.Y ;.<.B ",
"h v.W.~.XX/.XXg.T.q.%.%.B g./.V././././.XXXX/.XXH.H.C.C.*X/.C.~.<.%.F C.P././.*XXXP.P.r.%.+.H T C.k.C.P.*X*X/.P.k.P.P.;.T <.<.c ",
"B T./.XX/.T.l.$.>. .} %.z 9.XX<X/.~.P././.P.C.k.6X*XC./.wX6XP.P.0.;.M k.P./././.r.+.;.+.+.;.F B ~.H.H.P././.P.r._ 5.r.+.T ;._ 4 ",
"B b.L.b.D.g.q.R %.$.$.-.j -.T./.P.H.~./.*XXXP.P.v.0._ +.k.0._ T r.%.h 5.k.H.C.k.r._ +._ ;.5.F h C.C.C.v.v.C.k.5.T  .<.<.+.;._ e ",
"2 } ' ^ $.$.$.n ! Y R $.0 H $.$.%.;.<.0.r.k.k.s.k.0.+.%.r.5._ _ _ T 1 T _ %._ _ <.T T H T _ c e T _ _ / / +.%.+.H F T _ _ _ T d ",
"+ z u 6 i z n 6 6 1 6 n $ 0 h t c c d d h d h d e u 4 e h d 7 d h d $ d u d d d d > 4 > 7 h > > 7 d d e e c M c e : > e e e u > "
};
