/* XPM */
static char *aa3794a385db41778574e0f8ecfabdd8zoruVk5BiAO0g1Ej[] = {
/* columns rows colors chars-per-pixel */
"49 62 140 2 ",
"   c #7D0C14",
".  c #960108",
"X  c #9B0109",
"o  c #830A13",
"O  c #8C0913",
"+  c #950712",
"@  c #9B0712",
"#  c #940812",
"$  c #9C0A14",
"%  c #811017",
"&  c #84141B",
"*  c #8C131B",
"=  c #87181E",
"-  c #88191F",
";  c #97111A",
":  c #A4020A",
">  c #AB020C",
",  c #B4020D",
"<  c #B9020C",
"1  c #A30612",
"2  c #AD0511",
"3  c #A60914",
"4  c #AC0814",
"5  c #AD0F19",
"6  c #B30511",
"7  c #BC0411",
"8  c #B50815",
"9  c #BC0916",
"0  c #A6141D",
"q  c #B4111A",
"w  c #BA101B",
"e  c #871A23",
"r  c #8C1D23",
"t  c #8E2229",
"y  c #932024",
"u  c #9B2126",
"i  c #952529",
"p  c #9A2B2E",
"a  c #952C33",
"s  c #9A2E35",
"d  c #9E3032",
"f  c #9C343B",
"g  c #A72429",
"h  c #AA2A2E",
"j  c #B3262B",
"k  c #A52F33",
"l  c #AF2F33",
"z  c #B72F32",
"x  c #A23335",
"c  c #A73839",
"v  c #AB3B3C",
"b  c #B23236",
"n  c #B93336",
"m  c #B1373B",
"M  c #B33C3C",
"N  c #B93E3E",
"B  c #C2020F",
"V  c #CB020F",
"C  c #C50411",
"Z  c #CD0210",
"A  c #00FFFF",
"S  c #D20816",
"D  c #D20C1A",
"F  c #D3121E",
"G  c #C91722",
"H  c #C31A24",
"J  c #D31722",
"K  c #D31A24",
"L  c #D41F28",
"P  c #C9242B",
"I  c #CB292E",
"U  c #D5242C",
"Y  c #D4282F",
"T  c #CA2B31",
"R  c #D52B31",
"E  c #CC3639",
"W  c #C23D3D",
"Q  c #CC3F3E",
"!  c #D63135",
"~  c #D63539",
"^  c #D63A3D",
"/  c #A33C43",
"(  c #D73E41",
")  c #D83E41",
"_  c #AB444A",
"`  c #B44343",
"'  c #BD4C4A",
"]  c #AE4B52",
"[  c #B14D54",
"{  c #BE4F54",
"}  c #B65359",
"|  c #B8545A",
" . c #BF5D63",
".. c #C74547",
"X. c #CC4848",
"o. c #D64444",
"O. c #D84545",
"+. c #D84947",
"@. c #D84748",
"#. c #D54C4A",
"$. c #D84D4B",
"%. c #C2524E",
"&. c #D7524E",
"*. c #D9514E",
"=. c #C65652",
"-. c #CC5553",
";. c #CB5A56",
":. c #C45A5F",
">. c #CE5D59",
",. c #D45352",
"<. c #D95552",
"1. c #D45956",
"2. c #D95955",
"3. c #DC5758",
"4. c #DA5D5A",
"5. c #D3625D",
"6. c #DA635D",
"7. c #DB5E60",
"8. c #C5656B",
"9. c #D76560",
"0. c #DB6661",
"q. c #DC6A64",
"w. c #DF6769",
"e. c #CC6D73",
"r. c #D56D72",
"t. c #D27077",
"y. c #D27279",
"u. c #DC7479",
"i. c #D7797F",
"p. c #E0686B",
"a. c #E16F72",
"s. c #E17175",
"d. c #E27579",
"f. c #E3797E",
"g. c #DB7D83",
"h. c #E47D82",
"j. c #E48186",
"k. c #E5858B",
"l. c #E6898E",
"z. c #E78A90",
/* pixels */
"A A A A A A A A A A A A A A S F Y ~ +.<.q.q.q.q.q.6.6.2.&.+.! U F A A A A A A A A A A A A A A A A ",
"A A A A A A A A A A A A S F Y ( $.6.6.6.q.q.q.q.q.q.q.6.6.6.2.+.^ Y F A A A A A A A A A A A A A A ",
"A A A A A A A A A A S F Y ^ &.6.6.q.6.q.q.q.q.q.q.q.q.q.q.q.q.6.4.*.) U F A A A A A A A A A A A A ",
"A A A A A A A A A S K ^ &.6.6.q.q.q.q.q.q.q.q.q.q.q.q.q.q.q.q.q.q.0.2.$.! J S A A A A A A A A A A ",
"A A A A A A A A S L o.2.q.q.q.q.q.q.q.q.q.q.q.q.q.q.q.q.q.q.q.q.q.q.q.6.2.) L S A A A A A A A A A ",
"A A A A A A V S Y +.4.6.q.q.q.q.q.q.q.a.q.q.q.q.q.q.q.q.q.q.q.q.q.q.q.q.6.2.O.Y S A A A A A A A A ",
"A A A A A A S U +.6.q.q.q.q.q.a.q.q.q.q.q.a.q.q.q.q.q.a.q.q.q.q.q.q.q.q.q.q.6.+.L S A A A A A A A ",
"A A A A A A U O.4.q.q.q.q.q.q.q.q.q.q.q.q.q.q.q.s.q.q.q.q.q.q.q.q.q.q.q.q.q.q.q.+.L A A A A A A A ",
"A A A A A K ( 4.0.q.q.q.q.q.a.q.q.q.q.q.q.q.q.q.q.q.q.q.q.q.q.q.q.a.q.q.q.q.q.q.4.o.K S A A A A A ",
"A A A A D ! <.0.q.q.q.q.q.q.q.q.q.q.q.q.q.q.q.q.q.q.q.q.q.q.q.s.q.q.q.q.q.q.q.q.6.<.~ F A A A A A ",
"A A A A U @.6.q.q.q.q.q.q.q.q.q.q.q.q.q.q.q.q.q.q.q.q.q.q.q.q.q.q.q.q.q.q.q.q.q.q.6.$.R S A A A A ",
"A A A D ^ 4.0.q.q.q.q.q.q.q.q.a.q.q.f.q.q.q.d.q.q.q.s.q.d.q.q.q.a.q.q.q.q.q.q.q.q.q.4.o.K A A A A ",
"A A A U $.0.q.q.q.q.q.a.q.q.q.q.q.q.q.q.q.q.q.q.q.q.q.d.q.q.q.q.q.q.q.q.q.q.q.q.q.6.6.4.! S A A A ",
"A A D ~ 4.0.q.q.q.p.q.q.q.q.q.q.f.q.q.q.q.q.q.q.q.q.q.q.q.q.q.q.a.q.q.q.q.q.q.q.q.q.6.6.O.K S A A ",
"A S J @.6.q.q.q.q.q.q.q.q.q.q.q.q.q.q.q.q.q.d.q.q.q.q.q.q.q.q.q.q.q.q.q.q.q.q.q.q.q.p.6.<.R S A A ",
"A A Y *.0.q.q.q.q.q.q.q.q.q.q.q.q.q.q.q.q.q.q.q.q.q.q.q.q.q.q.q.q.q.q.q.q.q.q.q.q.q.q.q.6.^ F A A ",
"A F ~ 6.q.q.q.q.q.q.q.q.0.0.0.q.q.q.q.q.q.q.q.q.q.q.q.q.q.q.q.q.0.0.q.q.0.q.q.q.q.q.q.q.6.&.R D A ",
"S Y &.6.q.q.6.q.q.q.6.6.6.6.6.6.q.q.q.q.q.q.q.q.q.q.q.q.q.q.q.6.6.6.6.6.6.0.q.6.6.q.q.q.6.6.$.R S ",
"U +.5.q.q.q.q.q.6.6.4.2.1.2.<.4.2.6.q.q.q.q.q.q.q.q.q.q.q.6.6.2.2.2.2.<.1.6.6.6.q.q.q.q.q.6.6.+.U ",
"@.2.6.q.q.q.q.6.6.1.*.*.*.<.<.<.2.2.q.q.q.q.q.q.q.q.q.q.6.6.2.&.*.*.<.$.&.2.2.6.6.0.q.q.q.q.6.5.o.",
"<.6.q.q.q.0.6.6.2.&.$.<.4.w.w.4.2.&.2.6.6.q.q.q.q.q.q.q.6.2.*.*.3.7.p.p.3.<.$.3.5.6.q.q.q.q.q.6.&.",
"6.0.0.q.0.q.6.2.#.+.<.p.f.h.h.d.q.2.*.2.6.q.q.q.q.q.q.6.2.+.*.2.a.h.h.h.s.7.<.$.2.6.6.q.q.q.q.q.6.",
"0.q.q.0.q.6.4.*.+.$.p.h.l.z.z.k.d.q.6.*.2.q.q.q.q.q.6.2.*.*.2.q.j.z.z.z.k.d.7.$.&.6.6.q.q.q.q.0.6.",
"q.0.q.q.q.6.2.$.+.3.d.l.z.z.g.y.q.q.2.*.2.6.q.q.q.q.6.2.*.*.q.q.r.i.k.z.z.j.p.*.&.2.6.q.q.q.q.q.q.",
"q.q.q.0.q.6.2.+.+.7.h.z.z.f. .] | :.&.&.2.6.q.q.q.6.6.2.+.+.2.;.[ } y.k.z.k.a.<.#.2.6.q.q.q.q.q.q.",
"5.6.q.q.q.5.2.+.@.3.f.z.k.e./ a _ ` ..#.2.5.q.q.q.q.6.2.+.+.' ` f a } g.z.k.a.<.$.2.6.q.0.q.q.q.6.",
"<.6.q.q.6.6.1.&.+.3.s.l.k.8.a e i x W &.2.6.q.q.q.q.6.2.&.Q l p r r ] g.z.h.w.<.&.2.6.0.q.q.q.6.<.",
"^ 4.0.0.q.6.6.&.+.$.p.f.k.t._ t y h Q &.2.6.q.q.q.q.6.2.&.Q z u r a  .g.k.u.3.$.&.4.6.0.q.q.q.2.) ",
"U O.6.6.6.6.6.5.$.+.<.p.d.u.5.` v W X.2.6.0.q.q.q.q.0.6.2.+.Q n m { r.f.s.4.*.&.2.6.0.q.q.0.4.O.U ",
"S U o.2.6.q.6.6.2.&.$.*.4.6.4.&.X.$.&.6.0.9.q.q.q.q.q.6.6.2.&.+.#.<.4.7.3.*.*.2.6.6.q.0.6.2.O.U S ",
"A A F ~ &.6.6.6.6.2.<.$.$.*.*.*.&.6.6.6.q.q.q.q.q.q.q.0.6.6.2.&.*.*.*.*.*.<.2.6.6.0.q.0.<.^ L A A ",
"A A A F ~ 6.6.q.6.6.4.4.4.<.2.2.6.6.q.6.q.q.q.0.9.0.q.q.q.q.6.2.2.2.2.2.2.6.6.0.q.q.0.6.o.L A A A ",
"A A A A L O.2.0.0.0.6.6.6.6.6.0.6.q.q.q.q.6.5.;.=.>.5.q.q.q.9.q.6.6.6.6.6.6.q.q.q.q.6.&.! S A A A ",
"A A A A S Y $.6.0.q.q.q.q.q.q.q.q.q.q.q.q.5.;.{ ' =.>.5.q.q.q.q.q.q.q.q.q.q.q.q.q.6.2.^ F A A A A ",
"A A A A A S R &.6.6.q.q.q.q.q.q.q.q.q.q.q.5.>.>.>.5.5.q.q.q.q.q.q.q.q.q.q.q.q.6.6.2.^ F A A A A A ",
"A A A A A A D Y #.4.6.q.q.q.q.q.q.q.q.q.q.q.q.q.q.q.q.q.q.q.q.q.q.q.q.q.q.q.q.6.2.^ K Z A A A A A ",
"A A A V V A A S U o.<.6.0.q.q.q.q.q.q.q.q.q.q.q.q.q.q.q.q.q.q.q.q.q.q.6.q.6.6.$.^ F A A A A A A A ",
"A A A B < B V A A J ~ +.1.6.6.0.q.q.q.q.q.q.q.q.q.q.q.q.q.q.q.q.q.q.q.6.6.2.o.Y F A A A A A A A A ",
"A A V < : : < A A A S U ~ +.2.1.>.5.6.q.q.q.q.q.q.q.q.q.q.q.9.9.5.;.=.&.o.! J S A A A A A A A A A ",
"A A A B : . : V A A A V D K T n c ` ' %.=.>.>.>.5.5.>.>.>.;.{ ' ` c k j G S V A A A A A A A A A A ",
"A A A V < X . > C A A A A A 8 ; & - i p d x x v v v v c c s p i r & & . 2 V A A A A A A A A A A A ",
"A A A A V , X X , Z A A A B 1 o         & = & & - = = % & & & o o     o # 7 V A A A A A A A A A A ",
"A A A A A B > . X < V A Z , # o                             o O O       O 3 C A A A A A A A A A A ",
"A A A A A V B : . : B V 7 @ o                               o + + o     o + 7 V A A A A A A A A A ",
"A A A A A A Z < : X > 9 5 O o                               o + 2 #     o O > B A A A A A A A A A ",
"A A A A A A A V 6 X ; j b y %                                 + 2 1 O - y - 0 C A A A A A A A A A ",
"A A A A A A A A C q g M ' v r o o o                           O 6 8 h ` ` ` n G A A A A A A A A A ",
"A A A A A A A A S I W ' %.' x * O o                           * 4 P X.>.5.5.#.Y A A A A A A A A A ",
"A A A A A A A A D ^ &.-.>.-.N 0 $ o                           & 3 I *.6.0.0.2.! A A A A A A A A A ",
"A A A A A A A A S ! ,.5.6.,.E w 1 o                             $ H o.2.6.0.<.Y A A A A A A A A A ",
"A A A A A A A A S K ^ $.+.~ J 7 # o                           t # 9 L o.&.<.^ J A A A A A A A A A ",
"A A A A A A A A A S K U L D Z 6 # o                             O 6 Z K R R J S A A A A A A A A A ",
"A A A A A A A A A A A A S A V 2 *                               o 2 V A S A A A A A A A A A A A A ",
"A A A A A A A A A A A A A A V 1 o             &                 o @ C A A A A A A A A A A A A A A ",
"A A A A A A A A A A A A A A 7 # o                               o + 7 Z A A A A A A A A A A A A A ",
"A A A A A A A A A A A A A V 6 #                                 o O 6 Z A A A A A A A A A A A A A ",
"A A A A A A A A A A A A A V 1 o                                   o : C A A A A A A A A A A A A A ",
"A A A A A A A A A A A A A 7 # o                                   o + 7 A A A A A A A A A A A A A ",
"A A A A A A A A A A A A V 2 O                                       O 1 V A A A A A A A A A A A A ",
"A A A A A A A A A A A A B X o                                       o @ B V A A A A A A A A A A A ",
"A A A A A A A A A A A V , . o                   e                     O > V A A A A A A A A A A A ",
"A A A A A A A A A A A B X o                                           o 1 B A A A A A A A V A A A "
};
